<svg id="Capa_1" data-name="Capa 1" xmlns="http://www.w3.org/2000/svg" viewBox="0 0 96 96"><path d="M66,18c-13,0-14.67.06-19.79.29a35,35,0,0,0-11.65,2.23,24.59,24.59,0,0,0-14,14,35,35,0,0,0-2.23,11.65C18.06,51.33,18,53,18,66s.06,14.67.29,19.79a35.29,35.29,0,0,0,2.23,11.65,24.59,24.59,0,0,0,14,14,35,35,0,0,0,11.65,2.23c5.12.23,6.75.29,19.79.29s14.67-.06,19.79-.29a35,35,0,0,0,11.65-2.23,24.59,24.59,0,0,0,14-14,35.55,35.55,0,0,0,2.23-11.65c.23-5.12.29-6.75.29-19.79s-.06-14.67-.29-19.79a35.55,35.55,0,0,0-2.23-11.65,23.57,23.57,0,0,0-5.54-8.51,23.38,23.38,0,0,0-8.5-5.53,35.15,35.15,0,0,0-11.66-2.23C80.66,18.06,79,18,66,18Zm-4.3,8.65H66c12.82,0,14.34.05,19.4.28a26.39,26.39,0,0,1,8.91,1.65,15.89,15.89,0,0,1,9.11,9.11,26.39,26.39,0,0,1,1.65,8.91c.23,5.06.28,6.58.28,19.39s0,14.33-.28,19.39a26.39,26.39,0,0,1-1.65,8.91,15.91,15.91,0,0,1-9.11,9.1,26.58,26.58,0,0,1-8.91,1.66c-5.06.23-6.58.28-19.4.28s-14.33,0-19.39-.28a26.71,26.71,0,0,1-8.92-1.66,15.91,15.91,0,0,1-9.11-9.1,26.65,26.65,0,0,1-1.65-8.91c-.23-5.06-.28-6.59-.28-19.4s.05-14.33.28-19.39a26.78,26.78,0,0,1,1.65-8.92,15.89,15.89,0,0,1,9.11-9.11,26.52,26.52,0,0,1,8.92-1.65c4.43-.2,6.14-.26,15.09-.27Zm29.93,8a5.76,5.76,0,1,0,5.76,5.76,5.76,5.76,0,0,0-5.76-5.76ZM66,41.35A24.65,24.65,0,1,0,90.65,66,24.65,24.65,0,0,0,66,41.35ZM66,50A16,16,0,1,1,50,66,16,16,0,0,1,66,50Z" transform="translate(-18 -18)"/></svg>