<svg id="Capa_1" data-name="Capa 1" xmlns="http://www.w3.org/2000/svg" viewBox="0 0 96 96"><path d="M66,18a48,48,0,1,0,48,48A48,48,0,0,0,66,18ZM88,87.23a3,3,0,0,1-4.11,1c-11.27-6.89-25.46-8.45-42.17-4.63a3,3,0,0,1-1.33-5.83c18.28-4.18,34-2.38,46.62,5.35A3,3,0,0,1,88,87.23Zm5.88-13.07a3.74,3.74,0,0,1-5.15,1.23c-12.9-7.92-32.57-10.22-47.83-5.59a3.74,3.74,0,0,1-2.18-7.16C56.17,57.35,77.84,59.91,92.65,69A3.74,3.74,0,0,1,93.89,74.16Zm.5-13.61c-15.47-9.19-41-10-55.76-5.55A4.49,4.49,0,0,1,36,46.41c17-5.15,45.14-4.15,63,6.42a4.49,4.49,0,1,1-4.58,7.72Z" transform="translate(-18 -18)"/></svg>