<svg id="Capa_1" data-name="Capa 1" xmlns="http://www.w3.org/2000/svg" viewBox="0 0 25.46 25.46"><defs><style>.cls-1{fill:none;stroke:#000;stroke-linecap:round;stroke-linejoin:round;stroke-width:0.75px;}</style></defs><circle class="cls-1" cx="12.73" cy="12.73" r="12.35"/><path class="cls-1" d="M12.86,25.22c-3.59,0-6.5-5.53-6.5-12.36S9.27.51,12.86.51" transform="translate(-0.14 -0.14)"/><path class="cls-1" d="M12.86,25.22c3.6,0,6.51-5.53,6.51-12.36S16.46.51,12.86.51" transform="translate(-0.14 -0.14)"/><path class="cls-1" d="M21.42,4.23C21.42,6.31,17.59,8,12.86,8S4.31,6.31,4.31,4.23" transform="translate(-0.14 -0.14)"/><path class="cls-1" d="M21.42,21.5c0-2.08-3.83-3.76-8.56-3.76S4.31,19.42,4.31,21.5" transform="translate(-0.14 -0.14)"/><path class="cls-1" d="M4,6.11" transform="translate(-0.14 -0.14)"/><line class="cls-1" x1="0.47" y1="12.73" x2="25.08" y2="12.73"/><line class="cls-1" x1="12.73" y1="0.38" x2="12.73" y2="25.08"/></svg>