<svg id="Capa_1" data-name="Capa 1" xmlns="http://www.w3.org/2000/svg" width="113.18mm" height="121.09mm" viewBox="0 0 320.83 343.25">
  <defs>
    <style>
      .cls-1 {
        fill: none;
        stroke: #000;
        stroke-linecap: round;
        stroke-linejoin: round;
        stroke-width: 6px;
      }
    </style>
  </defs>
  <path class="cls-1" d="M41.85,21.37c0,4.63-.53,9.62.25,14.17A25.84,25.84,0,0,0,43.49,41c.61,1.54.63,3.22,1.25,4.7a65,65,0,0,1,2.53,9.06c.88,3.45,1,6.94,2.16,10.34a30,30,0,0,1,1,4.55c.27,1.46.82,2.93,1.13,4.45s.11,3.27.5,4.83.83,3,1.3,4.56c.37,1.2.57,2.42,1,3.61.46,1.35,1.17,2.71,1.56,4s.35,3.07.7,4.54c.43,1.78,1.74,3.74,1.92,5.56"/>
  <path class="cls-1" d="M59.53,88.57V99.43c0,1.92.13,3.87,0,5.78a6.44,6.44,0,0,1-.66,2.13,22.71,22.71,0,0,0-.76,3.48c-.32,1.53.06,3.13-.23,4.67-.41,2.2-1.31,4.29-1.92,6.44-1.15,4.06-2.34,8-3.65,12-.7,2.17-1,4.48-1.76,6.62a45.75,45.75,0,0,0-1.6,4.89,40.7,40.7,0,0,1-1.06,4.5,36.48,36.48,0,0,0-1.5,5.88c-.62,3.43-1,6.92-1.78,10.33-.41,1.76-.47,3.51-.8,5.28-.17.89-.69,1.65-.87,2.54-.23,1.12-.31,2.33-.5,3.46-.33,2.07-.58,4.17-1,6.19-.35,1.62.06,3.07-.62,4.65-.78,1.8-.64,3.94-1.07,5.9-.39,1.71-1.24,3.32-1.46,5.08"/>
  <path class="cls-1" d="M40.84,183.06c0,2.35,0,4.7,0,7.05,0,1.58-.84,2.9-.44,4.52,1.91,0,3.53-1.92,5.37-2.38.51-.13,1.14,0,1.64-.18a21.8,21.8,0,0,0,2.06-1.16c1.43-.6,3,0,4.43-.38a24.77,24.77,0,0,1,4.61-.92,10.33,10.33,0,0,0,2.92-.35,9.48,9.48,0,0,1,3.24-.64c4.53,0,9.06,0,13.58,0,2.17,0,4.39.16,6.55,0,1.35-.08,2.59-.53,4-.54,1,0,2,0,3,0h13.13c2.12,0,4.77.43,6.84-.09,1.31-.32,2-.92,3.42-.93a18.55,18.55,0,0,0,3.66-.38c1-.2,1.92-.23,2.92-.5s2-.8,3-1.05,2.36-.24,3.51-.46a36.65,36.65,0,0,1,3.84-.65c4.72-.38,9.64,0,14.38,0a24.76,24.76,0,0,1,6.56.6c2,.57,4,1.54,6,2.2a20.65,20.65,0,0,0,3.15.34c1.33.22,2.62.7,3.95.93a46.93,46.93,0,0,0,8.06.48"/>
  <path class="cls-1" d="M172.21,187.61h7.11c2.07,0,4,.46,6,.49a32.24,32.24,0,0,1,6.71.9c2.22.51,4.43.58,6.59,1.27,3.28,1,7.61.37,11,.37s6.62,0,9.93,0c1.73,0,3.24.52,4.94.5s3.44,0,5.15,0c2,0,3.85.22,5.71-.5s4.11-1.1,6-2a8.9,8.9,0,0,1,4.38-1,8,8,0,0,0,2-.47c.75-.17,1.54.12,2.28,0s1.31-.44,2-.6a32.91,32.91,0,0,1,3.57-.48c1-.14,1.91-.66,2.91-.87a11.39,11.39,0,0,0,2.72-.72c2.62-1.2,5.23-.72,8-1.29,2-.41,4.26-.11,6.31-.11h6.83a24.23,24.23,0,0,1,3,.5"/>
  <path class="cls-1" d="M287.91,184.07c-2.65-2.65-5.08-5.7-8.08-8a19.36,19.36,0,0,1-5.5-7.45c-.81-2-1.29-4.26-2.08-6.32a11.28,11.28,0,0,1-.48-2.53c-.22-1.39-1.19-2.68-1.48-4.08a30.89,30.89,0,0,0-1.45-4.39c-.38-1-.57-2.16-1-3.16a77.58,77.58,0,0,1-3.17-8.67c-.37-1.25-.51-2.57-.87-3.82-.41-1.41-1.22-2.75-1.57-4.17-.66-2.68-.09-6.34-.09-9.09A60.72,60.72,0,0,0,260,106.37a66.92,66.92,0,0,1-1.37-7.21,25.1,25.1,0,0,0-1.14-4.92,18.38,18.38,0,0,1-1.41-4.54c-.12-1.25-.15-2.28-.37-3.53s.05-2.57-.15-3.84c-.25-1.6-.8-3.26-1.1-4.88s-.85-3.36-1.28-5.06a32.16,32.16,0,0,1-1.1-6.8,19.89,19.89,0,0,0-1-4.19c-.39-1.43-.67-2.86-1.14-4.28s-1.07-2.93-1.51-4.43-.55-3-1-4.46c-.19-.59-.6-1-.8-1.59-.26-.72-.29-1.66-.48-2.42-.3-1.19-.72-2.33-1-3.54-.76-3.19-2.57-6-3.79-9.07-.36-.91-.41-1.54-1.24-2.19-.64-.5-1.51-.87-2.17-1.35a12.67,12.67,0,0,0-2.12-1.25c-.82-.4-2-1.37-2.93-1.4"/>
  <path class="cls-1" d="M35.79,21.37c3.49-2,7.51-4.24,11.64-4.56,1.83-.13,3.52-.49,5.38-.49H58.4c2.69,0,5.31-.28,7.81.65a81.75,81.75,0,0,0,10.4,2.88,21.31,21.31,0,0,1,5,2c1,.51,1.93.84,2.93,1.3a24.77,24.77,0,0,1,2.79,1.88,41.61,41.61,0,0,0,11.15,5c2.92.8,5.73,1.84,8.8,1.9,4,.07,8.09.4,11.62-1.71a45.59,45.59,0,0,1,4.95-2.46c.82-.36,1.51-.85,2.36-1.14A17.1,17.1,0,0,0,129,25.19c1.47-.78,3.58-.39,5.22-.9,1.91-.59,3.64-1.77,5.67-1.91a24.15,24.15,0,0,0,9.81-3.51c1.13-.71,2.06-1.52,3.26-2.16,1.9-1,3.85-2,5.8-2.93,2.83-1.33,5.74-2.66,8.69-3.78a86.33,86.33,0,0,0,9.3-4.59c1.47-.77,2.86-1.86,4.56-2.19a20.66,20.66,0,0,1,6,0A33,33,0,0,1,192.63,5a40.65,40.65,0,0,0,5.87,1.73c2.26.43,4.36,1.18,6.59,1.81s4.21,1.89,6.59,2.34c.86.15,1.73.35,2.58.56,1.13.28,2.17.27,3.31.49.92.19,1.83.32,2.75.5s1.9.81,2.92.94a18.37,18.37,0,0,1,3,.34c1,.29,2,.65,3,1,1.83.67,3.9.83,5.53,1.64,2,1,4.86.81,7.11,1.06a57.54,57.54,0,0,0,6.57.46"/>
  <path class="cls-1" d="M129.26,96.15c0-3-.07-6,0-9a23.27,23.27,0,0,1,.47-3A10.89,10.89,0,0,1,130,82.5a3.46,3.46,0,0,1,.62-1.46,4.16,4.16,0,0,1,1.78-.75c1.17-.27,2.33.15,3.49-.31s2.6-.33,3.83-.81,2.13-.88,3.2-1.3,2.39-.78,3.59-1.17a22.45,22.45,0,0,0,3.78-1.52c.53-.27.91-.74,1.43-1a6.62,6.62,0,0,1,.82-.28,7.6,7.6,0,0,0,1.48-1,9.29,9.29,0,0,0,1.37-1.06,13.32,13.32,0,0,1,1.72-1.26,25.54,25.54,0,0,1,3.45-2.48,5.21,5.21,0,0,1,3.59,0,3.14,3.14,0,0,1,2.17,2.3c.7,2.5.38,5.29.38,7.88v3.46c0,.76,0,1.52,0,2.28,0,.61.23,1.16.27,1.76s-.06,1.18,0,1.77.36,1.08.47,1.65a5.9,5.9,0,0,0,.2,1.39,3.94,3.94,0,0,0,.71,1.16c.95,1,2.06.86,3.33.86h3.91c2.39,0,4.94.18,7.22-.69.64-.24,1.17-.7,1.82-.94s1.28-.33,1.9-.52c1.35-.42,2.73-.61,4-1.15a5,5,0,0,1,2.4-.26c1.41.22,1.55,1.64,2,2.74.67,1.74.31,4,.31,5.88,0,2.36,0,4.71,0,7.07a4.73,4.73,0,0,1-.75,2.77,9.61,9.61,0,0,1-3.3,2.29,22.65,22.65,0,0,1-9.34,1.5h-9.73a21.86,21.86,0,0,0-3.71,0,5.08,5.08,0,0,0-3,1.45c-1.24,1.8-.76,4.75-.76,6.84v15.66a13.72,13.72,0,0,0,.05,2.22c.11.66.41,1.29.46,2a4.11,4.11,0,0,1-.37,2.6c-.74,1-2.69.8-3.74.8h-2.78a14.76,14.76,0,0,0-2.74,0c-1.07.22-2.19.52-3.25.82-.71.2-1.38.56-2.09.77s-1.7.39-2.54.63c-2,.57-5.88,2.81-6.87-.18-.21-.64-.25-1.28-.48-1.93s-.4-1.42-.6-2.13a11.63,11.63,0,0,1-.32-3.34V129.3c0-.6,0-1.21,0-1.82s-.25-1.3-.27-2c0-.93,0-2.47-.65-3.19-.53-.57-1.55-.38-2.23-.37-1.06,0-2.11,0-3.16,0H124.2c-.6,0-1.21,0-1.82,0a10.51,10.51,0,0,0-2.16.46c-.43.09-.84,0-1.26,0s-1.14.28-1.7.4c-1.53.32-3.13.21-4.68.62-1.18.32-2.35.77-3.54,1a14.17,14.17,0,0,1-2.78.25c-1.37,0-1.59-.65-2.07-1.82-.26-.66-.65-1.25-.9-1.91a12.71,12.71,0,0,1-.5-2.28c-.19-1.14.15-2.35-.17-3.46a5.79,5.79,0,0,1-.4-1.64c0-.88,0-1.78,0-2.66,0-2.47,0-4.94,0-7.41a12.42,12.42,0,0,1,.5-2.88A3.7,3.7,0,0,1,105,97.73a8.73,8.73,0,0,1,3.52-.82,24,24,0,0,1,4.32.22,9,9,0,0,0,2,.29,12.49,12.49,0,0,1,2.29.19,23.56,23.56,0,0,0,4,.06c1.17,0,2.36-.09,3.52,0,.62,0,1.16.25,1.78.27s1.35,0,2,0"/>
  <g>
    <path d="M68.47,257.49c1-4.83,2-11-1.46-15.1-3.46-3.39-9.28-4.33-13.75-2.79-2.2,1.16-3.7,3.27-5.09,5.25-4.69,7.12-6.45,15.52-9.09,23.5-2.32,4.16-4.46,8.42-5.07,13.19-1.64,1.64-2.84,6.47-5.66,5.86-5.54-1.67-6.77-13.1-8.69-18.24-.88-5.07-.21-10.29-1.85-15.25-1.33-4.85-5.41-8.57-6.25-13.58a2.08,2.08,0,0,0-1.23-1.52,2.51,2.51,0,0,0-4.6.51c-.46,1.12-.52,2.33-.88,3.48-1,3.58-3.16,6.68-3.9,10.34C-.47,259.62.61,266.48,0,273.09c-.4,5,2.57,9.31,4.63,13.61.35,3.86.92,7.78,2.94,11.19,2.2,6.34,7.59,11.92,14.35,13,2.34,2.3,5,4.5,8.43,4.77A10.2,10.2,0,0,0,41.61,309c2.77-3.9,7-6.65,9.12-11.08,2.65-4.52,4.57-9.37,7-14,2.77-4.78,1-10.34,2.58-15.32.95-2.09,3.15-3.11,4.79-4.6C67,262.28,67.65,259.81,68.47,257.49Z"/>
    <path d="M172,263.83c4.86-3.87,9.91-2.05,15.4-1.48,2.7.72,6.08,1.85,8.76.62,3.55-2.26,4-7.09,4.06-10.93,1.81-13.19-11.5-16.32-22-15.35-2.83.05-4.95,2.19-7.31,3.36-1.79.1-3.65,0-5.44,0-11.27-7.8-19.73.91-30.86-1.88a22.29,22.29,0,0,0-11.43-3.31c-8.69.54-13,14.58-4.69,18.78-6.08-1.21-10.53,2.89-15.85,4.87.25-6.86,3.62-15.88-4-19.93,3.18-.58,3.17-4.12,3-6.67.24-6.14-2.82-14.8-9.61-16-9,.95-15.07,15.27-6.19,20.53a2.69,2.69,0,0,0,.69,1.23c-2.92,3.73-2.17,8.74-2.28,13.15C83.41,257.7,80,263.3,76,268.76c-3.35,4.63-5.25,10-7.53,15.22-3,6-7.51,14.93-2.32,20.84,2.35,1.54,5.41,1.21,8.09,1,2.64-.51,4.12-2.9,5.81-4.74,2.6,7.88,7.28,16.77,15.21,20.17,2.58,4.14,8.72,2.73,12.75,2.11,3.94-.42,8.9,1.2,11.87-2.25,2.87-3,5.5-6.68,5.67-11,1.74-12.82-17.11-11-25.42-11.15.1,0-.24-.05-.27,0-2.62-2.38-2.53-6.06-3.6-9.21-.54-2.18-.26-4.48-.26-6.71,0-1.88-.27-3.68.9-5.29,3.07-3.32,7.07-6.32,11.84-5.93a12.82,12.82,0,0,1,2.4,0c1.63.65,2.79,2.34,4.31,3.18,3.62,1.76,8.83,2.86,12.17.06,3.66-2.84,3-7.76,3-11.86.06-1.6.3-3.5-.25-5.07a2.19,2.19,0,0,1,.47.08,15.79,15.79,0,0,0,17.85,4.64c1,2.51.17,5.49.39,8.16-.11,6.18.56,12.52-1.4,18.49a42.79,42.79,0,0,0-3.91,18c-.42,2.18-1.11,4.49-.9,6.73-3.59,4.84,6.14,7,9.47,7.33a4.89,4.89,0,0,0,4.21-.82c6.74-4.69,3.89-13.71,5.89-20.58,1.5-7.42,1.74-15.09,3.43-22.53a41.48,41.48,0,0,1,2.68-11.47C169.07,264.5,170.7,264.53,172,263.83Zm-23.35-1.23s0,0,0,0S148.63,262.64,148.64,262.6Z"/>
    <path d="M320.17,270.28c-.95-2.12-2.53-3.28-4.37-4.57a15.87,15.87,0,0,1-3.53-3.83c-4.69-6.34-13.57-4.89-19.89-2.13-5.24,1.47-10.1-2.76-15.32-1.38-5.8,2-8.06,9.63-9.07,15.09-3.25,8.08-3.86,16.69-5.7,25.09-1.53-5.43-9.42-13-14.51-15.37-3.69-1.17-7.71-1.64-11.1-3.68a46,46,0,0,0-8.46-4.2c-3.2-1.29-6.34-2.84-9.85-3a11.17,11.17,0,0,1-6-.69c-7.44-2-12.35-1.94-19.22,1.94-4.05,1.68-7.58,4.24-11.77,5.66-3.79,2.13-5.52,6.81-6.62,10.73-1.86,4.16-3.89,8.24-3.62,13-1.55,19.65,6.74,36.87,28,38.83,11.44-.16,23.89,1.07,34.44-4,1.84-1.09,3.37-2.66,5.27-3.65,3.71-1.62,8.43-1.49,11.59-4.34,2.85-2.6,6.63-5,7.5-9.11.29,4.51-.07,10.1,4.5,12.52,3.11,2.51,6.57,5.75,10.79,5.86a6.48,6.48,0,0,0,5-3.35c.79-1.28,1-18.39,1.33-19.9a100.06,100.06,0,0,0,4.18,12.92c.88,2.07,6.81,8.08,6.81,8.08,4.12,3.77,7.77,8.14,15.5,5.87a19.26,19.26,0,0,0,7-4.56c1.84-1.68,5.32-3.3,4.19-6.33-1.15-2.33-4.08-2.56-5.68-4.51a61.07,61.07,0,0,1-9.93-11.86c-1-1.24-1.54-3.61-2.41-4.54a7.48,7.48,0,0,1-1.12-5.45c7.85,0,16.65-.08,17.42-9.87C316,286.83,323,279.14,320.17,270.28Zm-22,34.65v-.14S298.25,304.89,298.15,304.93Zm-13-27.47a.46.46,0,0,1-.13.08C285,277.49,285.07,277.44,285.11,277.46Zm5.44,14.15,7.21-9.75a4.86,4.86,0,0,1-.41,1.54,4,4,0,0,1-1,1.31,8.75,8.75,0,0,0-3.94,4,1.55,1.55,0,0,1-2.51.2,57,57,0,0,1-6.13-9.25c.43-.67.74-1.36,1.19-2,.41-.05,1-.13,1.11-.15-.16,0,.93-.4,1-.43,3.58-.94,7.88-1,9.68,2.87C297.11,280.54,297.78,281.23,297.76,281.86Zm-99.42,18.72c-.09.05-.15,0,0,0ZM230.8,322c-3.63-.82-7.66-.86-11-2.59a8.72,8.72,0,0,0-7.61-.08c-4.42,1.73-8.69,4.37-13.63,3.5,4.57-8.72,7.35-7,1.44-15.15-.72-2.27-2.65-4.66-1.57-7.12,2.84.17,6.18-.78,8.75.91,3.63,2.49,9.61,6.13,13.5,2.16,2.4-2.17,7.43-11,10.65-6a11.45,11.45,0,0,1,1.95,5.5c.64,3.2,2.4,6,2.26,9.42a2.19,2.19,0,0,0-.51.42c-.14,0-.92.22-1.23.26-7-.41-4.42,5.81-1,8.84A6.35,6.35,0,0,1,230.8,322Zm3.26.13v0S234.11,322.18,234.06,322.15Z"/>
  </g>
</svg>
