<svg id="Capa_1" data-name="Capa 1" xmlns="http://www.w3.org/2000/svg" viewBox="0 0 452.3 258.94"><defs><style>.cls-1{fill:none;}.cls-1,.cls-2{stroke:#282828;stroke-linecap:round;stroke-linejoin:round;stroke-width:1.6px;}.cls-2,.cls-3{fill:#282828;}</style></defs><path class="cls-1" d="M189.36,231.5" transform="translate(-109.22 -54.1)"/><path class="cls-1" d="M188.6,241.73" transform="translate(-109.22 -54.1)"/><path class="cls-1" d="M182.91,230.36" transform="translate(-109.22 -54.1)"/><path class="cls-1" d="M166.62,222a31.5,31.5,0,0,0,1.14,9.85" transform="translate(-109.22 -54.1)"/><path class="cls-1" d="M194.75,273.17c5,2.85,8.91,6.77,8,13.66" transform="translate(-109.22 -54.1)"/><path class="cls-1" d="M170.79,245.14c.69,2.73,1.07,5.59,1.91,8.27,1.11,3.51.3,6,2,9.23.47.9,4.1,2.41,5.05,3.14" transform="translate(-109.22 -54.1)"/><path class="cls-1" d="M164.72,246.66c.71,2,1.34,4,1.9,6.06" transform="translate(-109.22 -54.1)"/><path class="cls-1" d="M164.35,283.42c-.45,1.91-1.12,3.48-.21,5.32a7.07,7.07,0,0,0,1.72,2.63" transform="translate(-109.22 -54.1)"/><path class="cls-1" d="M157.9,285.69c.52,2.47.77,5.1,3,6.63,1.22.84,2.61,1.53,3.21,3,1,2.31-.12,5.34-1.68,7.06" transform="translate(-109.22 -54.1)"/><path class="cls-1" d="M331.06,287c.24-1.13.6-2.23.82-3.37a2.78,2.78,0,0,1,.69-1.68" transform="translate(-109.22 -54.1)"/><path class="cls-1" d="M329.29,286.47a14.55,14.55,0,0,0,.25-3.79" transform="translate(-109.22 -54.1)"/><path class="cls-1" d="M325.5,287.74c-.25-1.14-.38-2.3-.63-3.44-.2-.88-.32-1.2-1.14-1.62" transform="translate(-109.22 -54.1)"/><path class="cls-1" d="M315.14,290a24.07,24.07,0,0,0-.25-2.53" transform="translate(-109.22 -54.1)"/><path class="cls-1" d="M349,284.71a9.41,9.41,0,0,1,.76-2.28" transform="translate(-109.22 -54.1)"/><path class="cls-1" d="M350.76,286.47c.24-.7.36-1.48.65-2.16s.6-1.08.87-1.63" transform="translate(-109.22 -54.1)"/><path class="cls-1" d="M361.88,279.65a3.8,3.8,0,0,0,.5-1.77" transform="translate(-109.22 -54.1)"/><path class="cls-1" d="M363.9,279.4a6.89,6.89,0,0,0,.5-1.26" transform="translate(-109.22 -54.1)"/><path class="cls-1" d="M422,302.89a20.21,20.21,0,0,1-.29-2.07,24.3,24.3,0,0,0-.73-3,30.94,30.94,0,0,0-.74-3.23" transform="translate(-109.22 -54.1)"/><path class="cls-1" d="M420,302.89c-.3-.94-.06-2.54-.76-3.28" transform="translate(-109.22 -54.1)"/><path class="cls-1" d="M425,301.38c-.15-1.21,0-2.34,0-3.54" transform="translate(-109.22 -54.1)"/><path class="cls-1" d="M455.86,296.33a15.54,15.54,0,0,1,.76-3,3.34,3.34,0,0,0,.5-1.53" transform="translate(-109.22 -54.1)"/><path class="cls-1" d="M458.38,295.57a8.73,8.73,0,0,0,.51-3" transform="translate(-109.22 -54.1)"/><path class="cls-1" d="M452.32,298.35a9.49,9.49,0,0,0-4.3-2" transform="translate(-109.22 -54.1)"/><path class="cls-1" d="M449.54,303.65a5,5,0,0,1-1.51,1c-.78.29-.79-.2-1.14-.79a1.59,1.59,0,0,0-1.39-.76c-.94,0-.85.4-1.26-.72-.26-.69-.55-.74-1.27-.9-.56-.13-1.27-.31-1.38-1s.81-1,1.38-1.27,1.87-.63,1.92-1.19c-1-1.09-2.21-1.33-2.74-2.79a2.25,2.25,0,0,1-.27-1.2c.13-.72.9-.78,1.49-1l-.4,0" transform="translate(-109.22 -54.1)"/><path class="cls-1" d="M428.07,310.47c.05-.68.17-1.34.25-2" transform="translate(-109.22 -54.1)"/><path class="cls-1" d="M432.61,307.19a1.18,1.18,0,0,1,.26-1" transform="translate(-109.22 -54.1)"/><path class="cls-1" d="M437.67,309c.16-.62.7-2.54,0-3" transform="translate(-109.22 -54.1)"/><path class="cls-1" d="M440.19,310a7.72,7.72,0,0,1-.06-3c.06-.44,0-1,.32-1.35" transform="translate(-109.22 -54.1)"/><path class="cls-1" d="M372.16,215.72a3.44,3.44,0,0,0,.36,2c.41.69.86,1.37,1.29,2.06a7.07,7.07,0,0,0,1.54,1.71,18.23,18.23,0,0,0,2.12,1.62,7.27,7.27,0,0,0,2.16.88,5.41,5.41,0,0,0,1.45,0c1,0,1.91-.13,2.9-.13.54,0,1.06-.07,1.6,0a9,9,0,0,1,2.56.44,4.58,4.58,0,0,1,1.5.85,4.82,4.82,0,0,0,1.56,1.1,7.62,7.62,0,0,0,1,.41,5,5,0,0,0,.87,0,11.3,11.3,0,0,0,1.76-.24" transform="translate(-109.22 -54.1)"/><path class="cls-1" d="M363.73,212c-.22,1,4,9.87,4.49,10.73a15.5,15.5,0,0,0,1.9,2.7,10,10,0,0,0,1.06,1c.21.2.38.43.61.62a11.32,11.32,0,0,0,3.29,1.49,8.68,8.68,0,0,0,2.2.63,11.43,11.43,0,0,0,2.11-.06,10.39,10.39,0,0,0,1.25-.14c.36-.07.68-.22,1-.31a3.43,3.43,0,0,1,2.86.2,14.49,14.49,0,0,0,2.56.62c.58.19,1.2.34,1.77.57a10.47,10.47,0,0,0,1.34.55,12.89,12.89,0,0,0,3.11.08" transform="translate(-109.22 -54.1)"/><path class="cls-1" d="M422.59,241.52c1.42.79,3.2.38,4.74.38a7.48,7.48,0,0,1,2.81.47,5.33,5.33,0,0,1,2.55,1.77c.73,1,.35,1.88.08,3-.15.64-.43,1.23-.52,1.88-.13.94-2.18,3.84-2.14,4.79a8,8,0,0,0,.5,2.39,2.78,2.78,0,0,0,.84,1.08c.7.62,1.43,1.21,2.19,1.76l-1.26-1.14c0-.3-.43-.56-.57-.82a3.57,3.57,0,0,1,1-4.43c.87-.88,2-1.34,2.91-2.13a3.45,3.45,0,0,0,.74-.83c.29-.47.67-.9.94-1.4,1.38-2.57,1.22-6.32-1-8.36-1.82-1.66-4.09-2.1-6.42-2.59a36.53,36.53,0,0,0-4.42-.54,11.14,11.14,0,0,1-2.77-.37" transform="translate(-109.22 -54.1)"/><path class="cls-1" d="M531.41,264.55a4.86,4.86,0,0,0,2.51.7c2.06,0,3.5-.86,5.23-1.42a20.55,20.55,0,0,1,5.68-.88c1.95,0,3.33.36,5.24-.25a6.13,6.13,0,0,0,3.92-2.95c.64-1.09-.23-1.44-.08-2.57.11-.85.68-1.12,1.21-1.84s.62-1.3,1.07-1.93,1.42-1.18,2-1.86.71-1.22,1.22-1.81c1.09-1.26,1.77-1.71,1-3.15-.54-1.07-1.68-2-1.3-3.22.21-.65,1.21-1,1.31-1.63s-.78-1-1.19-1.49a5.83,5.83,0,0,0-1.71-1.63,4.43,4.43,0,0,1-1.77-1.47c-.58-1.24.12-2.38.44-3.51s-.66-2.25-1.67-3.07c-.61-.51-1.33-.81-1.63-1.49s.11-1.45-.18-2.18-.89-1.05-1.09-1.69.24-1.31,0-2c-1.1.14-2.07,1.34-3.27,1.13-1.64-.28-1.15-1.93-1.23-2.77a25.72,25.72,0,0,0-1.59-5.69c-1.25-3.56-2.39-7.18-4.72-10.48a20.65,20.65,0,0,0-1.69-2.25c-1-1.05-1.33-1.46-3-1.14-1.26.24-2.48.57-3.84.74-1.67.22-2.86.06-4,1-1,.76-.73,1.13-2.25,1.14a6.5,6.5,0,0,0-2.29.28,3.66,3.66,0,0,0-2.16,1.64,20.65,20.65,0,0,1-2.13,2.74,9.32,9.32,0,0,0-2.24,4.06" transform="translate(-109.22 -54.1)"/><path class="cls-1" d="M494,262.38c-1.17-.95-2.22-1.95-3.41-2.9s2.14-2.4,1.38-3.66c-.4-.66-.37-1.38-.7-2s-1.06-1-1.74-1.58c.39-.56,1.21-1.31,1.06-2s-1-.82-1.16-1.29.39-.82.41-1.31a4.43,4.43,0,0,0-.8-1.78c-.52-.72-1.14-1-1.11-1.83s.8-1.45.77-2.22c0-1.5-1.69-2.58-2.61-3.81,1-.13,4.44-.32,4-1.69s-4.14-1.3-5-2.83a2,2,0,0,1,.25-2c.37-.59,1.49-1.09,1.7-1.64s-.57-1-.48-1.53c.24-1.22,1.79-.63,3-1a3,3,0,0,0,2.11-3.2c0-1.46-1.25-3.23.09-4.41.74-.65,1.83-.53,2.15-1.6.27-.88-.52-1.45.12-2.35a17.78,17.78,0,0,0,1.6-1.66,2.18,2.18,0,0,0,0-1.24c.38-.84.31-.57,1.7-.67a15.19,15.19,0,0,1,3.5-.09c1.85.25,2.31-.12,3.17-1.28s2.23-3.32,4.15-1.82a1,1,0,0,0,.61.86l.74.16a16,16,0,0,1,2.75,2,7.81,7.81,0,0,0,3.87,1.62,13.81,13.81,0,0,1,2.18.46c1.41.54,1.66,1.46,2.53,2.34.45.45,1.41.78,1.53,1.36s-1,1.21-.91,2c.16,1.58,2.36,2.76,3.39,4.08.22.27.77,1.4,1.38,1.52.77.14,1.81-1,2.17-1.31,2.3,2.18-.54,4.45-.29,6.72.06.55.32,1.09.39,1.65a11.79,11.79,0,0,1-.26,2.2c0,1.13,2.56,3.42,2.55,4.61s-2.06,1-1.7,2.16a4.18,4.18,0,0,0,2,2.74,28.66,28.66,0,0,1,3.08,1.93c1.52,1.28.65,1.75-.43,3-.67.8-.8,1.69-1.45,2.47s3.63.87,2.9,1.43c-.58.45-2.14,1.29-1.93,2s1.38.69,2.1,1.1a9,9,0,0,0,1.38.88c.61.24-4,.56-3.43.71,1.1.25,1.46.28.92,1.2s-.83.77-.43,1.61a5.27,5.27,0,0,1,.78,2c.07,1.57-2.19,2.1-4.07,2.44a32.4,32.4,0,0,0-4,.78c-.67.21-.9,1.59-1.57,1.78-1,.27-1.74.9-2.75,1.13-1.54.34-3.43-1.57-5-1.58-1.86,0-5.47,2.23-7.3,2-2.76-.35-3.42-3.07-6.23-2.61a25.23,25.23,0,0,1-4.61.21,11.05,11.05,0,0,0-2.87.27c-1.05.25-3.11.4-2.72-1,.15-.56,2.16-1.51,2.85-1.66,1.22-.27-5.68-2.29-4.46-2.18" transform="translate(-109.22 -54.1)"/><path class="cls-1" d="M507.9,269.55c-.42,1.5.06,3.11-.51,4.54" transform="translate(-109.22 -54.1)"/><path class="cls-1" d="M509.41,271.57c-.1,1.7-.25,3.34-.25,5.05" transform="translate(-109.22 -54.1)"/><path class="cls-1" d="M535.69,268.79c-.17,1.22-.28,2.46-.51,3.67a3.39,3.39,0,0,1-.5,1.63" transform="translate(-109.22 -54.1)"/><path class="cls-1" d="M538.72,266.52a27.4,27.4,0,0,1-1,4.86c-.3.78-.41,2.16-1,2.71" transform="translate(-109.22 -54.1)"/><path class="cls-1" d="M520.28,267.27a58.27,58.27,0,0,1,.5,6.32" transform="translate(-109.22 -54.1)"/><path class="cls-1" d="M522.3,268.79a16.92,16.92,0,0,1-.51,5.81" transform="translate(-109.22 -54.1)"/><path class="cls-1" d="M470.26,221" transform="translate(-109.22 -54.1)"/><path class="cls-1" d="M470.26,220.79c.37-1,.67-2,1-3,.14-.43.38-.84.48-1.28s-.05-.94.07-1.4c.77.3.66,1.77.95,2.38a4.14,4.14,0,0,0,2,1.84c.92.44,1.49-.78,2.43.08a5,5,0,0,1,1.13,2c.54,1.36,1,2.74,1.59,4.09.42,1,1,2,1.45,3a18.56,18.56,0,0,1,1.2,2.66c-.51.36-1.36-.72-1.42.3,0,.68.62,1.55.79,2.21.55,2.18,1.3,4.27,1.89,6.42.16.56.4,1.1.51,1.67a4.72,4.72,0,0,0,.29,1.34,15.05,15.05,0,0,0,1.09,1.56,9.61,9.61,0,0,1,1.79,3.25c.13.63.64,1.59.41,2.23-.34,0-.63-.19-.93,0a5.59,5.59,0,0,0,.68,1.25c.31.43.86.66.87,1.25-.5.11-1.09,0-1.57.16-.3.79.73,1.41,1.17,1.89a10.09,10.09,0,0,1,1,1.32c.35.54.48,1.17.78,1.74.43.83,1,1.59,1.42,2.42,1.05,2,1.75,4.11,2.65,6.18a21,21,0,0,1,1,2.85c.18.64.95,2.07.69,2.7-1.67.15-.73,1.69-.72,2.74,0,.57-.33.76-.44,1.3a5.87,5.87,0,0,0,.25,2,23.18,23.18,0,0,0,.79,3.08c.15.43.47.62.65,1a3.78,3.78,0,0,1,.29,2c-.64.35-1.16-.24-1.77-.27a4.15,4.15,0,0,0-1.45.41,4.86,4.86,0,0,1-1.11.27c-.59,0-1.29-.36-1.92-.35-1.41,0-1.83,1.23-2.83,1.93-.61.41-1.39.5-2,1a3.17,3.17,0,0,1-1.49.85c-1,.23-2.05.18-3.08.36-2,.34-3.92,1.92-6,1.87-1.29,0-2.62-.64-3.9-.79-1.44-.18-2.95-.12-4.07-1.19a5,5,0,0,1-1.13-1.33c-.19-.46.17-1.05,0-1.47-.4-1-2.05-.35-2.82-.3-1,.07-2,.25-3,.25-.45,0-1.13.16-1.53-.08-.75-.44-.12-1.26-1.3-1s-2.4.9-2.21-.95c.11-1.13.71-2.16.93-3.28a3.33,3.33,0,0,1,.87-1.85c1-1.31,2.35-2.24,2.67-4a25.29,25.29,0,0,1,.82-3.52,6.54,6.54,0,0,0,.6-2.48c-.53-.11-1.2,1.87-1.61,2.27a14.77,14.77,0,0,1-1.78,1.37c-.67.49-1,.5-1.47-.3a2,2,0,0,1-.26-2c.53-1.09.79-2.28,1.34-3.36a12.91,12.91,0,0,1,1.46-2.05,6.46,6.46,0,0,0,1.27-3.23,17.16,17.16,0,0,0,.69-3.19c-.38.22-.68.71-1.18.62-.32-.85.08-1.82-.12-2.71a5.19,5.19,0,0,1-.45-2.08c.22-1.71,1.27-3.22,1.81-4.83.32-.93.68-1.84,1-2.79a6.36,6.36,0,0,1,1.06-2.52c.46-.54,3.51-4.91,2.47-5.41-.63.38-.95,1.17-1.69,1.35-.28-1,.51-2.14.8-3.1s.6-1.58.84-2.39a17.74,17.74,0,0,1,2-3.73c.66-1.11.83-2.51,1.69-3.46,1.16-1.26,1.41-3,1.66-4.68" transform="translate(-109.22 -54.1)"/><path class="cls-1" d="M472,290c.25,2.63-.22,5.2-.25,7.83" transform="translate(-109.22 -54.1)"/><path class="cls-1" d="M475.81,290c.31,2.38.61,4.72,1,7.07" transform="translate(-109.22 -54.1)"/><path class="cls-1" d="M498.11,296.83c.57-2.47.93-5,1.47-7.44.33-1.51.52-3,.72-4.57.41-3.29.88-6.56,1.22-9.86a194.74,194.74,0,0,0,1.38-27.41,62.47,62.47,0,0,0-.43-6.27,15.32,15.32,0,0,0-.76-3.75" transform="translate(-109.22 -54.1)"/><path class="cls-1" d="M501,295.13a32.82,32.82,0,0,0,.42-4c.15-1.73.45-3.44.57-5.18.14-1.92.37-3.84.53-5.76.11-1.37.38-2.76.39-4.14s-.27-2.83-.28-4.25c0-.73.08-1.47.08-2.21,0-1.73.2-3.43.19-5.17,0-2.1-.08-4.18-.19-6.28" transform="translate(-109.22 -54.1)"/><path class="cls-1" d="M501.9,240.75a3.49,3.49,0,0,1-1.52-.74c-.37-.42-.49-1-.94-1.35" transform="translate(-109.22 -54.1)"/><path class="cls-1" d="M503.22,240.94a3,3,0,0,1,1.14-1.14" transform="translate(-109.22 -54.1)"/><path class="cls-1" d="M501.9,244.92a4.06,4.06,0,0,0-1.14-.74,8.38,8.38,0,0,0-1.12,0,5.1,5.1,0,0,1-2.48-1.71" transform="translate(-109.22 -54.1)"/><path class="cls-1" d="M499.06,243.78a2.24,2.24,0,0,1-.19-.76" transform="translate(-109.22 -54.1)"/><path class="cls-1" d="M504,252.12c.29-.41.77-1.4,1.36-1.18.4.15.63.68,1.06.79a1.57,1.57,0,0,0,.82-.19,14.13,14.13,0,0,0,1.91-1c.88-.52,1.56-1.27,2.43-1.79" transform="translate(-109.22 -54.1)"/><path class="cls-1" d="M504.55,261.78a18.56,18.56,0,0,0,2.34-.57,10.16,10.16,0,0,1,1.45-.45,2.19,2.19,0,0,1,1,.16,3.9,3.9,0,0,0,2.06.2,31.67,31.67,0,0,0,4.32-1.63,6.6,6.6,0,0,0,2.43-1.31" transform="translate(-109.22 -54.1)"/><path class="cls-1" d="M499.81,280.54a7.22,7.22,0,0,0-1.52-.39,5.46,5.46,0,0,1-1.22-.2.63.63,0,0,1-.48-.46c-.08-.35.28-.68.14-1l-.33.14" transform="translate(-109.22 -54.1)"/><path class="cls-1" d="M502.66,282.62a6.48,6.48,0,0,1,1.42-.94,2.87,2.87,0,0,1,1.36.13,28.23,28.23,0,0,0,5.31,1,13.13,13.13,0,0,0,3.54-.73,13.42,13.42,0,0,1,4.18-.49c2.18.1,4.36.09,6.54.09" transform="translate(-109.22 -54.1)"/><path class="cls-1" d="M511,281.67a3.65,3.65,0,0,1,.78-1.76,4,4,0,0,1,2.73-1,35.6,35.6,0,0,0,3.9-1c.87-.23,2.08-.31,2.64-1.13" transform="translate(-109.22 -54.1)"/><path class="cls-1" d="M504,276.37a8.33,8.33,0,0,1,1.25-2.47,1.25,1.25,0,0,1,1.07-.38,6.07,6.07,0,0,0,2.24-.22,8.6,8.6,0,0,0,2.44-1.56,12.38,12.38,0,0,1,3.22-2c.68-.28,1.4-.53,2.1-.74s1.15-.2,1.7-.4" transform="translate(-109.22 -54.1)"/><path class="cls-1" d="M512.32,269a5.06,5.06,0,0,1,.57-2.51c.22-.45.21-.75.63-1.14a16.41,16.41,0,0,0,1.26-1.09" transform="translate(-109.22 -54.1)"/><path class="cls-1" d="M506.64,275.42a.94.94,0,0,1-.06-.64c1.38.63,2.18,2.27,4,1.73a15.23,15.23,0,0,0,1.54-.83,4.59,4.59,0,0,1,1.58-.43,9.49,9.49,0,0,1,2.26.17" transform="translate(-109.22 -54.1)"/><path class="cls-1" d="M504,269.36a10.2,10.2,0,0,1,4.27-2.23,13.44,13.44,0,0,0,4.64-1.94" transform="translate(-109.22 -54.1)"/><path class="cls-1" d="M504.36,265.38a13,13,0,0,1,4.55-.76" transform="translate(-109.22 -54.1)"/><path class="cls-1" d="M503.6,257.8c.32-.95.54-2.84,1.53-3.34a5,5,0,0,1,1.49-.29,11.86,11.86,0,0,0,2.1-.73" transform="translate(-109.22 -54.1)"/><path class="cls-1" d="M510.42,261a6.51,6.51,0,0,1,.36-2.08,2.27,2.27,0,0,1,.83-.53,7.3,7.3,0,0,1,1.85-.61" transform="translate(-109.22 -54.1)"/><path class="cls-1" d="M501.9,263.29a3.62,3.62,0,0,0,1.84,1.3c.49.11,1,.14,1.48.23,1.83.31,2.92,2.06,4.64,2.64" transform="translate(-109.22 -54.1)"/><path class="cls-1" d="M505.88,259.32c.19-.63.22-1.24.92-1.4a4.7,4.7,0,0,1,1.35.07,12.64,12.64,0,0,1,2.46,0" transform="translate(-109.22 -54.1)"/><path class="cls-1" d="M508.53,252.12c.86,0,1.67.08,2.54,0,.56,0,1.42-.19,1.82.35" transform="translate(-109.22 -54.1)"/><path class="cls-1" d="M503.22,247.38c.59-.64,1.6-1.41,2.47-1a12,12,0,0,1,2.08,1.53" transform="translate(-109.22 -54.1)"/><path class="cls-1" d="M503.41,244.54" transform="translate(-109.22 -54.1)"/><path class="cls-1" d="M501.71,251.17c-.62.35-2.08,1.64-2.89,1.13-.46-.29-.53-.81-1.12-.94a2.87,2.87,0,0,0-1.86.57" transform="translate(-109.22 -54.1)"/><path class="cls-1" d="M498.49,250.6a2.41,2.41,0,0,0-1.63-1.32,12.92,12.92,0,0,1-2-1.14" transform="translate(-109.22 -54.1)"/><path class="cls-1" d="M502.85,257c-.16,1.11-.15,2.4-1.08,3.19a4.14,4.14,0,0,1-3.35.5c-1.23-.45-1.76-1.86-3.06-2.25a6.84,6.84,0,0,0-1.42-.1c-.5,0-.55-.32-.76-.77" transform="translate(-109.22 -54.1)"/><path class="cls-1" d="M497,258.18c-.21-1.2-.47-3-1.7-3.6" transform="translate(-109.22 -54.1)"/><path class="cls-1" d="M501.33,262.92a12.76,12.76,0,0,1-1.91,4.82c-.37.47-1.06.54-1.6.77-.93.4-1.2,1-1.8,1.8" transform="translate(-109.22 -54.1)"/><path class="cls-1" d="M497.35,270.68a7.25,7.25,0,0,1,.37,2.95c-.2.94-.81,1.09-1.51,1.6" transform="translate(-109.22 -54.1)"/><path class="cls-1" d="M501.33,263.29a7.65,7.65,0,0,0-2.9-.57c-.61,0-1.23,0-1.84,0" transform="translate(-109.22 -54.1)"/><path class="cls-1" d="M501.52,271.25a34.4,34.4,0,0,1-3.41,4.37c-.58.6-1.36.88-1.9,1.51" transform="translate(-109.22 -54.1)"/><path class="cls-1" d="M174.9,106.22c.75-1.93,1.35-3.92,2.07-5.86A93,93,0,0,1,181.06,91a80.08,80.08,0,0,1,6.67-10.42,23.84,23.84,0,0,1,3.55-3.48,96.26,96.26,0,0,1,12-9.28,9.81,9.81,0,0,1,2.62-1c3-1,5.54-2.92,8.32-4.36a49.17,49.17,0,0,1,12.2-4.12c2.57-.57,5.15-1.15,7.65-1.94a27.47,27.47,0,0,1,7.19-1.26c2.77-.11,5.55-.54,8.33,0a38.19,38.19,0,0,1,4.49.85,23.51,23.51,0,0,0,6.51,1c5.52.19,10.9,1.25,16.34,1.95,3.55.46,7.06,1.13,10.66,1.35,2.21.14,4.26,1.14,6.36,1.84,3.57,1.21,7.3,2.22,10.11,4.72,4,3.57,8.63,6.33,12.45,10.15,4,4,6.77,8.74,9.71,13.39a10.06,10.06,0,0,0,2.06,2.21,21.61,21.61,0,0,0,7.84,5c2.92.93,5.11,3,7.8,4.37,6.26,3.12,10.49,8.33,14.3,13.79,2.17,3.11,3,6.85,3.75,10.52s1.76,7.38,2.63,11c.3,1.28,1.45,2.39.84,3.84" transform="translate(-109.22 -54.1)"/><path class="cls-1" d="M297.61,115.57c-1.21-2-2.45-4-3.65-6.09-2-3.4-5-5.58-8.64-7.28a30,30,0,0,0-7.53-2.55,78.42,78.42,0,0,0-8.51-.89c-5.55-.37-10.91,1-16.35,1.68a42.69,42.69,0,0,0-9.31,2.67,24.79,24.79,0,0,1-2.69.72,33.79,33.79,0,0,0-12.67,6.59c-2.08,1.59-4.31,3-6.34,4.65a13.85,13.85,0,0,0-3.88,4.79,22.7,22.7,0,0,1-3,4.7c-.3.36-.53.6-.59.59" transform="translate(-109.22 -54.1)"/><path class="cls-1" d="M254.61,68.14c-1.77-.19-3.54-.39-5.33-.49a44.94,44.94,0,0,0-12.67,1,91.69,91.69,0,0,0-10.34,2.53,16.3,16.3,0,0,0-4.17,2.09,116.34,116.34,0,0,0-15,13.06,37.45,37.45,0,0,0-4.89,5.56,3,3,0,0,1-.35.45c-2.29,1.51-3.47,4-5.39,5.73-2.68,2.45-4,5.57-5.57,8.58-.74,1.39-1.73,2.72-1.76,4.47a6.3,6.3,0,0,0,.23,2.24" transform="translate(-109.22 -54.1)"/><path class="cls-1" d="M315.45,226a7.53,7.53,0,0,1-3.59-2.46c-2.6-2.74-5.94-4.22-9.24-5.87-2.18-1.09-4.36-2.21-6.48-3.39a14.58,14.58,0,0,1-7.51-9.74,41.13,41.13,0,0,1-1.37-9.93,4.52,4.52,0,0,1,.66-2.76,24.93,24.93,0,0,1,.28-10.39c.72-3.86,1.81-7.68,1.81-11.69,0-3.58-.07-7.16-.27-10.73a14.16,14.16,0,0,0-1.67-6.55,4.81,4.81,0,0,1-.61-1.46c-.64-3.59-2.72-6.54-4.52-9.61-1-1.77-2.91-2.77-4.5-4a48.83,48.83,0,0,0-9.5-6.24,22.44,22.44,0,0,0-18.51-.55,120.51,120.51,0,0,0-13.31,6.27,22.23,22.23,0,0,0-5.49,4.35" transform="translate(-109.22 -54.1)"/><path class="cls-1" d="M310.45,122.62a15.72,15.72,0,0,0-.64,5.28c-.09,2.35,0,4.7,0,7A27.56,27.56,0,0,0,312,145.34a3.89,3.89,0,0,0,1,1.46,52.23,52.23,0,0,0,13.16,8.92c3.12,1.45,6.42,2.73,8.38,5.8a21.71,21.71,0,0,1,3.08,7.2c.49,2.3.7,4.61,1.1,6.91.53,3.11-.64,5.91-1.77,8.63a18.56,18.56,0,0,0-1.17,9.15,9.74,9.74,0,0,0,2.76,5.76,4.17,4.17,0,0,0,2.81,1.17,29.45,29.45,0,0,1,5.67.94c3.38.9,4.56,3.89,2.68,6.4a19.9,19.9,0,0,1-1.37,2.21,5.38,5.38,0,0,1-4.64,1.43,16.86,16.86,0,0,1-4.32-1,6.56,6.56,0,0,1-4.2-4c-1.06-3.2-2.21-6.34-1.83-9.79.15-1.39.48-2.62,1.85-3.36" transform="translate(-109.22 -54.1)"/><path class="cls-1" d="M307.07,148.42c-.33,4-2.51,7.46-4.16,11.05a31,31,0,0,0-2.66,9.16,94.91,94.91,0,0,0-.92,12.49,29.8,29.8,0,0,0,1.85,9.29c.55,1.64,2.14,2.22,3.81,2.4.82.08,1.66.06,2.5.17,3.63.45,5.58-1.66,7.36-4.3,2.51-3.72.57-8-2.2-10.27-1.52-1.26-4.39-.66-5,1.13a19.44,19.44,0,0,0-1.05,3.35" transform="translate(-109.22 -54.1)"/><path class="cls-1" d="M311.28,198.08a31.73,31.73,0,0,1,.81,3.85,24.54,24.54,0,0,0,5.68,9.78c.94,1,1.6,2.3,2.54,3.34,1.71,1.87,3.56,3.61,5.3,5.47s1.95,4.29,2,6.72a19,19,0,0,1-2,8.35,17.9,17.9,0,0,0-1.48,9.44c.21,1.64-.15,3.33.56,5,1.16,2.68,2.28,4.2,5.87,4" transform="translate(-109.22 -54.1)"/><path class="cls-1" d="M280.28,191.67c1.34-.69,1.54-2,1.66-3.2.26-2.69,1.63-5.28,1.13-8a31,31,0,0,1-.39-5.61c0-4.86-1.76-9.4-2.63-14.07-.57-3.07-2.61-5.64-4.47-8.16-3.36-4.56-8.07-7.34-13.44-9.38-3.38-1.28-6.69-2.55-10.36-2.48a29.33,29.33,0,0,0-12,2.57,17.1,17.1,0,0,1-3.86.92c-2.56.52-4.56,1.65-5.67,4a7.56,7.56,0,0,1-.65,1" transform="translate(-109.22 -54.1)"/><path class="cls-1" d="M266.1,116.93c-3.74-.76-7.47-1.44-11.33-.9-2.6.36-5.22.6-7.84.87a13.33,13.33,0,0,0-6.34,2.5q-3.79,2.7-7.67,5.3a13.24,13.24,0,0,1-3.65,1.61,29.23,29.23,0,0,0-3,1.12c-2.18.95-4.13,2.3-6.32,3.25a8.17,8.17,0,0,0-4.35,3.79" transform="translate(-109.22 -54.1)"/><path class="cls-1" d="M334.13,104a3.46,3.46,0,0,0,2,2.86c2.92,1.85,5.92,3.64,9,5.27,1.34.71,2.89,1,4.16,2,2.91,2.1,4.16,5,5,8.34a99.77,99.77,0,0,0,3.06,10.71,13.4,13.4,0,0,0,7.77,8c.86.35,7.58,5.27,10.5,6.12,1.28.38,3.58.11,5.32.53,4.57.92,8.7,2.68,11.33,6.68.7,1.07,5.13,9.72,5.35,9.94" transform="translate(-109.22 -54.1)"/><path class="cls-1" d="M304.29,104.68c1,1.85,1.2,4,2,5.93,2.37,6,5.15,11.77,10.51,16.08,2.65,2.12,4.87,4.73,7.69,6.69a15.12,15.12,0,0,0,10.69,3.09,25.57,25.57,0,0,1,7.15.14,5.36,5.36,0,0,1,3.94,2.88,17.62,17.62,0,0,1,1.74,4.94" transform="translate(-109.22 -54.1)"/><path class="cls-1" d="M278.28,124.86c2.83.23,5.65-.23,8.52.4a15.75,15.75,0,0,1,7,3.63c3.33,2.89,5,6.64,5.93,10.86.95,4,.55,8,.37,12.05a17.73,17.73,0,0,1-1,4.32c-.76,2.54-1.23,5.16-1.85,7.73-.56,2.35-.9,4.8-1.51,7.17-.43,1.67-1.32,3.23-1.62,5a18.14,18.14,0,0,0,0,6.57c.47,2.63,1,5.24,1.5,7.86.83,4.27,4.05,5.86,7.87,6.86,1.3.34,2.66.45,4,.66,3.07.48,5.57-.84,8-2.4a5.29,5.29,0,0,0,2-1.9,22.62,22.62,0,0,0,3-9.64c.15-2.86.21-5.84-1.41-8.49-1.39-2.26-3.85-3.79-7.18-2.23-1.37.64-3,1-3.5,2.71a2.77,2.77,0,0,0,0,2.08" transform="translate(-109.22 -54.1)"/><path class="cls-1" d="M306.46,152.26a4.51,4.51,0,0,1,1.94,2,9.07,9.07,0,0,0,6.55,4.15,34.62,34.62,0,0,1,11.39,4.71,10.1,10.1,0,0,1,4.82,6.16,8.92,8.92,0,0,1,.06,2.73,28.33,28.33,0,0,1-1.5,9c-1.3,3.79-3.27,7.29-4.57,11.05a19.24,19.24,0,0,0-.08,11.22,23.66,23.66,0,0,0,7.59,12.14,12,12,0,0,0,8.8,2.92,8.42,8.42,0,0,1,3.08.21c1.46-.83,3.09-1.25,4.46-2.26,3.9-2.86,4.61-6.84,4.59-11.05a15.34,15.34,0,0,0-.76-4.34,9.12,9.12,0,0,0-3.22-4.46,2.81,2.81,0,0,0-2.14-.32c-3.44.34-6.37-.91-9.17-2.59a5,5,0,0,0-2.34-.94" transform="translate(-109.22 -54.1)"/><path class="cls-1" d="M288.78,192a16.53,16.53,0,0,1,3,5.31A13.24,13.24,0,0,0,298,204a17.56,17.56,0,0,1,6.06,5.56,30.92,30.92,0,0,0,6.61,6.61c2.65,2.11,4.86,4.54,5.34,8a3,3,0,0,1-.3,1.69c1.84,3.84,2.78,7.75,2,11.92a51.78,51.78,0,0,0-.66,7.86,3.14,3.14,0,0,1-.17.67c1.16,1.08,1.38,2.58,1.82,4a4.48,4.48,0,0,0,2.36,2.88,22.48,22.48,0,0,0,4.32,2.12,3.19,3.19,0,0,1,2.18,1.72" transform="translate(-109.22 -54.1)"/><path class="cls-1" d="M201.44,220.67c-2.19-1.14-2.88-3-3.23-5.28s.21-3.95.7-6a18.93,18.93,0,0,0,.34-6.37c-.07-.66-.61-1-1.13-1.46a9.73,9.73,0,0,0-1.88-1.37c-2.69-1.28-3.4-3.66-4-6.14a5.47,5.47,0,0,0-3.24-3.39c-3.13,1.06-4.56,3.34-5.14,6.44-.47,2.45-.79,4.91-1.06,7.38a11.44,11.44,0,0,0,.45,4.47c.22.74.65,1.36,1.65,1" transform="translate(-109.22 -54.1)"/><path class="cls-1" d="M325.62,111.09c2,1.63,3.79,3.54,6.14,4.85a31.6,31.6,0,0,1,3.88,3.15,7.75,7.75,0,0,0,4,1.24c5.67.77,8.83,4,10,9.18.33,1.47.85,2.87,1.19,4.32" transform="translate(-109.22 -54.1)"/><path class="cls-1" d="M198.93,191.19c-1.48-1.64-2.51-3.6-4.13-5.15a17.36,17.36,0,0,0-2.21-1.89,4.48,4.48,0,0,0-3.33-.75c-3.9.44-5.78,2.82-7.16,5.87a26,26,0,0,0-2.41,9.61,31.7,31.7,0,0,0,.53,7.78c.48,2.26.6,4.6,1.39,6.79a34.36,34.36,0,0,0,6.84,11.05c1,1.1,2.06,2.08,3.12,3.09,2.22,2.08,5.08,2.5,7.21.14.09-.11.32-.11.49-.16" transform="translate(-109.22 -54.1)"/><path class="cls-1" d="M341.79,145.53c-2.81-1.19-4.24.5-4.35,2.72,0,1.14.18,2.24.19,3.37a2.21,2.21,0,0,0,1.17,1.75c3.32,2.28,6.88,3.22,10.82,1.62,2-.8,3.44-2,3.66-4.17.1-1,1-1.85.35-2.89" transform="translate(-109.22 -54.1)"/><path class="cls-1" d="M334.63,235.25c-3.78,2.44-4.61,6.08-4.3,10.1.11,1.57.09,3.2,1.1,4.67a2.74,2.74,0,0,0,2.7,1.42,28.8,28.8,0,0,0,3.83-.16c1.31-.27,2.45-.84,2.8-2.1a6.25,6.25,0,0,0-.49-5c-.82-1.37-2.14-1.54-3.48-.56-.51.37-1.25.53-1.44,1.53l.45,1.82" transform="translate(-109.22 -54.1)"/><path class="cls-1" d="M316.49,246.94a3.69,3.69,0,0,0-1.18,1.6,19.4,19.4,0,0,0-.69,10.75c1.64,6.66,4.75,7.89,10.36,9.31a2.29,2.29,0,0,0,1,.13,7.92,7.92,0,0,1,2.43,0,5.4,5.4,0,0,0,1.85.15,13.68,13.68,0,0,0,5.37-1.23,3.12,3.12,0,0,0,1.61-3.57,3,3,0,0,0-2.29-2.77,8.12,8.12,0,0,0-5.68.38,3.79,3.79,0,0,0-2,2.56c-.19.56-.68,1.88-.68,1.88a7.86,7.86,0,0,0-.95-1c-1.38-1.34-1.28-3.22-.84-4.92a5.24,5.24,0,0,1,3-3.24c1.76-.68,3.84-1.38,5.76-.88a12.3,12.3,0,0,1,9.34,12.44c-.06,3-2.77,5.91-5.64,6.64-.79.2-1.57.18-2.36.38a14.7,14.7,0,0,1-7.48.14c-2.12-.58-4.38-.9-6.2-2.32-.33-.23-2-.84-2.31-1-2.51-1.43-4.45-3.52-6.67-5.28a3.67,3.67,0,0,1-1.5-2.08c-.32-1.65-.59-3.42-1-5s.15-6.93,0-8c-.41-2.24-.62-4.51-1.05-6.75a37.31,37.31,0,0,0-4.23-11.86c-1.06-1.79-2.31-3.49-3.31-5.29a33.85,33.85,0,0,0-8.26-10.05c-2.61-2-4.54-4.63-6.95-6.8a10.78,10.78,0,0,1-3.2-6.08,5.86,5.86,0,0,0-.39-1.16c-1.25-2.51-1.24-5.33-1.1-8a7.23,7.23,0,0,0-1.2-4.47c-1.64.62-3.11.09-4.64-.14-.81.77-1.62.59-2.81.33s-1.9-1.2-3-1.49" transform="translate(-109.22 -54.1)"/><path class="cls-1" d="M340.29,165.87c1.74,2.4,4.23,4.07,6.35,6.08a37.11,37.11,0,0,1,5.26,6.14c1.58,2.35,2.65,5,2.09,8a5.2,5.2,0,0,0,1.3,4c1.09,1.53,2.19,3,3.21,4.63a3.14,3.14,0,0,1,.62,2.26c-.24,1.52.48,3,.35,4.49a59.12,59.12,0,0,1-3,14.89c-1.25,3.58-1.23,6.92,1.49,10a5.9,5.9,0,0,0,1.87,1.57c3.55,1.59,5.33,4.57,6.63,7.87.73,1.88-.18,3.66-.79,5.45-1.05,3.06-4.45,3.51-7.5,4.12a47.16,47.16,0,0,1-6.16.79" transform="translate(-109.22 -54.1)"/><path class="cls-1" d="M358.63,141.52c2.84,3.15,6.42,5.61,8.73,9.27a30.36,30.36,0,0,1,2.44,5.79,22.07,22.07,0,0,1,1.49,9.13c-.13,2.31-.77,4.57-.82,6.9a10.93,10.93,0,0,1-1.09,4.19,25.88,25.88,0,0,0-1.36,4.3c-.68,3-1.7,5.89-1.87,9,0,.53-.51.84-.67,1.29" transform="translate(-109.22 -54.1)"/><path class="cls-1" d="M292,122.3a6.21,6.21,0,0,0,2,2c3.1,1.8,5.33,4.58,8,6.89,1.68,1.46,2.29,3.64,3.16,5.59a30.52,30.52,0,0,1,2.18,7.68,7.13,7.13,0,0,1-.24,2.25c-.07.45-.76,1.49.59,1.59" transform="translate(-109.22 -54.1)"/><path class="cls-1" d="M339.29,127.11c3.5,1.48,5.42,4.52,7.63,7.24a8.61,8.61,0,0,0,.92.89c3.3,2.8,4.43,6.68,5.79,10.45" transform="translate(-109.22 -54.1)"/><path class="cls-1" d="M309,256.64l-1.45-.15a13.19,13.19,0,0,1-8.07,1,10.62,10.62,0,0,0-6.64,1.09,19.81,19.81,0,0,1-5.18,2" transform="translate(-109.22 -54.1)"/><path class="cls-1" d="M287,89.62c4.23.51,7.49,2.85,10.46,5.48,2,1.81,4.47,3.31,5.74,5.87a11.52,11.52,0,0,1,1.14,3.06" transform="translate(-109.22 -54.1)"/><path class="cls-1" d="M354,168.12a48.59,48.59,0,0,0,1.46,8,7.89,7.89,0,0,0,1.38,2.55c1.66,2.14,3.49,4.18,5,6.44a28.81,28.81,0,0,1,2.19,5.11,3.35,3.35,0,0,0,.86,1.11" transform="translate(-109.22 -54.1)"/><path class="cls-1" d="M365.13,202.09a2.29,2.29,0,0,0-1,1.92c-.14,3.23-1.11,6.39-1.27,9.61a29.27,29.27,0,0,0,.89,9.64,9.18,9.18,0,0,0,5.58,6.21c1,.43,1.46,1.27,2.06,1.68a13.4,13.4,0,0,1-.22,7.63c-.87,2.49-2.06,5.25-4.81,6-1.32.94-4.44,3.85-14.35,2.75" transform="translate(-109.22 -54.1)"/><path class="cls-1" d="M375.14,192.8c-1.24,2.84-.18,5,2,7s4.75,2.36,7.22,3.29c.91.36,1.72.87,2.63,1.22.73.28,1.06,2.89.5,3.8-1.51,2.41-.32,4.72.18,7" transform="translate(-109.22 -54.1)"/><path class="cls-1" d="M361.64,184.32a7.09,7.09,0,0,0,2.15-3.53c.74-2.39,1.45-4.8,2.17-7.2a10.69,10.69,0,0,0-.2-5.12c-.5-2.7-.84-5.45-3.09-7.58a9.42,9.42,0,0,0-5.71-3" transform="translate(-109.22 -54.1)"/><path class="cls-1" d="M322.13,139c-.65,4.57,2.69,6.84,5.85,9.1,1.83,1.31,3.89,2.3,5,4.36" transform="translate(-109.22 -54.1)"/><path class="cls-1" d="M344.63,218.75a16.41,16.41,0,0,0,.69,2.56,5.32,5.32,0,0,1-.54,5.28c-.79,1.28-2,2.28-2.86,3.51-.56.78-1.76.6-2.63,1" transform="translate(-109.22 -54.1)"/><path class="cls-1" d="M387.31,212.18c3-.25,4.45-3,4.8-5.29a12.48,12.48,0,0,0,.39-2.72c-.17-3-1.61-4.54-4.85-5.33a38.74,38.74,0,0,0-6.34-1,5.19,5.19,0,0,1-4.53-3.59c-.27-.72-.2-1.71-1.14-1.9a22.49,22.49,0,0,0,0-4,17.71,17.71,0,0,1-.25-4.65A4.92,4.92,0,0,0,374,180c-.9-1.07-2.15-1.83-2.71-3.2a1.38,1.38,0,0,0-1.28-.66" transform="translate(-109.22 -54.1)"/><path class="cls-1" d="M274.61,209a56.64,56.64,0,0,1-7.5,1.74,17.39,17.39,0,0,1-3.66.54c-4.81,0-9-1.85-13-4-.45-.25-.29-.62-.33-1" transform="translate(-109.22 -54.1)"/><path class="cls-1" d="M304.29,240.21a4.71,4.71,0,0,0-2,.64c-2.85,2-6,1.41-9,.58a5.83,5.83,0,0,0-3.36-.09" transform="translate(-109.22 -54.1)"/><path class="cls-1" d="M188.93,204.33c2.06-.79,3.39-.15,4.51,2.08.85,1.7,0,3.42.12,5.13,0,.74-.94.71-1.47,1-1.86.82-2,1.44-.67,2.9a33.32,33.32,0,0,1,4.73,6.1" transform="translate(-109.22 -54.1)"/><path class="cls-1" d="M365.8,193.59c1.31,1.54,1.42,3.54,2.13,5.3a10.36,10.36,0,0,0,1.53,3,29.5,29.5,0,0,0,9.3,7.11c2,1.1,3.46,3.06,4.89,4.89.56.73.26,1.5.32,2.25" transform="translate(-109.22 -54.1)"/><path class="cls-1" d="M352.63,246.78c-.2,0-.19-.23-.32-.34-2.88-2.36-2.71-3.92.47-5.93a23,23,0,0,0,3.84-2.5,3.08,3.08,0,0,0-1.47-3.27,1.86,1.86,0,0,1-.69-1.73c-.26,4.7-3.41,4.75-5.83,5.07a9.49,9.49,0,0,0-5.68,2.75c.27,4.47,3.71,7.28,8.18,6.93a2.18,2.18,0,0,0,1.5-.66" transform="translate(-109.22 -54.1)"/><path class="cls-1" d="M223.94,223.88c1.93,3.16,4.12,6.15,6.34,9.12a2.92,2.92,0,0,0,1,.92" transform="translate(-109.22 -54.1)"/><path class="cls-1" d="M348.3,145.37a15.73,15.73,0,0,1,.33,4.64,4.22,4.22,0,0,1-1.06,2.62,3.74,3.74,0,0,1-4.74-1.36c-1.3-1.76-2.76-3.64-.87-5.9" transform="translate(-109.22 -54.1)"/><path class="cls-1" d="M283.73,228.72a9.63,9.63,0,0,0-1.23,5.41c.42,2.81.65,5.8,3.6,7.55.21.12.21.32.42.52" transform="translate(-109.22 -54.1)"/><path class="cls-1" d="M365.13,193.75c-1.33,1.7-.55,3.64-.59,5.46a5.48,5.48,0,0,0,.62,2.66,14.08,14.08,0,0,1,3.13,2.16,3,3,0,0,0,3,.46" transform="translate(-109.22 -54.1)"/><path class="cls-1" d="M318.62,118.13a41.33,41.33,0,0,0,6.67,7.37" transform="translate(-109.22 -54.1)"/><path class="cls-1" d="M256.78,190.87c-1.94-2.21-3.67-2.48-6.17-1" transform="translate(-109.22 -54.1)"/><path class="cls-1" d="M326,125.82c1.39,2.23,3.82,2,6,2.4" transform="translate(-109.22 -54.1)"/><path class="cls-1" d="M257.1,191.51c-2.89,1.45-5.06.26-7-1.76a7.24,7.24,0,0,1-5.05-.83c-1.73.37-3.59.51-5.12,1.64-.56.41-.89,1.1-1.67,1.27" transform="translate(-109.22 -54.1)"/><path class="cls-1" d="M275.28,191.51a3.93,3.93,0,0,0-1.79-2.25,8.14,8.14,0,0,0-2.88,1.13" transform="translate(-109.22 -54.1)"/><path class="cls-1" d="M268.57,189.33a14,14,0,0,1,.09,3.54c0,.73.26.86,1.58.82a10,10,0,0,0,.42-2" transform="translate(-109.22 -54.1)"/><path class="cls-1" d="M177.92,122.3c-.08,1.38-.28,2.79,1,3.84" transform="translate(-109.22 -54.1)"/><path class="cls-1" d="M190.27,124.23c-.06,1.17-.11,2.34-.17,3.51" transform="translate(-109.22 -54.1)"/><path class="cls-1" d="M276.78,192c.07,1.07.8,2,.84,3" transform="translate(-109.22 -54.1)"/><path class="cls-1" d="M222.94,139.61c-.18.78-.84,1.39-.84,2.24" transform="translate(-109.22 -54.1)"/><path class="cls-1" d="M264.9,192.24c-.06-.38.13-.6.5-.46.67.24,1.48.2,2,.79" transform="translate(-109.22 -54.1)"/><path class="cls-1" d="M231.27,141.2c.83.53-.09,1.07,0,1.61" transform="translate(-109.22 -54.1)"/><path class="cls-2" d="M268,190.57c-1.57-.65-3.54-1.88-5.3-1.49s-1.64,2.14-1,3.51l.9-1.59a10.15,10.15,0,0,1-3.6-.2c-.1,0-1.18-.25-1.18-.4a6.86,6.86,0,0,1,1.92-.31h3.18c1.64.1,2.46,2.6,4.24,3.21s3.6.81,4.92-.52a1.06,1.06,0,0,0,0-1.49,1,1,0,0,0-1.48,0c-1,1-3.36-.1-4.06-.9-.36-.42-.55-1-.92-1.4a3.31,3.31,0,0,0-3-1c-2,.07-5.09-.7-6.42,1.27-2.34,3.48,4.5,4.07,6.42,3.82a1.07,1.07,0,0,0,1-1.12,1.14,1.14,0,0,0-.13-.47c-.51-1,1.3,0,1.88.2s1.35.59,2,.88c1.25.5,1.79-1.53.56-2Z" transform="translate(-109.22 -54.1)"/><path class="cls-1" d="M184.61,124c-.83-3.55-2.89-9.6-7.62-7.89-3,1.11-6.6,4.52-9,6.81-6.19,5.82-1.74,13.45-2.55,20.36,0,0-.48,4.56-.48,5.58a20.58,20.58,0,0,1-.18,3.77c-.24,1.25-.17,2.49-.47,3.76a20.2,20.2,0,0,1-1.33,4.38c-.64,1.29-1.09,2.59-1.81,3.84-1,1.72-1.77,3.6-2.65,5.39a45,45,0,0,1-2.27,4,30.6,30.6,0,0,0-2.29,5.3c-1.13,3-.53,5.29.11,8.32s1.93,4.51,3.7,6.59,3.59,3.64,4.94,6.25c.64,1.24,1,2.61,1.7,3.86a14.49,14.49,0,0,1,1.23,4.42,12.83,12.83,0,0,1,.19,5.13,32.3,32.3,0,0,1-1.15,4.4c-.54,1.6-1.36,2.92-2,4.46a47,47,0,0,0-1.42,4.79,32,32,0,0,1-3.79,8c-1.92,3.07-5.12,5.07-6.06,8.85-.86,3.42-2.36,6.47-3.22,9.92a24.14,24.14,0,0,0-1.08,3.62c-.12,1.32.59,2.78.89,4,.46,1.91.52,3.19,1.7,4.63a19.29,19.29,0,0,0,1.58,2,8.12,8.12,0,0,0,2.22,1.3,15.83,15.83,0,0,0,2.91,1.66,9.4,9.4,0,0,0,3.26.21,5.38,5.38,0,0,0,4.91-5.53,16.77,16.77,0,0,0-1.49-7.47,3.89,3.89,0,0,0-4.58-2.09c-.79.23-1.5.81-2.28,1.12a2.79,2.79,0,0,0-1.48,1c-1.37,2,.69,6.19,1.76,7.83-.64-.92-1.68-1.21-2.35-2.09a7.28,7.28,0,0,1-1.06-3.14,11,11,0,0,1-.23-4.35,7.08,7.08,0,0,1,1.93-2.73c3.11-3.36,8.82-1.6,11.28,1.94a14,14,0,0,1,2.68,8.08,7.71,7.71,0,0,1-.39,2.61c-.49,1.64-.55,3.37-1.13,5a9.11,9.11,0,0,1-3.88,4.91,8.54,8.54,0,0,1-5.21,1.11c-1.44-.29-2.71-1.09-4.11-1.48A8.7,8.7,0,0,1,151.1,275a8.15,8.15,0,0,1-2.76-2.69,23.67,23.67,0,0,1-1.8-5.26,38.64,38.64,0,0,1-1.71-8.29c-.12-3.3-.49-6.79.61-9.92a48.11,48.11,0,0,1,3.24-7.54c1-1.77,2.38-3.2,3.39-5,.78-1.37,1.53-2.75,2.26-4.16a27.24,27.24,0,0,0,3.13-7.75c.54-3.05-.15-5.55-.44-8.56a23.47,23.47,0,0,0-1.93-7.66c-1-2.17-3.06-3.59-4.52-5.28a24.13,24.13,0,0,1-2.2-3.51,21.92,21.92,0,0,1-2.11-4,33.55,33.55,0,0,1-2.18-10,21.48,21.48,0,0,1,1.8-9.78c.66-1.44,1.55-2.68,2.16-4.15a24.48,24.48,0,0,1,1.76-3.64c.7-1.15,1.07-2.52,1.87-3.58.53-.7,1-1.4,1.51-2.11,1-1.4,2.16-2.67,3-4.14a30,30,0,0,0,3.33-6.54c.26-.88.79-1.71,1-2.61s0-1.49.13-2.28a27.5,27.5,0,0,1,1-3c.7-2.16-.09-7.37-.38-9.68-.33-2.58-1.29-5.11-.85-7.72a32.07,32.07,0,0,1,5.37-12c2.51-3.5,7.48-8.17,11.95-8a15.43,15.43,0,0,1,9.85,4.41" transform="translate(-109.22 -54.1)"/><path class="cls-1" d="M202.43,124a46.59,46.59,0,0,1,22.26-34.33" transform="translate(-109.22 -54.1)"/><path class="cls-1" d="M246.68,78.3a34.16,34.16,0,0,1,12.11-1.2" transform="translate(-109.22 -54.1)"/><path class="cls-1" d="M273.54,77.28c9.19.27,18.83.67,26.71,5.4s12.95,13.36,16.47,22" transform="translate(-109.22 -54.1)"/><path class="cls-3" d="M187.91,155a.63.63,0,0,0,0-1.25.63.63,0,0,0,0,1.25Z" transform="translate(-109.22 -54.1)"/><path class="cls-3" d="M205.16,158a.63.63,0,0,0,0-1.25.63.63,0,0,0,0,1.25Z" transform="translate(-109.22 -54.1)"/><path class="cls-1" d="M166.12,185.8" transform="translate(-109.22 -54.1)"/><path class="cls-1" d="M171.05,199.82" transform="translate(-109.22 -54.1)"/><path class="cls-3" d="M194.17,152.32a.63.63,0,0,0,0-1.25.63.63,0,0,0,0,1.25Z" transform="translate(-109.22 -54.1)"/><path class="cls-3" d="M197.39,157.44a.63.63,0,0,0,0-1.25.63.63,0,0,0,0,1.25Z" transform="translate(-109.22 -54.1)"/><path class="cls-3" d="M214.06,157.06a.63.63,0,0,0,0-1.25.63.63,0,0,0,0,1.25Z" transform="translate(-109.22 -54.1)"/><path class="cls-3" d="M180.15,154.4a.63.63,0,0,0,0-1.25.63.63,0,0,0,0,1.25Z" transform="translate(-109.22 -54.1)"/><path class="cls-1" d="M266.14,281.5c6.05,1.63,11.82,2.77,16.33,2.83,5.82.07,18.61-2.29,26.59-4.55a17.28,17.28,0,0,0,9.88-7.37h0" transform="translate(-109.22 -54.1)"/><path class="cls-1" d="M204,249.37a18.81,18.81,0,0,0,5.54,8.82" transform="translate(-109.22 -54.1)"/><path class="cls-1" d="M158.2,234.68" transform="translate(-109.22 -54.1)"/><path class="cls-1" d="M161.24,227.42c0,3.17.14,6.37,4.68,6.81,4.32-.12,8.81-2.16,13,0a36.56,36.56,0,0,1,5.4,4c2.8,3.48,3.18,8.79,1.78,12.72-.64,1.79-2,3.07-2.25,5-1,4.29,2.22,8.46,3.82,10.59,2.7.58,6.2,3.54,8.75,1.8,4.06-2.64,4.72-3.1,3.87-8.11-.52-2.82-2.52-1.85-5.37-2.72a14,14,0,0,0-4.45-.53,3,3,0,0,0-2.25.62c-.86.71-1.23,1.7-2.74,1.44,2.11-4.15,3.89-4.58,7.4-5.57,2.37-.09,4.15,1.37,6.4,1.81,1.22.52,3.84,1.55,4.83,2.68a11.24,11.24,0,0,1,2.06,7c.37,6.53-1.91,6.61-7.73,7.44-2.53.34-4.88,1.33-7.36,1.79-5.92.31-11-2.75-11.3-8.62.11-3.46-3.52-5.53-4.32-8.62a10.47,10.47,0,0,1,.28-2.54c.08-1.13-.23-2.19.25-3.26,1-2.33,2.61-6.12,1.16-8.54a4.64,4.64,0,0,0-2.64-2.32c-2.6.09-5.24,1-7.84,1.41-5,2.31-7.95-2.06-9.19-6.2" transform="translate(-109.22 -54.1)"/><path class="cls-1" d="M169.12,261a27.06,27.06,0,0,1,5.47,8.09,15.45,15.45,0,0,1,1.2,4.31c.23,1.07,1.16,2.34,1.23,3.42,0,.82-.36,1.44-.23,2.34a6.37,6.37,0,0,0,1,3c1.48,1.73,4.92.07,5.94,1.52-.66,1.42-3.87,3.46-5.36,3.67A5.39,5.39,0,0,1,173,284a16,16,0,0,1-1.36-4.8,12.25,12.25,0,0,0-1-5.06" transform="translate(-109.22 -54.1)"/><path class="cls-1" d="M431.86,227.61c0-3.23.28-6.36.27-9.6,0-1.56,0-3.14,0-4.69s.28-3,.29-4.54c0-5.35-.28-10.58-.28-15.93v-5.54c0-.9,0-1.81,0-2.7,0-1.21.27-2.27.3-3.48,0-2.1,0-4,.2-6.08.23-2.31-.06-4.84.19-7.08.18-1.62.32-3.35.42-5,.16-2.62.7-5,1-7.6.19-1.87.28-3.89.39-5.78.13-2.06.05-4.27,0-6.35,0-3.59-.55-7.37-.36-11,.11-1.93-.18-3.52-.21-5.42,0-2.42,0-4.84,0-7.26,0-3,.07-6-.14-8.93-.07-.94,0-1.81-.12-2.78s-.45-1.85-.54-2.79c-.07-.7-.07-1.3-.16-2a4.57,4.57,0,0,1,0-2.38c-.38.67,0,1.89.06,2.65s.08,1.63.2,2.47a25.67,25.67,0,0,1,.12,3c0,1.55.4,3,.53,4.58a12.61,12.61,0,0,0,.2,1.77,8.84,8.84,0,0,1,.35,1.14c0,.73-.18.62-.19,1.11a8.34,8.34,0,0,0,.16,1.1c.21,2.15,0,4.28.28,6.42a47.48,47.48,0,0,1-.08,7.54c0,.86-.18,1.88-.16,2.74,0,1.06.32,2,.31,3.06s-.23,1.75-.3,2.75,0,2,0,2.92c0,2.39.13,4.92,0,7.28s-.25,4.24-.25,6.51c0,1.95.11,3.77.27,5.67.19,2.32.44,4.7.69,7,.13,1.16,0,2.32.19,3.47.19,1.61.6,3,.74,4.69.37,4.26,1,8.38,1.08,12.72,0,1.21-.23,2.27-.2,3.48s.09,2.31,0,3.53c-.08,1.89,0,4-.07,5.94,0,.94-.26,1.67-.29,2.61s0,1.66,0,2.48c0,1.52-.09,3.12,0,4.63.06,1.22.3,2.23.29,3.49,0,2.94.18,5.71.27,8.62.07,2.46.67,4.66.83,7" transform="translate(-109.22 -54.1)"/><path class="cls-1" d="M449,236.23a49.36,49.36,0,0,1-.63-8.08c0-1.55,0-3.11,0-4.67s-.19-3.36-.12-5.06c.06-1.48.18-3,.3-4.52.09-1.09.38-2,.46-3.12.18-2.16.71-4.17.9-6.34.19-2.36.74-4.66,1.07-7,.19-1.28.29-2.55.5-3.82s.21-2.81.45-4.18A112.59,112.59,0,0,0,453.43,174c.05-1.41-.08-2.68,0-4.13.07-1,.14-2,.2-2.94s.13-1.88.19-2.83c.09-1.44.34-2.69.52-4.1.32-2.67.94-5.22,1.24-7.85.1-.83.29-1.61.43-2.44.2-1.08.29-2.17.49-3.24.38-2.12.63-4.31.88-6.51a66.57,66.57,0,0,1,1.38-7c.78-3.44,1.84-6.7,2.64-10.15.52-2.27.85-4.44,1.22-6.75.3-1.87.74-3.7,1-5.58a15.13,15.13,0,0,0-.06-2.52c0-1.12.08-2.11,0-3.23a36.46,36.46,0,0,1,.2-3.89c.05-.69,0-3.15.24-3.57" transform="translate(-109.22 -54.1)"/><path class="cls-1" d="M451.6,233.72c-.16-2.4-.28-4.78-.42-7.18-.06-1-.24-1.81-.37-2.77-.2-1.56,0-3.25-.15-4.83a45.37,45.37,0,0,1-.41-4.9c0-.8.14-1.62.18-2.42s-.05-1.4-.05-2.14a15.8,15.8,0,0,1,.39-2.77c.09-.67.08-1.43.13-2.12.05-.88.09-1.78.17-2.66.09-1.08.35-2,.46-3.11.2-1.94.45-3.83.61-5.78.12-1.5.45-2.87.54-4.41.08-1.22.16-2.44.25-3.66.11-1.6-.06-2.91.06-4.5.13-1.8.22-3.61.36-5.41.1-1.34.41-2.46.49-3.81l.24-3.55c.11-1.55,0-2.9.05-4.41a25.21,25.21,0,0,0,.23-3.3" transform="translate(-109.22 -54.1)"/><path class="cls-1" d="M462.68,102.81c-1.18.44-2.15.66-3.2-.17-.6-.48-1.52-1.23-1.35-2.1" transform="translate(-109.22 -54.1)"/><path class="cls-1" d="M464.57,103.57c.52-.59,1-1.37,1.51-1.92s1.05-.69,1.52-1.11" transform="translate(-109.22 -54.1)"/><path class="cls-1" d="M465,110.39c1.52-.8,3-1,4.37-2.1,1-.81,1.91-1.55,2.83-2.45" transform="translate(-109.22 -54.1)"/><path class="cls-1" d="M461.92,113.8c-1.23-1.85-3.68-3.88-6.06-3.22-2.11.58-4.31-.16-6.45-.19" transform="translate(-109.22 -54.1)"/><path class="cls-1" d="M454,110.39c-.84-.88-2.32-3.65-3.41-4.17" transform="translate(-109.22 -54.1)"/><path class="cls-1" d="M451.69,212a33.33,33.33,0,0,0,7.59-2.46c2.33-1.08,4.06-2.92,6-4.46a12.34,12.34,0,0,1,1.87-1.43c.86-.45,1.82-.71,2.71-1.14,1.6-.77,3.32-1.21,4.52-2.64" transform="translate(-109.22 -54.1)"/><path class="cls-1" d="M461.54,120.62a10.16,10.16,0,0,0,7.58-3c1-1,2.23-1.74,3.31-2.64.85-.7,1.57-1.76,2.75-1.91" transform="translate(-109.22 -54.1)"/><path class="cls-1" d="M460,129.72c1.43-.42,4.63-.72,6-.05,1.76.83,2.94,2,5,1.37a16.31,16.31,0,0,0,3.73-2.14c1.45-.94,2.16-2.62,3.43-3.73" transform="translate(-109.22 -54.1)"/><path class="cls-1" d="M456.3,147.91a72.53,72.53,0,0,0,7.53-2.27,18.49,18.49,0,0,0,3.58-2.11c1.17-.76,2.57-1.15,3.63-2.07a9.85,9.85,0,0,0,2.25-2.65" transform="translate(-109.22 -54.1)"/><path class="cls-1" d="M465.33,143a2.74,2.74,0,0,1,1.11-2.45,15.67,15.67,0,0,1,3.06-2.1" transform="translate(-109.22 -54.1)"/><path class="cls-1" d="M470.26,145.63c1.74,1.54,3.69-2.24,5.32-2.6.81-.18,1.62,0,2.44-.13s1.37-.56,2.09-.68" transform="translate(-109.22 -54.1)"/><path class="cls-1" d="M469.88,129.72a5.4,5.4,0,0,0,.38-2.28" transform="translate(-109.22 -54.1)"/><path class="cls-1" d="M474.8,125.93l.38-.76" transform="translate(-109.22 -54.1)"/><path class="cls-1" d="M469.5,117.21a8.42,8.42,0,0,0,3-.38" transform="translate(-109.22 -54.1)"/><path class="cls-1" d="M455.48,163.06a19.69,19.69,0,0,0,6.46-2.94c1.91-1.34,3.92-2.46,6.34-2.28a4.84,4.84,0,0,0,3.28-.52,27.88,27.88,0,0,1,3.74-2.25c.85-.34,1.77-.49,2.65-.76a15.53,15.53,0,0,0,4.81-3" transform="translate(-109.22 -54.1)"/><path class="cls-1" d="M461.54,160.41a8.48,8.48,0,0,1,2.06-4.12,11.58,11.58,0,0,1,4.38-2.53,19.93,19.93,0,0,0,4.19-1.71c1.45-1,1.92-2,3.77-1.87" transform="translate(-109.22 -54.1)"/><path class="cls-1" d="M454.37,173.67c1,.44,5.23,1.85,6.41,1.5a6.65,6.65,0,0,0,1.65-1.09,12.33,12.33,0,0,1,3.32-1.72c1.69-.54,3.44-.87,5.08-1.56,1.14-.48,3.16-1.08,4-2.05" transform="translate(-109.22 -54.1)"/><path class="cls-1" d="M454,192.62c2.35-.13,4.14-1.88,6.45-1.91,1.63,0,3.28,0,4.92,0" transform="translate(-109.22 -54.1)"/><path class="cls-1" d="M459.65,175.22c1.56,1.69,3.56,3.64,5.84,3.21a11.48,11.48,0,0,1,3.25-.59" transform="translate(-109.22 -54.1)"/><path class="cls-1" d="M452.4,186.65c1-.27,5.12-1.59,6.06-2s1.33-1,2.17-1.31c1.91-.75,4.21-.58,6.22-.6" transform="translate(-109.22 -54.1)"/><path class="cls-1" d="M470.26,168.37c.74-2.09,2.27-2.43,3.79-3.79" transform="translate(-109.22 -54.1)"/><path class="cls-1" d="M455.1,209.67a18.92,18.92,0,0,0,.77-4.34c.26-2.41,1.42-3.45,3.6-4.2a8.4,8.4,0,0,0,3.31-1.75,20,20,0,0,0,2.55-3.73" transform="translate(-109.22 -54.1)"/><path class="cls-1" d="M460,202.85c1.82.58,3.31-1.14,4.94-1.83,1.12-.48,2.94-.29,3.78-1.2" transform="translate(-109.22 -54.1)"/><path class="cls-1" d="M461.16,121.69c-2.31-2.46-8.71-1.21-10.61.28-.82.64-1.55.16-2.51-.23-.78-.32-1.56-1.06-2.42-1.12" transform="translate(-109.22 -54.1)"/><path class="cls-1" d="M431.22,104a4.69,4.69,0,0,0,5.31-1.14" transform="translate(-109.22 -54.1)"/><path class="cls-1" d="M428.19,108.87a4,4,0,0,0,3,.71,18.19,18.19,0,0,0,2.66-1.39,5.41,5.41,0,0,1,2.24-.45c.95,0,1.75-.35,2.67-.38" transform="translate(-109.22 -54.1)"/><path class="cls-1" d="M425.16,113.8c1.8,1.67,3.19,1.72,5.41,1,1.18-.36,2.61-.36,3.69-1" transform="translate(-109.22 -54.1)"/><path class="cls-1" d="M435.39,112.28a8.31,8.31,0,0,1,2.23-.72c.31-.06.91-.33,1.17-.36,1-.08,1.61.84,2.67.71" transform="translate(-109.22 -54.1)"/><path class="cls-1" d="M431.22,120.24c-1.4.41-2.49.64-3.43,1.81a3.63,3.63,0,0,1-1.46,1.28c-.78.34-1.37,0-2.15-.2a5.39,5.39,0,0,0-3.95.29c-1,.49-2,.91-3,.23" transform="translate(-109.22 -54.1)"/><path class="cls-1" d="M421.75,121c-.81-.24-2.73-1.31-3.41-.38" transform="translate(-109.22 -54.1)"/><path class="cls-1" d="M433.88,117.21a7.85,7.85,0,0,0,1.91-.53c.77-.41,1.23-1.19,2.08-1.52a4.12,4.12,0,0,1,3.21.16" transform="translate(-109.22 -54.1)"/><path class="cls-1" d="M436.15,118.73c1.38.51,2.79.89,4.19,1.35a34.08,34.08,0,0,1,4.15,2.06" transform="translate(-109.22 -54.1)"/><path class="cls-1" d="M438.8,124.41a5.75,5.75,0,0,0,2.69,3.57c1.85,1,3.11,1.59,4.13,3.63" transform="translate(-109.22 -54.1)"/><path class="cls-1" d="M432,129c-.87.17-6-.5-6.85-.13a21.47,21.47,0,0,0-1.88,1.28,21.05,21.05,0,0,1-3,1.51c-1.16.47-2.32.15-3.45.57-1.65.61-3.67,3.26-4.52,4.73" transform="translate(-109.22 -54.1)"/><path class="cls-1" d="M418,136.54c-.95,1-2,1.77-3,2.65" transform="translate(-109.22 -54.1)"/><path class="cls-1" d="M434.74,132.52c1.62,0,5.15.75,6.38,1.8s2,2.52,3.71,2.39a15,15,0,0,1,3.55-.3c.61.1,1.21.33,1.82.42s1.44,0,1.87.46" transform="translate(-109.22 -54.1)"/><path class="cls-1" d="M446.38,140c1.06,1.11,1.47,1.45,3,1.37.74,0,2.13-.13,2.66.52" transform="translate(-109.22 -54.1)"/><path class="cls-1" d="M445.62,131.23a5.4,5.4,0,0,0,2.28.38" transform="translate(-109.22 -54.1)"/><path class="cls-1" d="M414.55,143.74c-.94,1.28-2.37,1.4-3.82,1.88a8.05,8.05,0,0,0-2.82,1.67,22.89,22.89,0,0,0-2.08,1.85c-.54.55-1,1.4-1.89,1.42" transform="translate(-109.22 -54.1)"/><path class="cls-1" d="M425.54,135.4c-.39,1.06-.59,2.51-1.39,3.35s-1.42.69-1.68,1.82c0,.53.06,1.06.07,1.6a8.45,8.45,0,0,1-.35,2.4,15.87,15.87,0,0,1-2.33,4.47" transform="translate(-109.22 -54.1)"/><path class="cls-1" d="M441.46,143a18.24,18.24,0,0,0,3.13,2.68,5.09,5.09,0,0,0,2.24.7,11.74,11.74,0,0,1,2.56,1.15,5,5,0,0,1,2.68,2.29" transform="translate(-109.22 -54.1)"/><path class="cls-1" d="M443,152.07c.17.49.24,1.38.62,1.69s1,0,1.62-.1c1.09-.18,3.55.08,4.2,1.07" transform="translate(-109.22 -54.1)"/><path class="cls-1" d="M432.74,151.32a16.62,16.62,0,0,0,1.88,2.21c.59.46,1.38.79,2,1.19a34,34,0,0,1,3.64,2.45c2.05,1.75,2.49,4.89,5,6.26,1.56.85,3.21.68,4.54,1.91" transform="translate(-109.22 -54.1)"/><path class="cls-1" d="M440.7,163.06a28,28,0,0,0,.73,3.44c.37.89,1,1.07,1.87,1.44,2.71,1.11,3.87,3.43,2.32,6.11" transform="translate(-109.22 -54.1)"/><path class="cls-1" d="M446.76,167.23" transform="translate(-109.22 -54.1)"/><path class="cls-1" d="M446.76,166.85a47.7,47.7,0,0,1,3.41,3.41" transform="translate(-109.22 -54.1)"/><path class="cls-1" d="M432,154c-1.29.65-2.74,1.12-4,1.84-1.08.61-1.38,1.7-2.06,2.64a5.65,5.65,0,0,1-3,2.28,12.19,12.19,0,0,0-3.08.66c-2.1,1.05-3.23,3.55-5.28,4.49-1.16.54-2.3.46-3.41,1.27-1.53,1.11-2.12,2.9-3.78,3.87" transform="translate(-109.22 -54.1)"/><path class="cls-1" d="M426.68,140c-.34.7-.83,1.26-1.18,1.92s-.14.31-.13,1.18a3.51,3.51,0,0,1-1.72,3.34" transform="translate(-109.22 -54.1)"/><path class="cls-1" d="M430.47,147.91a8.65,8.65,0,0,1-3.09,2.71,10.89,10.89,0,0,0-4.49,4.28c-1.31,2.11-3.07,5.16-5.7,5.86a3.51,3.51,0,0,1-3.14-.6c-.74-.67-1.12-1.65-2.23-1.61s-2.19,1.14-3.17,1.69a10.13,10.13,0,0,1-3.57.93" transform="translate(-109.22 -54.1)"/><path class="cls-1" d="M411.14,157.38c-.95-1-1.68-2.08-3.18-1.89-.92.12-1.87.82-2.8.79-1.73-.05-3.19-1.47-5-.8" transform="translate(-109.22 -54.1)"/><path class="cls-1" d="M414.93,155.86c-1,.08-2.59,0-3.41.76" transform="translate(-109.22 -54.1)"/><path class="cls-1" d="M412.66,150.94c-.78.88-1.43,1.82-2.28,2.65" transform="translate(-109.22 -54.1)"/><path class="cls-1" d="M409.25,171.78c1,1.84.76,2.39-.76,3.79" transform="translate(-109.22 -54.1)"/><path class="cls-1" d="M427.69,206.64c-.87,1.71-4.15,2.91-5.81,3.84-1.19.66-4.81,2.6-6.32,1.74-1.11-.63-1-3.09-2.58-2.2-1.27.7-1.82,2.24-3,3a19.15,19.15,0,0,1-3.74,1.55" transform="translate(-109.22 -54.1)"/><path class="cls-1" d="M438.42,214.6c1.61.73,2.53-.42,4.17-.44s2.36.93,3.41,2" transform="translate(-109.22 -54.1)"/><path class="cls-1" d="M438.05,204c1.23-.1,2.08-.46,3.19,0a7.15,7.15,0,0,1,2.87,1.93" transform="translate(-109.22 -54.1)"/><path class="cls-1" d="M438.8,193.76a21.56,21.56,0,0,1,4.95.11c1,.14,2.4.14,3-.87" transform="translate(-109.22 -54.1)"/><path class="cls-1" d="M437.41,185.29c1.33-.14,4.36-1.35,5.67-1,.82.24,1.77,1.52,2.54,1.47" transform="translate(-109.22 -54.1)"/><path class="cls-1" d="M441.08,178.6c1,.21,2.05.51,3.05.67.64.1,1.37,0,1.87.47" transform="translate(-109.22 -54.1)"/><path class="cls-1" d="M445.62,175.19a3.57,3.57,0,0,1-1.13-.76" transform="translate(-109.22 -54.1)"/><path class="cls-1" d="M444.11,190.73a2.88,2.88,0,0,1,2.65-.76" transform="translate(-109.22 -54.1)"/><path class="cls-1" d="M432,196.33c-3.44-.26-5.12-1.69-8-3.56-3.43-2.27-4.69,1.59-6.73,3.59a7.2,7.2,0,0,1-2.24,1.51c-1.2.4-2.75-.05-4,.1-3.54.43-5,3.58-7.11,6" transform="translate(-109.22 -54.1)"/><path class="cls-1" d="M412.66,201.34c-.34,1.15-.14,2.44-.7,3.47-.87,1.59-2.69,2.53-4.23,3.35" transform="translate(-109.22 -54.1)"/><path class="cls-1" d="M432.74,216.12c-5.3-1-9.67,3.6-10.32,4.94-.42.87-.81,1.69-1.16,2.58a28.58,28.58,0,0,1-2.16,3.47" transform="translate(-109.22 -54.1)"/><path class="cls-1" d="M424.21,218.54c-4.54-2.38-7.45,2.46-10.8,5.91" transform="translate(-109.22 -54.1)"/><path class="cls-1" d="M422.89,222.18c.63.66,2.06,2.83,1.13,3.79" transform="translate(-109.22 -54.1)"/><path class="cls-1" d="M432,180.87a13.6,13.6,0,0,1-6.18,2.55c-1.91.39-4,1-5.15,2.37-.62.72-.87,1.58-1.95,2s-2-.13-3-.48c-2.61-.9-3.95.48-6.08,1.53" transform="translate(-109.22 -54.1)"/><path class="cls-1" d="M417.71,195.93c-1.64-.28-4.74,1-6.21.47-.81-.3-2.06-.74-2.92-.25-1.23.7-1.62,2.47-3.11,2.9-1.33.39-2.24-1-3.42-.74" transform="translate(-109.22 -54.1)"/><path class="cls-1" d="M404.7,195.27c-.72-1.15-1-2-2.27-2.58a6.27,6.27,0,0,0-2.26-.48,4.35,4.35,0,0,0-2.59.79,13.68,13.68,0,0,1-2.73,1.14" transform="translate(-109.22 -54.1)"/><path class="cls-1" d="M418.31,182a2.33,2.33,0,0,1,0,1.05,15.72,15.72,0,0,0-4.55-1.46c-1.41-.27-3.48-.74-4.94-.31-1.18.35-1.79,1.42-2.63,2.16s-1.62.93-2.28,1.59" transform="translate(-109.22 -54.1)"/><path class="cls-1" d="M411.52,168a21.38,21.38,0,0,0,1.3,2.84c.46.87.74,2.11-.16,2.84" transform="translate(-109.22 -54.1)"/><path class="cls-1" d="M431,168.37c-2.27.36-4.67.46-6.66,1.49a17.5,17.5,0,0,0-4.28,3.43" transform="translate(-109.22 -54.1)"/><path class="cls-1" d="M432,172.92c-1.3.75-2.45,1.63-3.76,2.37a13.59,13.59,0,0,1-3.84,1.29,8.72,8.72,0,0,0-3.92,2.4c-1.14,1-2.62,1.64-3.7,2.65" transform="translate(-109.22 -54.1)"/><path class="cls-1" d="M435.2,148.47c.81-.58,1.73-1.66,2.84-1.27s2,2.09,3.24,1.06c.36-.3.53-.76.87-1.08a2.64,2.64,0,0,1,2-.58c.64.06,1.29.21,1.92.31a14.15,14.15,0,0,0,1.88.43" transform="translate(-109.22 -54.1)"/><path class="cls-1" d="M457.18,130.47c-1-.25-2.09-.49-3.12-.65a6.45,6.45,0,0,0-3.3.62c-.73.26-1.19-.07-1.89-.34a13.73,13.73,0,0,0-3.62-1.14" transform="translate(-109.22 -54.1)"/><path class="cls-1" d="M452.82,131a9.33,9.33,0,0,0-.62,2.51c-.06.65.06,1.56-.39,2.08-.62.72-1.64.68-2.4,1.1" transform="translate(-109.22 -54.1)"/><path class="cls-1" d="M454.34,145.63a6.82,6.82,0,0,0-2.36-.37,5,5,0,0,1-2,.18" transform="translate(-109.22 -54.1)"/><path class="cls-1" d="M437.48,171a4.31,4.31,0,0,1,2.46-.17,9.57,9.57,0,0,1,1.76.79c.47.25.91.59,1.38.82a4.3,4.3,0,0,0,1.56.21,5.47,5.47,0,0,1,3.21,1.37,11.94,11.94,0,0,0,1.23,1.13c.44.28,1.08.25,1.47.59" transform="translate(-109.22 -54.1)"/><path class="cls-1" d="M452.26,184.85a3.17,3.17,0,0,1-3.8-2.28c-.17-.8-.21-1.63-.32-2.44a2.05,2.05,0,0,0-.46-1.31,2.34,2.34,0,0,0-.93-.5c-.28-.08-.74,0-.94-.29" transform="translate(-109.22 -54.1)"/><path class="cls-1" d="M448.47,183.15a2.64,2.64,0,0,1-1.65.24c-.84-.3-1.2-1.28-1.92-1.75-.46-.31-.74-.41-1.2-.13s-.82.9-1.3.88" transform="translate(-109.22 -54.1)"/><path class="cls-1" d="M448.85,201.34a4.65,4.65,0,0,0-2.49-.29c-1.12.23-2.11.9-3.29.65a8,8,0,0,1-1.15-.43,12.46,12.46,0,0,0-1.81-.51,7,7,0,0,0-2.25-.37" transform="translate(-109.22 -54.1)"/><path class="cls-1" d="M438.05,197.55a4.4,4.4,0,0,1,3.23.19,1.77,1.77,0,0,0,1.12.36,4.11,4.11,0,0,0,1.33-.55" transform="translate(-109.22 -54.1)"/><path class="cls-1" d="M445.81,196.79a2.71,2.71,0,0,0,1.14,1" transform="translate(-109.22 -54.1)"/><path class="cls-1" d="M447,211.19a6.92,6.92,0,0,0-1.58-.56,4.32,4.32,0,0,0-2.19.58,1.05,1.05,0,0,1-1.22-.05c-.28-.25-.41-.62-.88-.54" transform="translate(-109.22 -54.1)"/><path class="cls-1" d="M444.11,209.67a8.21,8.21,0,0,0-.76-4.16" transform="translate(-109.22 -54.1)"/><path class="cls-1" d="M525.58,190.06c1.94,1.17,2.12,2.8,1.72,4.82-.31,1.51.08,3.14-.55,4.63" transform="translate(-109.22 -54.1)"/><path class="cls-1" d="M502.41,152.26c-.86,2.84-1,5.87-3,8.35-1.21,1.49-.86,3.34-.64,5.11a8.52,8.52,0,0,1-1,5.81c-.93,1.55-2,2.47-3.74,2.49a39.14,39.14,0,0,0-5.73,0,4.78,4.78,0,0,1-1.07-3.5,12.5,12.5,0,0,0-.75-4.81,39.59,39.59,0,0,1-.15-9.3,16.19,16.19,0,0,1,2.32-5.37,6.51,6.51,0,0,1,3.62-2.33,14.34,14.34,0,0,0,3.48-1.86c1.56-1,5.84-.61,6.17-.65,5.11-.09,7,.72,9.8,4,2.38,2.66,3.41,5.49,5.36,8.48,1.48,2.21,5.21,4.79,7.15,6.58,1.15,1.08,1.53,1,1.44,2.33a10.26,10.26,0,0,1-2,5.25l-.06.08a7.38,7.38,0,0,1-9.22,2.27c-2.63-1.29-6.11-2.88-7.6-3.12a33.16,33.16,0,0,1-6.17-2.17" transform="translate(-109.22 -54.1)"/><path class="cls-1" d="M475.31,182.52c-1,2.13-3.79,8.59-5.5,10.35" transform="translate(-109.22 -54.1)"/><path class="cls-1" d="M486.21,163a24.81,24.81,0,0,0-1.95,3.89C483.33,169,482.07,171,481,173" transform="translate(-109.22 -54.1)"/><path class="cls-1" d="M506.83,197.76a21.53,21.53,0,0,1-1.47,6.58,20.83,20.83,0,0,1-4,6.41c-2,2-4.06,4-4.9,6.89a7.84,7.84,0,0,0-1.94.62" transform="translate(-109.22 -54.1)"/><path class="cls-1" d="M506.83,172.26c-.83,1.42-.65,3-.58,4.48a67.74,67.74,0,0,0,1.77,9.8,27.23,27.23,0,0,1,2.43,8.66c.23,3.93,1.11,7.77,1.37,11.69a8.45,8.45,0,0,0,1.34,4.25" transform="translate(-109.22 -54.1)"/><path class="cls-1" d="M499.13,190.17a4,4,0,0,0,.67,1.76" transform="translate(-109.22 -54.1)"/><path class="cls-1" d="M505.1,190.17a2.84,2.84,0,0,1-.34,1.76" transform="translate(-109.22 -54.1)"/><path class="cls-1" d="M509.79,161.09c-.43.18-.84.44-1.29.59a5.6,5.6,0,0,1-1.74.18,2.24,2.24,0,0,1-1.65-.45" transform="translate(-109.22 -54.1)"/><path class="cls-1" d="M524.43,166.05a4.19,4.19,0,0,0-3.31.11,1.67,1.67,0,0,0-.87,2.07c.74,2.22,2.55,1,2.18.59" transform="translate(-109.22 -54.1)"/><path class="cls-1" d="M522.8,171a4.61,4.61,0,0,1,.57,1.26" transform="translate(-109.22 -54.1)"/><path class="cls-1" d="M527.58,186.53a12.46,12.46,0,0,1-.5,4.66" transform="translate(-109.22 -54.1)"/><path class="cls-1" d="M526.91,200c.36,1.42-.68,2.63-.66,4" transform="translate(-109.22 -54.1)"/><path class="cls-1" d="M523.41,195c.86,1.24,1.69,2.52,3.5,2.56" transform="translate(-109.22 -54.1)"/><path class="cls-1" d="M530.58,198.88c-.32.11-.84,0-1,.18-.9,1-1.86.93-3,.5-.68-.24-1.65-.16-1.31,1.08" transform="translate(-109.22 -54.1)"/><path class="cls-1" d="M525.25,199.67c-.49,0-.52-.64-1-.64l-.88.48" transform="translate(-109.22 -54.1)"/><path class="cls-1" d="M457.37,137.42c2.09.57,3.65-1.23,5.68-1.28a9.81,9.81,0,0,1,1.7.18c.65.09,1.3.06,1.95.12a34.36,34.36,0,0,1,4.64.55c.93.21,1.84.5,2.75.78a9.67,9.67,0,0,0,4.11.17c1.75-.25,3.53-.6,5.25-1,.62-.16,1.25-.27,1.88-.38a17.23,17.23,0,0,1,1.73-.38" transform="translate(-109.22 -54.1)"/><path class="cls-1" d="M456.24,153.34a15.93,15.93,0,0,1,1.91-1.23c.46-.25.91-.53,1.36-.77a7.08,7.08,0,0,1,1.31-.47,17.63,17.63,0,0,1,2.43-.88c.43-.06.87-.14,1.31-.17a2.29,2.29,0,0,1,1.12.24,4.7,4.7,0,0,0,2.55,0l2-.48c.24-.06.86,0,1-.25" transform="translate(-109.22 -54.1)"/><path class="cls-1" d="M459.52,152.33c.32.23.68.4,1,.63a6.32,6.32,0,0,1,.53.51,2.37,2.37,0,0,0,1.26.5" transform="translate(-109.22 -54.1)"/><path class="cls-1" d="M455.22,168.24A10,10,0,0,1,457,167a13.2,13.2,0,0,1,1.36-.53,5.81,5.81,0,0,1,1.71-.26c.57,0,1.08.11,1.63.14a6.1,6.1,0,0,0,1.35-.1c.36-.06.73,0,1.09-.05a11.71,11.71,0,0,0,2.8-1.12" transform="translate(-109.22 -54.1)"/><path class="cls-1" d="M457.5,166.85c.15.72,0,1.49.75,1.91,1.11.62,2.3.28,3.47.05a7.06,7.06,0,0,1,1.58-.21,2.09,2.09,0,0,1,1.16.41,1.73,1.73,0,0,0,1.38.24" transform="translate(-109.22 -54.1)"/><path class="cls-1" d="M464.07,165c.7-.58,1.44-1.08,2.16-1.63a5.88,5.88,0,0,1,1.06-.62,29.69,29.69,0,0,1,6.11-1.86,4.6,4.6,0,0,1,3.12.76,7.29,7.29,0,0,0,1.57,1c1.39.49,2.72-.62,3.91-1.21" transform="translate(-109.22 -54.1)"/><path class="cls-1" d="M476.82,163.19a7.13,7.13,0,0,0,1,1.37c.25.2.56.36.83.56a3.72,3.72,0,0,0,1.95.72" transform="translate(-109.22 -54.1)"/><path class="cls-1" d="M476.7,156.24c-.36,1.57,1.55,1.64,2.6,1.81a8.9,8.9,0,0,0,1.55.08,1.79,1.79,0,0,1,1.15.26" transform="translate(-109.22 -54.1)"/><path class="cls-1" d="M453.58,189.21a12,12,0,0,1,2.69-1.64A10,10,0,0,1,459,187c1.76-.17,3.49.41,5.24.43a10.58,10.58,0,0,0,2.52-.12,15.75,15.75,0,0,0,3-1,19,19,0,0,0,5.56-3.85" transform="translate(-109.22 -54.1)"/><path class="cls-1" d="M468.61,185.42a9.61,9.61,0,0,1,2.63-4.12,9.05,9.05,0,0,1,1.47-1.07,3.49,3.49,0,0,1,1-.29,1.62,1.62,0,0,0,.76-.2" transform="translate(-109.22 -54.1)"/><path class="cls-1" d="M471.52,177.72c.79-.88,1.55-2,2.72-2.35a5.6,5.6,0,0,1,3.09-.05" transform="translate(-109.22 -54.1)"/><path class="cls-1" d="M472.28,172.28a4.87,4.87,0,0,0,1.58.74,4.78,4.78,0,0,0,1.07,0" transform="translate(-109.22 -54.1)"/><path class="cls-1" d="M456.61,200.07a1.39,1.39,0,0,1-.73-1,1.88,1.88,0,0,1,0-1.47,3.6,3.6,0,0,1,2-1.14,6.26,6.26,0,0,1,1.6-.4" transform="translate(-109.22 -54.1)"/><path class="cls-1" d="M453.71,195a5.92,5.92,0,0,0,1.44.28,4.14,4.14,0,0,0,1.46-.41" transform="translate(-109.22 -54.1)"/><path class="cls-1" d="M431.48,201.08a6.87,6.87,0,0,0-4.82-1.36,14,14,0,0,0-4.38,1.49c-1.32.6-2.65,1.24-4,1.78s-2.68-.07-3.92.56a13.83,13.83,0,0,0-2.2,1.51,6.32,6.32,0,0,0-1,.82" transform="translate(-109.22 -54.1)"/><path class="cls-1" d="M423.27,202.6a6.68,6.68,0,0,1-2.1,3.28c-1.26.83-2.63.23-4,.64" transform="translate(-109.22 -54.1)"/><path class="cls-1" d="M431.22,189a4.05,4.05,0,0,0-1.5-1.16,4,4,0,0,0-2.32,0c-1.13.23-2.3.56-3-.62-.28-.48-.44-1.14-1.12-.69-.5.33-.88.82-1.39,1.16a24.21,24.21,0,0,1-2.44,1.23,14.33,14.33,0,0,1-1.61.82" transform="translate(-109.22 -54.1)"/><path class="cls-1" d="M426.3,167.61a7.46,7.46,0,0,0-1.65-.76,5.9,5.9,0,0,0-1.28-.39,6.71,6.71,0,0,0-2.68.67,10.17,10.17,0,0,0-2.22,1c-.3.22-.57.47-.89.67a13.88,13.88,0,0,0-1.77,1.39" transform="translate(-109.22 -54.1)"/><path class="cls-1" d="M428.57,157a8.78,8.78,0,0,0-.11,1.7,18.06,18.06,0,0,1,.11,2,1.75,1.75,0,0,1-.34,1.27,6.08,6.08,0,0,1-2.25,1.32,9,9,0,0,1-1.57.52c-.41.09-.77.26-1.17.35s-.81.22-1.21.28-.69,0-1,.32" transform="translate(-109.22 -54.1)"/><path class="cls-1" d="M424.78,164.2a6.86,6.86,0,0,1,.5,1.51,3.73,3.73,0,0,1-.62,1.77" transform="translate(-109.22 -54.1)"/><path class="cls-1" d="M425.92,164.2" transform="translate(-109.22 -54.1)"/><path class="cls-1" d="M425.92,164.2a7.57,7.57,0,0,1,1.15.63,1,1,0,0,1,.5.67c.2.57.21,1.15.37,1.73" transform="translate(-109.22 -54.1)"/><path class="cls-1" d="M432.61,137.67a6.22,6.22,0,0,0-1.26-1.14c-.46-.26-1-.48-1.43-.75a4.42,4.42,0,0,0-1-.51,5.24,5.24,0,0,0-.79-.15c-.57-.09-1.34-.77-1.87-.53-.36.16-.49.43-.9.44s-.6,0-.9,0a6.34,6.34,0,0,0-1.51.23c-.25.05-.5,0-.74,0s-.55.47-.83.69a2.17,2.17,0,0,1-1.59.44c-.32,0-.6-.13-.92-.14s-.63.19-1,.14" transform="translate(-109.22 -54.1)"/><path class="cls-1" d="M433.37,141.84a10.64,10.64,0,0,1-1.11-1,2.93,2.93,0,0,0-.59-.52c-.29-.15-.64-.23-.94-.37a1.63,1.63,0,0,0-.81-.09,3.66,3.66,0,0,1-.74,0c-.26,0-.47-.2-.71-.24a1.72,1.72,0,0,0-.8.14,7.74,7.74,0,0,0-1,.21,4.31,4.31,0,0,0-1.53.94,1.42,1.42,0,0,1-.88.47,4.15,4.15,0,0,1-1.1-.14c-.49-.07-1-.19-1.5-.23a10.74,10.74,0,0,0-1.25.11,6.47,6.47,0,0,1-2.59-.38" transform="translate(-109.22 -54.1)"/><path class="cls-1" d="M427.69,145.51a5.36,5.36,0,0,1,.94-1.08c.43-.34,1-.1,1.52,0a4.2,4.2,0,0,0,1.53.21,1.83,1.83,0,0,1,1.06.09" transform="translate(-109.22 -54.1)"/><path class="cls-1" d="M138.78,177.51c-3.6,6.78-5.25,15-1.2,22a7.3,7.3,0,0,1-.13,5.34c-.54,3.27.32,6.82-.93,10s-4.62,5.48-5.23,9.06c-1.76,1-2.38,3.1-3.24,4.83-.54.65-.93,1.46-1.45,2.1-1.09.78-2.56.94-3.74,1.57s-2.56-.68-3.84-.78a11.92,11.92,0,0,1-2-.5c-2.73-.28-6.45-5.5-6.51-8.14,0-1.33-.68-2.74-.4-4.11.77-2.57,2.61-5.18,5.45-5.51,1.88-.86,2.9,1.17,4.3,2.05.65.49.78.49,1.44.06,1.56-.87,2.63-3.87,3.6-5.07.24,1.15-.54,1.93-.78,3-.33,1.41.05,2.53-.83,3.89-1.07,1.66-2.84,3.27-4.49,1.41-.87-1-.9-3.26-2.42-3.73-3.26-1-3.12,5.93-2.72,7.59a7.18,7.18,0,0,0,5.94,5.33c6.19,1.17,9.61-6.09,11.18-10.76a63.38,63.38,0,0,1,2.48-9c1.26-12.52-5.84-29.67,6-38.65,2.63-1.88,6.47-3.88,8.25-6.66.67-1.05.43-1.81.61-3,.68-2.77,1.95-5.49,2.33-8.36.36-2-.41-3.45-.47-5.36-.1-3.75,5.24-6,8.22-7" transform="translate(-109.22 -54.1)"/><path class="cls-1" d="M149.69,201.64c0,2.31.09,4.62.07,6.92.61,2.18,1.67,4.28,2.34,6.48a8.86,8.86,0,0,1,1.47,4.93c.76,8.08-5.95,13.51-10.62,19.2-1.33.91-1.42,2.21-2.72,3-1.29,1.55-2.08,3.53-3.82,4.78-2.81,2.29-6.49,5-8.38,8.07-2.46,5.69,1.25,12.16,4.31,16.91l.25,1.77c-25-24.35,18.91-30.74,17.17-52.46-.45-3-2.54-5.61-3-8.65a109,109,0,0,1,.73-14.7" transform="translate(-109.22 -54.1)"/><path class="cls-1" d="M432.45,300.12c-.37-1.89-.51-4.56-1.9-6.07" transform="translate(-109.22 -54.1)"/><path class="cls-1" d="M435.18,299.85l-.38-2.28" transform="translate(-109.22 -54.1)"/><path class="cls-1" d="M441.08,238.85l.38-1.89" transform="translate(-109.22 -54.1)"/><path class="cls-1" d="M445.25,240.75a13,13,0,0,0,.37-3" transform="translate(-109.22 -54.1)"/><path class="cls-1" d="M453.8,236.77a11,11,0,0,0,1.14-4.17" transform="translate(-109.22 -54.1)"/><path class="cls-1" d="M480,201.79a2.1,2.1,0,0,0-1.43,2.18,9.4,9.4,0,0,1-3.3-.84c-1.45-.48-1.68-.24-2.58.9s-1.72,1.17-3,1.51c-1.64.44-1.05,1.47-.4,2.68-.33.32-.68.26-1.1.31a16,16,0,0,0-2.35.53,8.47,8.47,0,0,0-2.52,1,3,3,0,0,0-1.46,2.22c-.07.87.95,1.73.69,2.42-1.22.76-3.17-2.27-3.67.29-.19,1,.61,1.66.76,2.58a12,12,0,0,1,0,2,23.26,23.26,0,0,0,0,2.36c.07.61.52,1.21.37,1.83-.37,1.47-2.72,2-2.52,3.76a1.24,1.24,0,0,0,.48.88,2.38,2.38,0,0,1,.23,1c.39.8,1.33,1.14,1.48,2.11.28,1.75-2.17,1.73-1.32,3.6.46,1,1.36,1.73,1.84,2.67.64,1.25.58,2.53,2.5,2.62" transform="translate(-109.22 -54.1)"/><path class="cls-1" d="M456.24,246.81a11.26,11.26,0,0,1,.18-2.59,6.81,6.81,0,0,1,.57-2.34" transform="translate(-109.22 -54.1)"/><path class="cls-1" d="M453.58,254c-.2-.92-.17-2.74-.94-3.41" transform="translate(-109.22 -54.1)"/><path class="cls-1" d="M479.54,302.52c.62-2,1.21-3.89,1.71-5.88" transform="translate(-109.22 -54.1)"/><path class="cls-1" d="M482.57,302.52c.13-1.93.89-3.77.95-5.69" transform="translate(-109.22 -54.1)"/><path class="cls-1" d="M488.45,296.64a28,28,0,0,1,.19-3" transform="translate(-109.22 -54.1)"/><path class="cls-1" d="M492.24,300.43c0-1.41.3-2.76.37-4.17" transform="translate(-109.22 -54.1)"/><path class="cls-1" d="M494.32,300.62a25.49,25.49,0,0,1,.57-2.84" transform="translate(-109.22 -54.1)"/><path class="cls-1" d="M516.49,297.78a14.5,14.5,0,0,1,.76-3.22" transform="translate(-109.22 -54.1)"/><path class="cls-1" d="M543.27,290a15.87,15.87,0,0,1,3.32-1c1.09-.2,1.64.23,1.06,1.27.26.59,1.46.49,1.93.74s.8.63,1.26.88,1.19.38,1.46.9c-.17.41-.69.1-.95.45-.05.65.74.6.94,1.05s-.15.48-.28.75c-.38.79.14,1.14.21,1.94a1.17,1.17,0,0,1-.58.13c-.22.53.09.73-.47,1.17-.28.23-.6.08-.72.55s.27.48-.32.73-1.2-.3-1.82-.13l-.3.36a.73.73,0,0,1-.72.2,4.4,4.4,0,0,1-.79-.15c-.54-.08-1,0-1.48-.36-.32-.26-.35-.7-.79-.87-1.08-.44-1.55.7-2.09,1.34-.87,1-1.66.57-2.68.13a1.41,1.41,0,0,0-1.35,0c-.42.19-.68.62-1.15.71-.64.11-.7-.4-1.24.25-.36.43-.18.87-.38,1.23-.8-.62-1.32-1.5-2.05-2.14A3.34,3.34,0,0,1,532,298a2.48,2.48,0,0,0-1.37.35c-.38.22-.71.57-1.2.54-.34,0-.54-.24-.85-.36a2.07,2.07,0,0,0-1.75.14c-.78.37-1.53.44-2.33.76a4.18,4.18,0,0,0-1.38.88.63.63,0,0,1-.55.54l-1,.06c-.29.47.17.83-.34,1.2s-1.6,0-2,0a13,13,0,0,0-3.44.7,2.92,2.92,0,0,1-1.1.33,11.21,11.21,0,0,0-1.3.05,6.63,6.63,0,0,0-1.44.43c-.55.27-.83.85-1.49.76s-1.07-.63-1.69-.71-1.21.16-1.82.11c-1.06-.09-2.09-.41-3.15-.4a11,11,0,0,0-1.9,0,5.35,5.35,0,0,0-1.39.79,22.64,22.64,0,0,1-2.66.93c-.87.36-1.29.25-1.76-.62-.22-.41-.34-1.19-1-1.07a5.84,5.84,0,0,0-1.26,1c-.38.34-.59.76-1.05,1a5.9,5.9,0,0,1-2,.71c-.7.09-1.14-.4-1.79-.5-.24,0-.5.08-.74,0a4,4,0,0,1-1.2-.51c-.46-.29-.76-.83-1.38-.82s-.89.52-1.26.8a8.86,8.86,0,0,0-2.19,1.85c-.66,1-.69,1.49-1.85.89a4.17,4.17,0,0,1-2-2.67c-.77-.32-1.7.91-2.24,1.33-.7.54-.85.28-1.53-.07a36,36,0,0,0-4.05-2c-1.11-.39-2.31-.45-3.4-.87a9.77,9.77,0,0,1-1.92-1,3.34,3.34,0,0,1-1-1.67c0,.9-1,1.76-1.57,2.37-.77.79-2,.86-3,1.09a18.67,18.67,0,0,1-3.67.22,10.64,10.64,0,0,0-2.17.33,1.07,1.07,0,0,1-.8.12.72.72,0,0,0-.87-.07c-.49,2.07,2.05,3,3.72,3.36a2.1,2.1,0,0,0,.9,0c.32-.06.73-.36,1.07-.16a1.93,1.93,0,0,1,.66,2.21,1.82,1.82,0,0,1-2.11.88c-.67-.27-.93-1.11-1.59-1.36s-1.05.52-1.71.69c-.45.12-.81-.07-1.26.11a3.12,3.12,0,0,0-1.27,1.44" transform="translate(-109.22 -54.1)"/><path class="cls-1" d="M386.89,179.46A4.63,4.63,0,0,1,387,182a2.91,2.91,0,0,0,.08,1.59,3.51,3.51,0,0,1-.38,3.12.7.7,0,0,0-.1.47c.1,1.46-.28,3,.23,4.4" transform="translate(-109.22 -54.1)"/><path class="cls-1" d="M392.33,178.76a59.57,59.57,0,0,1-4.16,5.2" transform="translate(-109.22 -54.1)"/><path class="cls-1" d="M382.15,183.5c1.76.63,3.38,1.65,5.32,1.77.56,0,1.06.18,1.51-.26a25.9,25.9,0,0,1,2.77-2.14" transform="translate(-109.22 -54.1)"/><path class="cls-1" d="M384.64,169.17c.74,1.46.83,3.29,2.56,4.22.3.16.42,1.13.4,1.79a5.91,5.91,0,0,0,.33,3" transform="translate(-109.22 -54.1)"/><path class="cls-1" d="M386.66,178.88c-1.46-.89-3.17-1.2-4.68-2" transform="translate(-109.22 -54.1)"/><path class="cls-1" d="M385.51,163.73a9.49,9.49,0,0,0,.88,2.91,2.64,2.64,0,0,0,1.2,1.14" transform="translate(-109.22 -54.1)"/><path class="cls-1" d="M389,163.21c-.28,1-1,2-.7,3.18a.83.83,0,0,1-.12.68c-.8.85-.46,1.83-.18,2.66a3.78,3.78,0,0,1-.61,3.48" transform="translate(-109.22 -54.1)"/><path class="cls-1" d="M392.21,175.87a3.5,3.5,0,0,0-2.55,1.26,14.07,14.07,0,0,1-5.19,3.25" transform="translate(-109.22 -54.1)"/><path class="cls-1" d="M390.48,164.42a15.17,15.17,0,0,1-.94,1.5c-.28.36-.58.77-1.14.7" transform="translate(-109.22 -54.1)"/><path class="cls-1" d="M414.09,252.51c-.11-1.9-1-4.18-3.09-2.8-1,.67-1.49,2.57-.51,3.52.5.47,2.72.86,2.32-.5" transform="translate(-109.22 -54.1)"/><path class="cls-1" d="M414.62,254.2c-.31-1.49-.25-12.45,1.67-9.68.8,1.15.24,4,.29,5.55,0,1.22.26,4.79.26,4.79.18.87.26,1.74.38,2.62a13.86,13.86,0,0,1,.11,3.22c0,.86-.61,2.48-.66,3.37a26.57,26.57,0,0,0-.29,2.67c.19.3,1.66-.23,1.93-.21,1,.08.41.74.63,1.72a2.44,2.44,0,0,1,0,1.2c-.15.39-.11.69-.49.77a3.47,3.47,0,0,1-.91,0c.16-.36-.22-.49,0-.77-.39-.18,0-.22-.43-.2a17.45,17.45,0,0,1-3,.35c-1.07-.09-.83-1.88-.91-2.84-.13-1.3-.32-2-1.61-2-.91,0-2.11-.12-2.22,1.16a15.37,15.37,0,0,0,0,1.92,18.34,18.34,0,0,0,.28,1.83,4.91,4.91,0,0,1-1.15.08,9,9,0,0,1-1.17.25,4.39,4.39,0,0,1-1.06-.08c-.31-.46.44-.76.67-.92,1-.59.55-1.27.32-2.35a11.39,11.39,0,0,1-.18-2.61,2.37,2.37,0,0,1,1.4-2.14,13.36,13.36,0,0,0,1.39-.75" transform="translate(-109.22 -54.1)"/><path class="cls-1" d="M410.43,253.37a4.42,4.42,0,0,0-1.53,3.12,7.15,7.15,0,0,0,1,4.67c1.09,1.49,3.1,2.29,2.28-.39a21.78,21.78,0,0,1-1.11-4.57" transform="translate(-109.22 -54.1)"/><path class="cls-1" d="M415.8,243.9s0-9.9-.13-13.14a17.29,17.29,0,0,0-.22-2.14c-.06.7-.1,1.42-.11,2.14-.06,3.28.23,13.14.23,13.14" transform="translate(-109.22 -54.1)"/><path class="cls-1" d="M415,228.5c-1.14.05-2.07,0-3.71,0-.48,1.46-.16,5.16.16,8.08,1.34-2,1.5-4.6,4.13-4.68" transform="translate(-109.22 -54.1)"/><path class="cls-1" d="M402.89,269.38c-.25-.7,0-1-.74-1.05a8.69,8.69,0,0,0-1.68.22c-.52.1-1.7.18-1.75.2a1,1,0,0,1-1.28-.74.92.92,0,0,1,0-.29v-1.48c0-.67,0-1.33.06-2a1.09,1.09,0,0,0-1-1.17h-1.17c-.71,0-1.63-.16-2,.51-.7,1.16-.44,2.86-.36,4.35a1.06,1.06,0,0,1-.93,1.18h-.12a9.38,9.38,0,0,0-1.91.1.62.62,0,0,1-.77-.37c-.28-.57.57-.91.91-1,.62-.27.55,0,.85-.76a8.07,8.07,0,0,0,.36-2,14.2,14.2,0,0,1,.43-3.65c.44-1,2.25-.75,3.1-1.25" transform="translate(-109.22 -54.1)"/><path class="cls-1" d="M398.93,250.69c.24-2.15.21-4.3.4-6.46a6,6,0,0,1,.62-2.83c.91-1.18,1.05,1,1.14,1.7a34.79,34.79,0,0,1,.12,6c-.16,3.71-.61,7.4-.61,11.07,0,0-.14,4.24-.45,6a6.48,6.48,0,0,0,1.76,0,4.15,4.15,0,0,1,1.75.19c.84.49.7,3.57-.78,3.05" transform="translate(-109.22 -54.1)"/><path class="cls-1" d="M395.25,251.51c-.74.26-1.23.22-1.57,1.1a8.28,8.28,0,0,0-.49,2.74c0,.92,0,1.83-.07,2.74a2.86,2.86,0,0,0,.07,1.2c.18.32.81.46,1.1.63a17.25,17.25,0,0,1,2.45,2.23c.42-.91.58-1.31-.07-2a7.72,7.72,0,0,1-1.22-2,5.84,5.84,0,0,1-.07-1.91,15.35,15.35,0,0,1,.09-2.35" transform="translate(-109.22 -54.1)"/><path class="cls-1" d="M398.75,250.89c-.3-.84,0-1.65-.16-2.52a1.8,1.8,0,0,0-1.95-1.58,2,2,0,0,0-1.82,1.94c-.14.83-.43,2.19.35,2.62s2.44,1.16,2.31-.52" transform="translate(-109.22 -54.1)"/><path class="cls-1" d="M402.67,238.87c-.84,2.24-3.36,1.82-4.32-.06-.63.54,0,1.31.39,1.6a3.89,3.89,0,0,0,1.72.56c1.22.08,2.09-1.12,2.79-2.1a1.63,1.63,0,0,0-.53-.12" transform="translate(-109.22 -54.1)"/><path class="cls-1" d="M400.76,240c0-3.75.1-7.42.27-11.16a13.51,13.51,0,0,0,0-2.38,21.67,21.67,0,0,0-.3-2.25c-.59,2.52-.27,5.14-.39,7.72-.15,2.74-.31,5.44-.31,8.22" transform="translate(-109.22 -54.1)"/><path class="cls-1" d="M401.63,249.33a4.79,4.79,0,0,1,1.82,2.11,8.19,8.19,0,0,1,.79,3.61,15.71,15.71,0,0,1-.22,2.37,12.3,12.3,0,0,1-.76,2.46,4.4,4.4,0,0,1-1,1.54c-.47.48-1,.93-1.43,1.41" transform="translate(-109.22 -54.1)"/><path class="cls-1" d="M380.69,253.74a34,34,0,0,1,.16-4.73c.2-1.42.34-4.08.82-4.9,1-1.76,1.15,1.2,1.24,2,.22,1.83,0,6.22.1,6.22,0,1.78.17,8.22,0,9.8,0,0,.27,3,.21,3.92-.07,1.39,2.11,1.56,3.64,1.77a.58.58,0,0,1,.51.43c.12.7.33,2-.09,2.42a3.6,3.6,0,0,1-2.62.22,11.58,11.58,0,0,1,1.35-.71l-.38-.47c-1.19-.5-3.72,1-5.12.65s-.45-5.28-1.38-5.28-1.81,0-2.72,0c-1.82.07-1.18,1.67-1.11,3a6.9,6.9,0,0,1-.14,1.36c-.13.58-.24.43-.91.55-.91.18-1.82.39-2.73.61-.51-1.45,1.35-1.3,1.67-2.28s-.11-2.26-.15-3.25-.24-2.39.59-3,1.5-.39,2.43-.67" transform="translate(-109.22 -54.1)"/><path class="cls-1" d="M377.4,256.53c-.75,1.51.8,3.3,1.88,4.45.65.69.7.34.82,1.29a.72.72,0,0,1-.57.84.7.7,0,0,1-.71-.28c-.52-.28-1-.54-1.58-.77a3.86,3.86,0,0,1-2.48-2.38c-.37-1,.2-5.85,1.95-6.08" transform="translate(-109.22 -54.1)"/><path class="cls-1" d="M380.48,251.35c0-1,0-1.74-.85-2.2a1.82,1.82,0,0,0-2.54.4,1.5,1.5,0,0,0-.19.32,3.75,3.75,0,0,0,.22,3c.69,1.37,1.82.83,2.57-.14" transform="translate(-109.22 -54.1)"/><path class="cls-1" d="M382.29,242.47c-.1-.17,0,.52,0,.74a6.79,6.79,0,0,0,.1.91c0,.29.36,1.33-.16,1.51.08-1-.42-2.32-.17-3.3" transform="translate(-109.22 -54.1)"/><path class="cls-1" d="M371.8,244.58a5.61,5.61,0,0,1,1.08-1,10.75,10.75,0,0,1,1.6-.78,17,17,0,0,1,4.14-.94,27.58,27.58,0,0,1,6.61,0c.85.08,1.63.39,2.46.55a6.21,6.21,0,0,1,2,.8,4.53,4.53,0,0,1,1.56,1.3c.14.19.35.28.51.45s.22.42.42.58" transform="translate(-109.22 -54.1)"/><path class="cls-1" d="M371.71,244.67c6.54,1.58,13.69,1.34,20.46.83" transform="translate(-109.22 -54.1)"/><path class="cls-1" d="M383,256.24a8.91,8.91,0,0,0,1.38-1c.26.05.36.49.44.7a7.49,7.49,0,0,0,.28.71,4.15,4.15,0,0,1,.44,1.57,12.3,12.3,0,0,1-2.5,3.1" transform="translate(-109.22 -54.1)"/><path class="cls-1" d="M385.24,256.15a19.1,19.1,0,0,1,1.81-1.79c.38-.31.83-.52,1.18-.85" transform="translate(-109.22 -54.1)"/><path class="cls-1" d="M385.7,258a7.59,7.59,0,0,1,2.53-2.19" transform="translate(-109.22 -54.1)"/><path class="cls-1" d="M450.3,292c-.54.56-1.06,1.1-1.88.63s-.57-1.12-.39-1.82c.09-.38.53-1.4.16-1.75-.55-.53-1.68.44-2.28.53-.3,0-.63-.09-.94-.07a11.24,11.24,0,0,0-1.73.33c-.83.18-2,.79-2.74.06s-.86-2.4-2.07-2.4a1.64,1.64,0,0,0-1.41,2,14,14,0,0,1-1.67.73,2,2,0,0,1-1.24.48c-.19,0-.39-.19-.61-.22-.58-.09-1.18-.13-1.77-.22s-1.86-.22-2.05.51c.51.36,1.35-.06,1.64-.54-.34-.61-1.43-.72-2-.83-.85-.16-2.28,0-3-.43s-.12-.93.14-1.55a3.77,3.77,0,0,0,.17-1.42c-1.11-.32-2.25-.51-3.36-.83-.62-.18-1.65-.18-2.06-.75.42-.72,1.17-.21,1.63-.65.69-.66-.18-1.66-.74-2,1,.7.79-1,.71-1.42a2.24,2.24,0,0,1,.3-2,7.45,7.45,0,0,0,1.24-1.72c.22-.66,0-1.35.18-2,.12-.46,0-.8.47-1.15.21-.18.57-.17.8-.33.86-.57.42-1.23.34-2.05s.66-1.22,1.17-2a4.37,4.37,0,0,0,.81-2.76c-.38,1.9,1.85,1.29,2.7.8,1.61-.93.38-1.73-.64-2.54-.64-.5-.75-.61.09-1.27.58-.44,1.25-.65,1.67-1.27s.64-2,1.34-2.61,1.74.32,2.58.26c1.5-.12.36-1.51,1-2.24.49-.56.85-.06,1.36,0s1.19-.56,1.54-.84c1-.8,1-2.87.89-4.07a6.77,6.77,0,0,1,1.36.39,1.42,1.42,0,0,1,1.26,1,14,14,0,0,0,1,1.57c.4.57.45,1.37.91,1.86a8.36,8.36,0,0,0,1.12-.29,2,2,0,0,1,.95.39c.83,0,1.21-.69,1.77-1.2.26-.24.67-.65,1.08-.54s.69,1,1,1.27a6.13,6.13,0,0,0,.92.47.53.53,0,0,0,.54-.19,1.81,1.81,0,0,1,1.23.44c.58.46.59,1.21,1.29,1.58s1.25.1,1.91.25c-.3.51,0,.76.32,1.16a1.38,1.38,0,0,1,.31,1.58" transform="translate(-109.22 -54.1)"/><path class="cls-3" d="M437.86,264a1.25,1.25,0,0,0,0-2.5,1.25,1.25,0,0,0,0,2.5Z" transform="translate(-109.22 -54.1)"/><path class="cls-3" d="M438.8,279.13a1.25,1.25,0,0,0,0-2.5,1.25,1.25,0,0,0,0,2.5Z" transform="translate(-109.22 -54.1)"/><path class="cls-3" d="M428.38,284.63a1.25,1.25,0,0,0,0-2.5,1.25,1.25,0,0,0,0,2.5Z" transform="translate(-109.22 -54.1)"/><path class="cls-3" d="M430.47,272.5a1.25,1.25,0,0,0,0-2.5,1.25,1.25,0,0,0,0,2.5Z" transform="translate(-109.22 -54.1)"/><path class="cls-3" d="M445.25,283.87a1.25,1.25,0,0,0,0-2.5,1.25,1.25,0,0,0,0,2.5Z" transform="translate(-109.22 -54.1)"/><path class="cls-3" d="M446.19,271.74a1.25,1.25,0,0,0,0-2.5,1.25,1.25,0,0,0,0,2.5Z" transform="translate(-109.22 -54.1)"/><path class="cls-3" d="M450.17,266.44a1.25,1.25,0,0,0,0-2.5,1.25,1.25,0,0,0,0,2.5Z" transform="translate(-109.22 -54.1)"/><path class="cls-3" d="M438.8,272.31a1.25,1.25,0,0,0,0-2.5,1.25,1.25,0,0,0,0,2.5Z" transform="translate(-109.22 -54.1)"/><path class="cls-1" d="M224.7,148a9.61,9.61,0,0,1,2.78-3.79" transform="translate(-109.22 -54.1)"/><path class="cls-1" d="M229.25,151.06a18.94,18.94,0,0,1,3.58-1.09,10,10,0,0,1,2.73.08" transform="translate(-109.22 -54.1)"/><path class="cls-1" d="M227.48,151.57a14.5,14.5,0,0,1,3,4.55" transform="translate(-109.22 -54.1)"/><path class="cls-1" d="M205,134.89c.33-1.36.44-2.8.87-4.13s1.19-2.42,1.66-3.7" transform="translate(-109.22 -54.1)"/><path class="cls-1" d="M196.4,129.84a23.16,23.16,0,0,1,1.27-7.83" transform="translate(-109.22 -54.1)"/><path class="cls-1" d="M542.26,303.46a3.92,3.92,0,0,0-1.41,2.54c0,.66.26,2.36-.48,2.72a1.4,1.4,0,0,1-.67-.82,2.26,2.26,0,0,1-.11-1.6,2.9,2.9,0,0,0-.23-1.36c-.12-.42,0-1.19-.32-1.48" transform="translate(-109.22 -54.1)"/><path class="cls-1" d="M479.1,270.05c.31.85.56,1.67.81,2.53a8.64,8.64,0,0,1,.7,2" transform="translate(-109.22 -54.1)"/><path class="cls-1" d="M482.13,270.05a21.89,21.89,0,0,1,.43,2.55,4.61,4.61,0,0,1,.33,1.75" transform="translate(-109.22 -54.1)"/><path class="cls-1" d="M484.4,269.8a16.4,16.4,0,0,1,.76,2" transform="translate(-109.22 -54.1)"/><path class="cls-1" d="M468.49,237.72c-.29.61-1.16,2.58-.66,3.16.34-.31.41-.86.9-1,.57.36.6.79,1.06,1.24.95,0,1.76-1,2.74-1.15" transform="translate(-109.22 -54.1)"/><path class="cls-1" d="M464.19,260.2c-.14.3-.55,1.23,0,1.47.36.14.53-.25.79-.34,1-.37,1.3.44,2.21.63a5.53,5.53,0,0,0,2.13-.27,4.4,4.4,0,0,0,1.92-.73" transform="translate(-109.22 -54.1)"/><path class="cls-1" d="M521.22,243.4a6,6,0,0,0,1.55-1.75c.14-.35.07-1,.38-1.26s.55-.15.73-.43,0-1.43-.11-1.87a2.89,2.89,0,0,0-1-1.7" transform="translate(-109.22 -54.1)"/><path class="cls-1" d="M537.33,211a7.16,7.16,0,0,1,1.41.22c.44.24.11.3.22.73.18.72,1.47.84.86,1.76-.2.3-.69.45-.6.89s.64.47.8.8c.31.66-.3,1.32-.8,1.66" transform="translate(-109.22 -54.1)"/><path class="cls-1" d="M548.32,256.28c.33-.09,1.27-.14,1.54-.4s0-.74.18-1.11.76-.69,1-1.19a8.86,8.86,0,0,1,.21-.89,3.11,3.11,0,0,0,.39-1,1.1,1.1,0,0,0-.24-1.15,1,1,0,0,1-.31-.4c.05-.21.1-.42.14-.63a1.41,1.41,0,0,0-.78-1.18" transform="translate(-109.22 -54.1)"/><path class="cls-1" d="M540.36,233.93c.53-.06,1.3-.34,1.61.21s-.1,1,.29,1.46c.51.57,1.84.28,2.09,1.14a1.34,1.34,0,0,1-.22.95c-.17.26-.65.43-.71.71s.55.92.57,1.39a2,2,0,0,1-.71,1.43,6.28,6.28,0,0,1-1.19,1.06,3.62,3.62,0,0,1-2.3,0" transform="translate(-109.22 -54.1)"/><path class="cls-1" d="M529.56,293c-.26-1.11-.2-2.23-.46-3.35a25.45,25.45,0,0,1-.68-3.09" transform="translate(-109.22 -54.1)"/><path class="cls-1" d="M531.65,292.47a27.47,27.47,0,0,1-.38-5.87" transform="translate(-109.22 -54.1)"/><path class="cls-1" d="M533,294.18a6.16,6.16,0,0,0,.38-1.52" transform="translate(-109.22 -54.1)"/><path class="cls-1" d="M508.53,289.63c.3-.86.81-2.15,1.9-2.25a.88.88,0,0,1,1,.53c.25.51-.12.76-.11,1.24,1,.07,2.1-.95,2.83.21s-.5,2-1.47,2.39a1.55,1.55,0,0,1,.74,1.29,2.53,2.53,0,0,1-.88,1.7c-1.21.67-2,0-2.48-1.12-.49-.07-.83.57-1.22.76a1.9,1.9,0,0,1-1.51.08,2,2,0,0,1-.82-1.18,1.41,1.41,0,0,1,.09-.64c.19-.37.27-.28.6-.43-.12-.3-.39-.39-.6-.59a2.92,2.92,0,0,1-.49-.61,2.15,2.15,0,0,1-.59-1.42,1,1,0,0,1,1.14-1,5.42,5.42,0,0,1,1.53,1" transform="translate(-109.22 -54.1)"/><path class="cls-1" d="M521.6,293.42a7.13,7.13,0,0,1-.38-1.27c-.31-.77-.76-1.48-1.12-2.23s-.6-1.24-.93-1.85c-.12-.22-.49-.66-.46-.89.64-.07,1.16.53,1.57.94s.9,1.26,1.31.74.24-1.08.43-1.51.38-1.13.72-1.28a1.28,1.28,0,0,1,.57,1.1" transform="translate(-109.22 -54.1)"/><path class="cls-1" d="M524.26,291.15A14.42,14.42,0,0,1,525,286a10,10,0,0,1,1.3-2.52c.34,1.2-.36,2.77-.51,4a9.6,9.6,0,0,0,.15,3.12" transform="translate(-109.22 -54.1)"/><path class="cls-1" d="M132.23,284.87a20.67,20.67,0,0,0-2.79.59c-1.35.26-6.34.71-6.87.81a7.33,7.33,0,0,1-4.41-.37,20.29,20.29,0,0,1-2.67-1c-1.38-.78-1.67-2.43-2.16-3.79,1-5.42,1-7,7-7.4,3.26-.19,7.58-.83,9.91,2,1.71,2.91,4.18,5.67,5,9,.71,9.41-3.75,11.47-11.88,15.16.28-.47,1-.64,1.52-.85a23.57,23.57,0,0,0,6-4.13c3.42-3.52,2.81-8.38.27-12-2.77-3.94-7.85-6.4-12.46-4.31-1.83.68-3,2.26-1.75,4,4.51,2.47,8.36,1,13-.71" transform="translate(-109.22 -54.1)"/><path class="cls-1" d="M145.39,248.8a66.56,66.56,0,0,0-3.14-14.58c-1.8-4.28-6.41-13.55-5.07-22.48" transform="translate(-109.22 -54.1)"/><path class="cls-1" d="M133.55,280.75c5.6-2.26,9.64-6.74,10.56-12.65a55.11,55.11,0,0,0,1.13-6.19" transform="translate(-109.22 -54.1)"/><path class="cls-1" d="M147.83,271.2c-1.13,1.71-2.74,3.14-3.78,4.9-1.91,3.14-3.94,6.81-7.72,7.92-.38.13-.76.24-1.15.34" transform="translate(-109.22 -54.1)"/><path class="cls-1" d="M151.53,243.76a24.8,24.8,0,0,1,.41,6.81c.56,5.51-.83,10.69-2.35,15.89" transform="translate(-109.22 -54.1)"/><path class="cls-1" d="M145.24,200.67a43.84,43.84,0,0,0-2.77,11.73,31.32,31.32,0,0,0,4.06,19,49.77,49.77,0,0,1,3.65,7.58" transform="translate(-109.22 -54.1)"/><path class="cls-1" d="M160.85,174.18c-.45.49-.87,1-1.3,1.5a26.58,26.58,0,0,0-2.24,3.3" transform="translate(-109.22 -54.1)"/><path class="cls-1" d="M161.35,178.22,160,179.78a22.79,22.79,0,0,0-2.17,3" transform="translate(-109.22 -54.1)"/><path class="cls-1" d="M162.11,186.68c-.51.27-1,.63-1.48.89a4.53,4.53,0,0,0-1.17.76" transform="translate(-109.22 -54.1)"/><path class="cls-3" d="M192.43,138.71a.63.63,0,0,0,0-1.25.63.63,0,0,0,0,1.25Z" transform="translate(-109.22 -54.1)"/><path class="cls-3" d="M178.44,145.31a.63.63,0,0,0,0-1.25.63.63,0,0,0,0,1.25Z" transform="translate(-109.22 -54.1)"/><path class="cls-3" d="M183.18,159.14a.63.63,0,0,0,0-1.25.63.63,0,0,0,0,1.25Z" transform="translate(-109.22 -54.1)"/><path class="cls-3" d="M179.58,138.11a.63.63,0,0,0,0-1.25.63.63,0,0,0,0,1.25Z" transform="translate(-109.22 -54.1)"/><path class="cls-3" d="M173.51,151.37a.63.63,0,0,0,0-1.25.63.63,0,0,0,0,1.25Z" transform="translate(-109.22 -54.1)"/><path class="cls-3" d="M198.52,166a.63.63,0,0,0,0-1.25.63.63,0,0,0,0,1.25Z" transform="translate(-109.22 -54.1)"/><path class="cls-3" d="M205.16,184.94a.63.63,0,0,0,0-1.25.63.63,0,0,0,0,1.25Z" transform="translate(-109.22 -54.1)"/><path class="cls-3" d="M200.8,150.61a.63.63,0,0,0,0-1.25.63.63,0,0,0,0,1.25Z" transform="translate(-109.22 -54.1)"/><path class="cls-3" d="M209.32,160.66a.63.63,0,0,0,0-1.25.63.63,0,0,0,0,1.25Z" transform="translate(-109.22 -54.1)"/><path class="cls-3" d="M220.88,151.37a.63.63,0,0,0,0-1.25.63.63,0,0,0,0,1.25Z" transform="translate(-109.22 -54.1)"/><path class="cls-3" d="M212.17,166.53a.63.63,0,0,0,0-1.25.63.63,0,0,0,0,1.25Z" transform="translate(-109.22 -54.1)"/><path class="cls-3" d="M205.35,150.05a.63.63,0,0,0,0-1.25.63.63,0,0,0,0,1.25Z" transform="translate(-109.22 -54.1)"/><path class="cls-3" d="M212.55,146.82a.63.63,0,0,0,0-1.25.63.63,0,0,0,0,1.25Z" transform="translate(-109.22 -54.1)"/><path class="cls-3" d="M192.27,144.55a.63.63,0,0,0,0-1.25.63.63,0,0,0,0,1.25Z" transform="translate(-109.22 -54.1)"/><path class="cls-3" d="M193.41,161.41a.63.63,0,0,0,0-1.25.63.63,0,0,0,0,1.25Z" transform="translate(-109.22 -54.1)"/><path class="cls-3" d="M182.23,149.1a.63.63,0,0,0,0-1.25.63.63,0,0,0,0,1.25Z" transform="translate(-109.22 -54.1)"/><path class="cls-3" d="M180.71,175.81a.63.63,0,0,0,0-1.25.63.63,0,0,0,0,1.25Z" transform="translate(-109.22 -54.1)"/><path class="cls-3" d="M173.51,161.41a.63.63,0,0,0,0-1.25.63.63,0,0,0,0,1.25Z" transform="translate(-109.22 -54.1)"/><path class="cls-3" d="M169.91,181.69a.63.63,0,0,0,0-1.25.63.63,0,0,0,0,1.25Z" transform="translate(-109.22 -54.1)"/><path class="cls-3" d="M162.71,172.59a.63.63,0,0,0,0-1.25.63.63,0,0,0,0,1.25Z" transform="translate(-109.22 -54.1)"/><path class="cls-3" d="M175.6,182.45a.63.63,0,0,0,0-1.25.63.63,0,0,0,0,1.25Z" transform="translate(-109.22 -54.1)"/><path class="cls-3" d="M176.36,167.67a.63.63,0,0,0,0-1.25.63.63,0,0,0,0,1.25Z" transform="translate(-109.22 -54.1)"/><path class="cls-3" d="M194.55,173.54a.63.63,0,0,0,0-1.25.63.63,0,0,0,0,1.25Z" transform="translate(-109.22 -54.1)"/><path class="cls-3" d="M198.52,180.93a.63.63,0,0,0,0-1.25.63.63,0,0,0,0,1.25Z" transform="translate(-109.22 -54.1)"/><path class="cls-3" d="M191,167.86a.63.63,0,0,0,0-1.25.63.63,0,0,0,0,1.25Z" transform="translate(-109.22 -54.1)"/><path class="cls-3" d="M186.21,180a.63.63,0,0,0,0-1.25.63.63,0,0,0,0,1.25Z" transform="translate(-109.22 -54.1)"/><path class="cls-3" d="M171.05,194a.63.63,0,0,0,0-1.25.63.63,0,0,0,0,1.25Z" transform="translate(-109.22 -54.1)"/><path class="cls-3" d="M173,210.11a.63.63,0,0,0,0-1.25.63.63,0,0,0,0,1.25Z" transform="translate(-109.22 -54.1)"/><path class="cls-3" d="M175.6,191.54a.63.63,0,0,0,0-1.25.63.63,0,0,0,0,1.25Z" transform="translate(-109.22 -54.1)"/><path class="cls-3" d="M177.11,197.79a.63.63,0,0,0,0-1.25.63.63,0,0,0,0,1.25Z" transform="translate(-109.22 -54.1)"/><path class="cls-3" d="M175.6,213.52a.63.63,0,0,0,0-1.25.63.63,0,0,0,0,1.25Z" transform="translate(-109.22 -54.1)"/><path class="cls-3" d="M201.37,141a.63.63,0,0,0,0-1.25.63.63,0,0,0,0,1.25Z" transform="translate(-109.22 -54.1)"/><path class="cls-3" d="M199.85,145.31a.63.63,0,0,0,0-1.25.63.63,0,0,0,0,1.25Z" transform="translate(-109.22 -54.1)"/><path class="cls-3" d="M206.29,165.77a.63.63,0,0,0,0-1.25.63.63,0,0,0,0,1.25Z" transform="translate(-109.22 -54.1)"/><path class="cls-3" d="M204,170.7a.63.63,0,0,0,0-1.25.63.63,0,0,0,0,1.25Z" transform="translate(-109.22 -54.1)"/><path class="cls-3" d="M206.26,176.76a.63.63,0,0,0,0-1.25.63.63,0,0,0,0,1.25Z" transform="translate(-109.22 -54.1)"/><path class="cls-3" d="M172.57,135.84a.63.63,0,0,0,0-1.25.63.63,0,0,0,0,1.25Z" transform="translate(-109.22 -54.1)"/><path class="cls-3" d="M172.57,149.1a.63.63,0,0,0,0-1.25.63.63,0,0,0,0,1.25Z" transform="translate(-109.22 -54.1)"/><path class="cls-3" d="M167.83,158a.63.63,0,0,0,0-1.25.63.63,0,0,0,0,1.25Z" transform="translate(-109.22 -54.1)"/><path class="cls-3" d="M184.31,140.19a.63.63,0,0,0,0-1.25.63.63,0,0,0,0,1.25Z" transform="translate(-109.22 -54.1)"/><path class="cls-3" d="M188.48,149.86a.63.63,0,0,0,0-1.25.63.63,0,0,0,0,1.25Z" transform="translate(-109.22 -54.1)"/><path class="cls-3" d="M186,136.78a.63.63,0,0,0,0-1.25.63.63,0,0,0,0,1.25Z" transform="translate(-109.22 -54.1)"/><path class="cls-3" d="M180.33,133.75a.63.63,0,0,0,0-1.25.63.63,0,0,0,0,1.25Z" transform="translate(-109.22 -54.1)"/><path class="cls-3" d="M213.49,150.8a.63.63,0,0,0,0-1.25.63.63,0,0,0,0,1.25Z" transform="translate(-109.22 -54.1)"/><path class="cls-3" d="M178.21,227.22a.63.63,0,0,0,0-1.25.63.63,0,0,0,0,1.25Z" transform="translate(-109.22 -54.1)"/><path class="cls-3" d="M171.14,220.15a.63.63,0,0,0,0-1.25.63.63,0,0,0,0,1.25Z" transform="translate(-109.22 -54.1)"/><path class="cls-3" d="M178.72,221.16a.63.63,0,0,0,0-1.25.63.63,0,0,0,0,1.25Z" transform="translate(-109.22 -54.1)"/><path class="cls-1" d="M253.79,283.67a16.06,16.06,0,0,1,2.32-1.4c.53-.31.95-.19,1.16.49a4.79,4.79,0,0,0,1,2.26,8.27,8.27,0,0,1,1.33-.52c.76-.14,1.49-.58,2.36-.06a1.64,1.64,0,0,0,1.57.06,7.22,7.22,0,0,0,.78,1.92,1.19,1.19,0,0,0,1.39.69" transform="translate(-109.22 -54.1)"/><path class="cls-1" d="M267.34,273.47a3.08,3.08,0,0,1-2.1.34c-1.24-.08-1.65-.8-1.16-2,.37-.93.15-1.67-.66-2-.52-.19-.47-.61-.46-1s.2-.76.09-1.12c-.35-1.26-1.19-1.47-2.15-.54-.2.2-.37.4-.69.34a6.72,6.72,0,0,0-2.7.43c-.66.14-.92-.09-.95-.66s-.11-1.18-1-1.17c-.38,0-.78-.26-.72-.94.08-.84-.49-1.07-1.22-.61-1.22.78-2,.57-2.48-.83a10.1,10.1,0,0,0-1.49-2,1,1,0,0,0-1-.35c-1.47.09-1.47.08-2.52-.74a10.81,10.81,0,0,1-.94.6,1.34,1.34,0,0,0-.73,1.37,4.32,4.32,0,0,1-.66,2.8,3,3,0,0,0-.56,2.26c.09.64-.18.85-.84.91s-1.14-.14-1.73-.13c-.81,0-1.32.31-1.43,1.14" transform="translate(-109.22 -54.1)"/><path class="cls-1" d="M266.45,285.94a3,3,0,0,0-.42,2.47c.17.77.44,1.31,1.34,1.2.58-.08.86.21,1.09.71a6,6,0,0,0,1.46,1.91c.3.27.61.51,1,.22" transform="translate(-109.22 -54.1)"/><path class="cls-1" d="M222.42,275.92a1.34,1.34,0,0,1,1.11.61,1.3,1.3,0,0,1,.18,1.11c-.09.48-.53.37-.89.41-1.06.13-2.19,0-3,.9a.37.37,0,0,0-.1.31" transform="translate(-109.22 -54.1)"/><path class="cls-1" d="M224.44,284.71c-.34,1.77,0,2.38,1.72,2.72a1.74,1.74,0,0,1,1.44.9,1.41,1.41,0,0,0,.78.83" transform="translate(-109.22 -54.1)"/><path class="cls-1" d="M221,282.49a5.85,5.85,0,0,0-.2,1.62c0,.44.31.8.7.68a11.06,11.06,0,0,1,3.34-.27c.17,0,.34-.28.51,0" transform="translate(-109.22 -54.1)"/><path class="cls-1" d="M237.94,271.72l.38,1.53c.08.12.06.23,0,.26a3.91,3.91,0,0,0-2.35,2.51c-.29.76-1,.46-1.57.53" transform="translate(-109.22 -54.1)"/><path class="cls-1" d="M236.78,270.62a1,1,0,0,0,1.21-.41c.6-.72,1.21-1.42,1.82-2.13h.5a2.35,2.35,0,0,1-.6-.1c-1.09-.5-1.19-1.23-.19-1.88a3.28,3.28,0,0,0,.69-.64l1.11-.21c-1.56.39-2.49-.7-3.6-1.45.39-.91,0-1.85.42-2.69l-.35.71c-1.14.41-1.33.29-1.63-.91-.19-.74-.14-1.61-.87-2.16-.37.47-1,.12-1.34.54l3.94-2.42a9.72,9.72,0,0,0-2.32.51c-.43.16-.92.22-1-.31a9,9,0,0,0-1-2.32l2.53-1a16,16,0,0,0-2.83-1.11.94.94,0,0,0-.5,0c-.92.33-1.91.23-2.83.57-.53-.88-1.1-1.75-2.22-1.56a2.47,2.47,0,0,0-2.12,1.8l.4.1a10.19,10.19,0,0,1-2.73-.5,2.59,2.59,0,0,1-1.92-2.13l.1,1.11a1.77,1.77,0,0,1-1.81.69c-.85-.1-1,.26-1,1a7.25,7.25,0,0,1-.56,2.53,1,1,0,0,1-1,.81,1,1,0,0,1-1.11-.71,6.49,6.49,0,0,1-.61-2.63l-.2.4a5.24,5.24,0,0,0-1.52.6c-.65.48-1.18,1.41-.88,2,.68,1.4-.27,2.31-1,3.21-.33.43-.77.85-1.15,1.26a1.48,1.48,0,0,0-.32,1.5c.22.66,0,1.35.18,2,.12.43-.41.67-.59.67-.67,0-1.27.32-1.92.34-1,0-1.42.5-1,1.4a8.18,8.18,0,0,1,.69,2.24c.24,1.4.07,1.62-1.42,1.71l-.28,0a1.18,1.18,0,0,0-.09,1.37,2.26,2.26,0,0,1-.25,2.53c-.33.41-.11.82-.18,1.23s-.13.8-.21,1.27a2.5,2.5,0,0,0,.71.65c.38.21.7.4.54,1a1.16,1.16,0,0,0,.87,1.42,2.55,2.55,0,0,1,1.31.9c.23.34.39.79.09,1.09-.53.55-.27.93.12,1.33a3.47,3.47,0,0,1,1.34,2.33.74.74,0,0,0,.88.61c.41-.06.66.23.91.5l.2.2a4.46,4.46,0,0,0,.81-.09,1.17,1.17,0,0,1,1.42.59,4.76,4.76,0,0,0,.5.81c.61.81.78.83,1.51.1a2,2,0,0,1,1.52-.7c.33,0,.46-.08.4-.41l1,1.22s-.09,0-.09,0a2.89,2.89,0,0,0,.4,2.32,1.41,1.41,0,0,0,1.91-.11,4.38,4.38,0,0,1,1.92-.7l.51-.1c-.41-.05-.53.14-.4.5a2.13,2.13,0,0,0,2.21,1.6c.63-1.86,2.21-1.27,3.62-1.21a7,7,0,0,0,.31,2.15c.47,1.14.78,1.23,1.84.61a13,13,0,0,1,3.21-.84,1.24,1.24,0,0,1,.22.73c0,.71.34,1.06,1,1.21a14.07,14.07,0,0,0,2.32.4c.51,0,.93,0,1.25-.59.41-.81,1-.7,1.48.19a4.4,4.4,0,0,0,.91,1.31,1.27,1.27,0,0,0,2.1-.31,8.51,8.51,0,0,0,.64-1.11c.51,0,.77.32,1.09.51,1.19.74,2,.5,2.63-.81a5.78,5.78,0,0,1,.82-1.4c.23-.26.52-.49.91-.12.75.72,2,.36,2.74,1.2.19.22.53-.08.79-.27,1-.77,1.16-.73,2,.24h3.13c.83.83.93,2.35,2.3,2.89.89-.24,1.32-1.08,2-1.63l-.64.5c.45,0,.71-.44,1.12-.54a6.63,6.63,0,0,1,.89,0,2.87,2.87,0,0,0,.57-.11.77.77,0,0,0,.45-.38.58.58,0,0,1,.72.31c-.23.42-.89,1.07-.58,1.62.2.35.66.26,1,.28s1,.22,1.34,0,.41-.66.59-.87.55-.7.94-.75c.27.38.43,1,.91,1.22a3.14,3.14,0,0,0,1.71.12,33.58,33.58,0,0,0,3.5-1.33,1.77,1.77,0,0,1,1.46-.08c.73.18.92.15,1.15-.56a4.34,4.34,0,0,1,1.3-1.74,5.72,5.72,0,0,1,1.8-1.41,5,5,0,0,1,1.44-.66,6.2,6.2,0,0,1,.93-.15c.18,0,.3.13.48.12a4.34,4.34,0,0,0,1.16-.36c.53-.16.77.17,1.27.4a3.78,3.78,0,0,0,2.24.72c.27-.05.41-.21.71-.13s.37.25.59.32c.5.17.72-.06,1.11-.29.57.34.9,1.05,1.48,1.43a3,3,0,0,0,1.19.62c.69.12,1.49.69,2.17.64a4.11,4.11,0,0,0,1.44-.64c.57-.51.09-1.14,0-1.73a1,1,0,0,1,.14-.75c.22-.21.42-.08.7,0a11.93,11.93,0,0,1,2.64.9c.39-.44,1.77.17,2.17.44.58.4.63,1.18,1.19,1.55a2.74,2.74,0,0,0,1.45.17c.37,0,.94-.05,1.16-.42s0-.87,0-1.15c.08-.51,0-1.79.71-1.64.29.05.5.36.65.58.35.52.48,1.16.87,1.69,1,1.37,2.6,2.06,3.8,3.21a6,6,0,0,0,1.15.93c.44.21.44.18.6-.22s.06-.58.36-.71.7.25.91.41a4.6,4.6,0,0,1,1,.92c.22.27.37.5.73.57s.6-.15.93-.28a3.52,3.52,0,0,1,.92-.13,11.23,11.23,0,0,0,1.87-.5,9.3,9.3,0,0,1,1.74-.63c1-.13,1.08.69,1.67,1.3s1.26,1.56,1.92,1.67a2.6,2.6,0,0,0,.8-2c0-.65.19-1.25.18-1.91a4.35,4.35,0,0,1,0-1.14c.8.47,1.23,3.33,2.64,2.66.52-.25.35-1,.31-1.45-.09-.84.43-1.06,1-1.62s.19-.81.25-1.47.64-1,1.2-.49.34,1,.87,1.35,1,.08,1.14-.57a14.71,14.71,0,0,1,.12-1.61c.17-.66.28-1.2.95-1.55.3-.16.48-.22.77,0s.2.47.45.51.45-.35.77-.31.4.25.52.4c.46.53.72,1.18,1.51.62a1,1,0,0,0,.39-.94,4.86,4.86,0,0,0-.43-1.19c-.15-.38-.51-.75-.52-1.16a5.9,5.9,0,0,1,2.27.27,5.79,5.79,0,0,0,2.33.25c-.36-.33-.72-.68-1.09-1a4.24,4.24,0,0,0-1.26-.67,23.64,23.64,0,0,1-2.25-1.13" transform="translate(-109.22 -54.1)"/><path class="cls-1" d="M223.63,268.55c.11.53-.37,1.1.19,1.63.34.33.45.85,1,1,.3.08.63.15.79,0,.37-.45.82-.8,1.22-1.21s.11-.75-.09-1.1-.79-.72-.81-1.31" transform="translate(-109.22 -54.1)"/><path class="cls-1" d="M488.05,192.86a5.23,5.23,0,0,0,2.68-.35" transform="translate(-109.22 -54.1)"/><path class="cls-1" d="M486.13,184.87" transform="translate(-109.22 -54.1)"/><path class="cls-1" d="M486.13,184.87" transform="translate(-109.22 -54.1)"/><path class="cls-1" d="M499.86,197.32" transform="translate(-109.22 -54.1)"/><path class="cls-1" d="M499.33,193.76c-.71.13-2.78.3-2.34,1.49s2.54.79,2.93,2.07c0-.63.61-1,.75-1.63a1.17,1.17,0,0,0-.46-1.38,4.39,4.39,0,0,0-1.38-.82c-1.74-.59-2.57-3.32-2.78-4.22a5,5,0,0,0-1.39-2.31,8.74,8.74,0,0,0-2.73-2.41,5.55,5.55,0,0,0-1.28-.17c-.42,0-.85-.18-1.28-.21-1.05-.06-2.06.65-3.08.59a6.53,6.53,0,0,1-1.4-.76c-.4-.44-2.86-3.17-3.16-3.58-.52-.69-1.21-1.21-1.74-1.89-.12-.15-.46-.87-.64-.92-.42-.12-.51.46-.58.77a19.42,19.42,0,0,0-.34,2.27,10.13,10.13,0,0,1-1,3.19,9,9,0,0,0-.21,5.59,8.08,8.08,0,0,0,1.59,2.85,24.63,24.63,0,0,0,1.9,2.62" transform="translate(-109.22 -54.1)"/><path class="cls-1" d="M499.92,197.32c0,1.39-1.27,1.52-1.88,2a4,4,0,0,1-2.2.9c-1.79.29-3.56-.66-5.26-1.07" transform="translate(-109.22 -54.1)"/><path class="cls-1" d="M488.49,184a24.33,24.33,0,0,1,.77-2.65c.44-1.05,1.28-1.82,1.8-2.82a25.26,25.26,0,0,1,1.4-2.36c.35-.53,1.17-1.18,1.35-1.76.37.18.38,1.54.48,2a11.33,11.33,0,0,1,.53,2.65c0,2.68-.18,5.35-.05,8" transform="translate(-109.22 -54.1)"/><path class="cls-1" d="M480.6,195.33c-.79,2.57.36,5.53-.24,8.16a4,4,0,0,1-1,1.81c-.53.58-.82,1.26-1.29,1.88-1.08,1.42-2.59,2.56-3.73,3.94-.82,1-1.46,2-2.19,3a15,15,0,0,0-1.21,1.66c-.53,1-.84,2.08-1.33,3.11" transform="translate(-109.22 -54.1)"/><path class="cls-1" d="M493.91,200.64c0,4.78,1.18,9.57,1.93,14.31" transform="translate(-109.22 -54.1)"/><path class="cls-1" d="M487.41,210a32.47,32.47,0,0,0,1.94,4.24" transform="translate(-109.22 -54.1)"/><path class="cls-1" d="M492.19,213.63a9.8,9.8,0,0,0,.38-3.76" transform="translate(-109.22 -54.1)"/><path class="cls-1" d="M483.24,198.87a8.15,8.15,0,0,0-.81,2.24c.39,0,1.11-.91,1.46-.67s0,1.74.07,2.12c.56-.07.78-.84,1.26-1.1.39.4,0,1.13.41,1.51a2.5,2.5,0,0,0,.89-.66" transform="translate(-109.22 -54.1)"/><path class="cls-1" d="M492.3,220.28c-.46,2.81-2.48,4.77-4.78,6.28" transform="translate(-109.22 -54.1)"/><path class="cls-1" d="M486.77,222.91c-.08.9-.21,1.81-.33,2.71a17.75,17.75,0,0,0-.23,3,23,23,0,0,0,1,4.7" transform="translate(-109.22 -54.1)"/><path class="cls-1" d="M477.59,218.78a5.48,5.48,0,0,0,.05,1.62c.18.49.32.24.59.48.52.45.53,1.33.92,2,.76,1.21,1,2.92,1.65,4.25.78,1.61,1.94,3,2.8,4.6,1.11,2,1.6,4.3,2.47,6.42" transform="translate(-109.22 -54.1)"/><path class="cls-1" d="M481.32,190.81c-2-2.14-.32-5.73-1-8.51" transform="translate(-109.22 -54.1)"/><path class="cls-1" d="M491.65,182.51a4.18,4.18,0,0,1,.49-1.47c.15-.27.25-.74.45-.92" transform="translate(-109.22 -54.1)"/><path class="cls-1" d="M495.52,191A1.25,1.25,0,0,1,496,191" transform="translate(-109.22 -54.1)"/></svg>