<svg id="Capa_1" data-name="Capa 1" xmlns="http://www.w3.org/2000/svg" viewBox="0 0 349.79 237.47"><defs><style>.cls-1,.cls-2{fill:none;stroke:#282828;stroke-linejoin:round;stroke-width:1.6px;}.cls-1{stroke-linecap:round;}</style></defs><path class="cls-1" d="M92.89,61.54c1.2-.2,3.16-2.64,3.29-3.82.07-.6-.32-.88-.75-1.17-1.53-1-3-2.16-4.5-3.31-1.14-.89-2.6-1.44-3.77-2.39-2.3-1.88-5-3.14-7.35-5-1.24-1-2.74-1.55-3.88-2.67S73.26,41.6,72,40.64c-2.16-1.7-4.78-2.68-6.9-4.43-1.88-1.56-4.3-2.17-6.25-3.6a11.91,11.91,0,0,0-3.18-1.71,1.44,1.44,0,0,0-1.81.33,16.58,16.58,0,0,0-1.6,2.12c-.38.66-.36,1,.32,1.52a88.17,88.17,0,0,0,7.63,5.39c1.3.79,2.5,1.73,3.72,2.63,2.66,2,5.53,3.65,8.24,5.54,3.19,2.24,6.62,4.06,10,6,2.15,1.27,4.09,2.9,6.17,4.3a36.33,36.33,0,0,0,4.55,2.77" transform="translate(-51.25 -10.73)"/><path class="cls-1" d="M74.12,34.35A6.84,6.84,0,0,0,72,37c-.36.82-.78,1.62-1.16,2.43" transform="translate(-51.25 -10.73)"/><path class="cls-1" d="M99.16,51.83a5.64,5.64,0,0,0-1,.93c-.72.82-2.53,2.7-2.52,3.77" transform="translate(-51.25 -10.73)"/><path class="cls-1" d="M82,39.92a7,7,0,0,0-2.13,2.44c-.38.78-.84,1.52-1.26,2.28" transform="translate(-51.25 -10.73)"/><path class="cls-1" d="M87.59,44.27c-1.65,1-2.42,2.64-3.28,4.24" transform="translate(-51.25 -10.73)"/><path class="cls-1" d="M59.94,27c-1.25,1.22-1.69,2.94-2.64,4.34" transform="translate(-51.25 -10.73)"/><path class="cls-1" d="M93.74,49.42A17.14,17.14,0,0,0,91,53.06" transform="translate(-51.25 -10.73)"/><path class="cls-1" d="M65.66,31.13c0,.25-1.23,2.86-1.8,3.92" transform="translate(-51.25 -10.73)"/><path class="cls-1" d="M72.78,103.1a5.49,5.49,0,0,0-4-1.38" transform="translate(-51.25 -10.73)"/><path class="cls-1" d="M63.7,116.65a16.26,16.26,0,0,1-2.44-1.79,4.21,4.21,0,0,0-2.64-.63" transform="translate(-51.25 -10.73)"/><path class="cls-1" d="M63.7,108.06a7.07,7.07,0,0,1,4.67,2.12" transform="translate(-51.25 -10.73)"/><path class="cls-1" d="M76.51,97.11a3.37,3.37,0,0,1-.31-.21,10.19,10.19,0,0,0-4.56-2.33" transform="translate(-51.25 -10.73)"/><path class="cls-1" d="M88.71,82.28c-1.16-.71-2.36-1.37-3.47-2.15-.27-.19-.58,0-.77-.29" transform="translate(-51.25 -10.73)"/><path class="cls-1" d="M92.72,76.2a5.2,5.2,0,0,1-.93-1.27,3.08,3.08,0,0,0-2.47-1.44" transform="translate(-51.25 -10.73)"/><path class="cls-1" d="M79.94,87.5a2.4,2.4,0,0,1,1.28.73,9.12,9.12,0,0,0,1.9,1.49" transform="translate(-51.25 -10.73)"/><path class="cls-1" d="M78.52,107.31c-.93,1.28-1.84,2.59-2.72,3.91s-1.84,2.57-2.71,3.88a31,31,0,0,1-3.28,4.12c-.76.81-1.27,1.76-2,2.58-.48.56-4.42-3.42-4.24-3.62,2.2-2.33,13.45-17.85,13.66-20,0,0,3.47-4.09,4.45-5.3s2-2.71,3-4.05,4.16-6.16,4.82-6.74c.38-.35,3.48-5.46,5.29-7.21a8.08,8.08,0,0,1,1.37,0,2.8,2.8,0,0,1,2.23,1.36c.12.19.29.31.53.16l1.48,1.22a6.35,6.35,0,0,0-2.29,2.46,46.25,46.25,0,0,1-3.94,5.29c-2.24,2.82-4,6-6,9A42.65,42.65,0,0,1,85,98.43c-1.43,1.75-2.56,3.7-3.94,5.48-.86,1.12-1.72,2.25-2.56,3.4" transform="translate(-51.25 -10.73)"/><path class="cls-1" d="M134.63,89.5a8.33,8.33,0,0,0-2.56,2.66" transform="translate(-51.25 -10.73)"/><path class="cls-1" d="M146.6,96.63c-1.12-.55-9.63-6-10.62-6.79-.39-.32-8-4.79-8.55-5.09a39.29,39.29,0,0,0-4.08-3.13,35.45,35.45,0,0,1-5.26-3.56,16.17,16.17,0,0,0-3.61-2.42,12.19,12.19,0,0,1-2.75-1.8c-.24-2.28,2.31-4.5,3.82-3.41,1.87,1.34,10.63,6.56,12.46,7.8,1.63,1.11,3.29,2.21,4.92,3.31,2.72,1.84,5.55,3.52,8.36,5.21,2.34,1.42,2.05,1.88,4.4,3.27" transform="translate(-51.25 -10.73)"/><path class="cls-1" d="M156.86,102.66" transform="translate(-51.25 -10.73)"/><path class="cls-1" d="M127.09,84.75c-.83.84-1.92,1.41-2.36,2.63-.18.5-.84.45-1.35.44" transform="translate(-51.25 -10.73)"/><path class="cls-1" d="M120.52,80.62a4.92,4.92,0,0,1-1.36.78,3.07,3.07,0,0,0-1.71,2.29" transform="translate(-51.25 -10.73)"/><path class="cls-1" d="M113.25,76.07a5.38,5.38,0,0,1-1.36.79,3,3,0,0,0-1.71,2.28" transform="translate(-51.25 -10.73)"/><path class="cls-1" d="M111.9,55.51a8.23,8.23,0,0,0,2-2.32c1.24-1.81,2.61-3.53,3.9-5.31a59.07,59.07,0,0,1,4.8-6,17.89,17.89,0,0,0,2.07-3c.71-1.12,1.54-2.17,2.31-3.21,2.13-2.87,8.61-10.76,9.33-11.94,1.71-2.78,3.68-5.39,5.44-8.13,1-1.5.94-1.75-.53-2.77-.35-.24-.62-.58-1-.83a1.39,1.39,0,0,0-2.21.21c-.86,1-1.65,2.11-2.45,3.17-1.45,1.94-2.8,4-4.37,5.81a59.12,59.12,0,0,0-4.28,6c-1.23,1.88-2.49,3.72-3.87,5.48-1.09,1.39-2,2.92-3.07,4.31-.79,1-1.41,2.26-2.22,3.31-1.47,1.92-3.13,3.68-4.51,5.65-1.2,1.72-4,5.88-4.15,6.24-.31.61-.62,1.27,0,1.89a5.44,5.44,0,0,0,2.75,1.49" transform="translate(-51.25 -10.73)"/><path class="cls-1" d="M142.44,15.06c.22,1,3.8,3.42,3.89,3.8" transform="translate(-51.25 -10.73)"/><path class="cls-1" d="M134.25,27.44c.82.48,1.26,1.35,2,1.92a5.11,5.11,0,0,0,1.17.51" transform="translate(-51.25 -10.73)"/><path class="cls-1" d="M139.76,21c.78,1,1.34,2.22,2.54,2.86" transform="translate(-51.25 -10.73)"/><path class="cls-1" d="M123.66,41.63a14,14,0,0,0,2.54,2.44" transform="translate(-51.25 -10.73)"/><path class="cls-1" d="M113.7,54.56c.71.63,1.07,1.65,2.12,1.9" transform="translate(-51.25 -10.73)"/><path class="cls-1" d="M128.57,33.54a14.37,14.37,0,0,0,3.14,3.33" transform="translate(-51.25 -10.73)"/><path class="cls-1" d="M117.57,48.23c.81.94,3.15,2.56,3.55,3.47" transform="translate(-51.25 -10.73)"/><path class="cls-1" d="M102.93,62.73a3.56,3.56,0,0,0-1.73,1.45c-.52.84.09,1.78.61,2.47a2.38,2.38,0,0,0,1.85,1.11,3,3,0,0,0,2.67-1.23,4,4,0,0,0,.4-1.69,1.33,1.33,0,0,0-.63-1.31C105.23,62.91,104,62.24,102.93,62.73Z" transform="translate(-51.25 -10.73)"/><path class="cls-1" d="M102.78,67.53c-.84,1.26-1.63,2.55-2.49,3.79s-1.49,2.43-2.35,3.58c-.12.15-.25.29-.38.43" transform="translate(-51.25 -10.73)"/><path class="cls-1" d="M110,54.69c-.29.62-.63,1.22-.91,1.85s-.77,1.52-1.16,2.28c-.56,1.07-1,2.17-1.6,3.24-.17.33-.34.65-.53,1" transform="translate(-51.25 -10.73)"/><path class="cls-1" d="M106.73,66.43a17.28,17.28,0,0,1,3.84,2.48,26.79,26.79,0,0,0,2.42,2" transform="translate(-51.25 -10.73)"/><path class="cls-1" d="M95.08,59.81c1.61,1,3.26,1.87,4.87,2.83l1.66,1" transform="translate(-51.25 -10.73)"/><path class="cls-1" d="M78.34,107.63c-.37,2.39-.67,4.23-1.06,6.61-.44,2.61-.58,5.26-1.13,7.85a104.36,104.36,0,0,0-1.48,12.71c-.21,2.41-.65,4.8-.86,7.21a21.45,21.45,0,0,0-.07,5.19,22.77,22.77,0,0,1,0,3.6c0,2.65-.07,5.3.12,7.94" transform="translate(-51.25 -10.73)"/><path class="cls-1" d="M81.26,83.53a40.65,40.65,0,0,0-.71,4.77,26.92,26.92,0,0,0-.49,2.85c-.08,1.33-.16,2.67-.25,4" transform="translate(-51.25 -10.73)"/><path class="cls-1" d="M73.9,153.4c17.06,4.7,37.26,6.39,54.69,3.34" transform="translate(-51.25 -10.73)"/><path class="cls-1" d="M134.89,82.82a8.69,8.69,0,0,1,3.36-.46c1.55-2.31.08-5.52-.73-8" transform="translate(-51.25 -10.73)"/><path class="cls-1" d="M94.05,85.59a71.85,71.85,0,0,0,13,.3c4.63-.73,9.55.65,14-.67a26,26,0,0,0,6.19-.68" transform="translate(-51.25 -10.73)"/><path class="cls-1" d="M82.6,75.23c-.76,1.68-1.67,6.14-1.37,8.07q3.17.77,6.4,1.35" transform="translate(-51.25 -10.73)"/><path class="cls-1" d="M122.79,41.7c1.21,1.49,2.46,2.95,3.65,4.45a15.3,15.3,0,0,0,2.22,2.33,29.19,29.19,0,0,1,5,5.47c2.2,3,4.38,6.12,6.8,9,1.54,1.82,3.9,4.76,4.73,7.07a.87.87,0,0,1-.49,1.27,18.73,18.73,0,0,1-4.42,1.6c-1.45.32-7.07,1.77-7.71,1.92a40.86,40.86,0,0,1-7.57.55q-.48,0-1,0" transform="translate(-51.25 -10.73)"/><path class="cls-1" d="M91.21,53.28c1.88-2,3.74-4.12,5.69-6.1.91-.93,1.89-1.78,2.86-2.65,1.19-1.06,2.21-2.32,3.38-3.41,2.19-2,4.39-4.08,6.73-5.95a7.93,7.93,0,0,1,2.74-1.4,5.45,5.45,0,0,1,3.84,1,36.21,36.21,0,0,1,3.08,2.86" transform="translate(-51.25 -10.73)"/><path class="cls-1" d="M94.08,75.7a14.37,14.37,0,0,0-3.14.25,14.88,14.88,0,0,1-6.76-.56,7.77,7.77,0,0,0-1.58-.16c-.66,0-6.14-.44-6.07-2l1.11-3c.17-.77,4.12-6,5.81-7.88,1.29-1.42,2.44-2.95,3.63-4.44" transform="translate(-51.25 -10.73)"/><path class="cls-1" d="M114.75,76c-2.53.13-5.06,0-7.59,0-.91,0-5.83,0-9-.09" transform="translate(-51.25 -10.73)"/><path class="cls-1" d="M73.7,147c1.06,1.67,4.88.94,6.6,1.83,5.3,1.21,11,2.64,16.41,2.31,9.48,1.6,21.84,1.29,31.42-.05" transform="translate(-51.25 -10.73)"/><path class="cls-1" d="M138.79,85.31a17.66,17.66,0,0,0-.22-1.78,4.76,4.76,0,0,0-.14-.57" transform="translate(-51.25 -10.73)"/><path class="cls-1" d="M141.81,106.66c-.17-2.46-1.06-9.09-1.23-10.1-.26-1.56-.52-2.53-.69-4.1" transform="translate(-51.25 -10.73)"/><path class="cls-1" d="M105.73,160.33c1.77-.94,3.07-.19,3.06,1.8a13,13,0,0,1-.1,2.65" transform="translate(-51.25 -10.73)"/><path class="cls-1" d="M103.29,165.73a1.84,1.84,0,0,0-1,0,2.47,2.47,0,0,1-3-1.78c-.16-.42-.44-.11-.65-.21" transform="translate(-51.25 -10.73)"/><path class="cls-1" d="M87.93,159.91a10,10,0,0,1,.19,1.8c0,.54-.09,1.17-.82,1.39a1.57,1.57,0,0,0-1.07,1.47" transform="translate(-51.25 -10.73)"/><path class="cls-1" d="M124.16,166.26c0,.74,0,1.49,0,2.23,0,.4,0,.92.61,1.06" transform="translate(-51.25 -10.73)"/><path class="cls-1" d="M116.11,167.32l.1,3.29" transform="translate(-51.25 -10.73)"/><path class="cls-1" d="M119.5,160.75c.14,1.1-.29,2.19,0,3.29" transform="translate(-51.25 -10.73)"/><path class="cls-1" d="M121.19,165.52c.81.18,1.64.31,2.43.55a.89.89,0,0,0,1.23-.55" transform="translate(-51.25 -10.73)"/><path class="cls-1" d="M113.14,166.79c1.57.11,3.16.57,4.66-.31" transform="translate(-51.25 -10.73)"/><path class="cls-1" d="M81,160.12c1.07.85,2.18.5,3.29.11" transform="translate(-51.25 -10.73)"/><path class="cls-1" d="M95.24,85.71c.45,2.64.09,5,0,7.52-.14,3.62,0,7.34-.33,11.06a152,152,0,0,0-.93,20.17c0,8.43,0,17,1.12,25.29" transform="translate(-51.25 -10.73)"/><path class="cls-1" d="M102,86.39c.42,1.57-.19,3.07,0,4.66.48,2.61-.51,5.23-.53,7.87-.4,5.59-.6,11.15-.72,16.74.43,11.64-1.14,23.49,0,35" transform="translate(-51.25 -10.73)"/><path class="cls-1" d="M82.25,102.3c-.12,1.25-.23,2.22-.27,2.53a22.14,22.14,0,0,1-.13,4.39,191.5,191.5,0,0,1-2.91,20c-1.12,6.78-2,11.45-1.8,18.35" transform="translate(-51.25 -10.73)"/><path class="cls-1" d="M84.31,85.68c-.2,1-.5,3-.78,4.76" transform="translate(-51.25 -10.73)"/><path class="cls-1" d="M121.53,85.68c1.49,10.38,1.24,19,3,28.43.93,6.22.91,12.54,1.79,18.78,1,7.42,3.28,34.87,3.06,38.2" transform="translate(-51.25 -10.73)"/><path class="cls-1" d="M127.63,86c3.64,16.55,2.1,18.29,4.86,38.56" transform="translate(-51.25 -10.73)"/><path class="cls-1" d="M131.87,116.56c1-.15,2-.28,3-.44a22.26,22.26,0,0,0,2.48-.18" transform="translate(-51.25 -10.73)"/><path class="cls-1" d="M100.84,118.38c.55.05,1.09,0,1.66,0,.92,0,1.87,0,2.79,0,1.3-.09,2.62-.23,3.92-.22s2.33-.13,3.53-.12c1.5,0,3-.17,4.5-.27,2.59-.17,5.17-.25,7.72-.56" transform="translate(-51.25 -10.73)"/><path class="cls-1" d="M82.18,115.52c.68.16,1.33.27,2,.47s1.4.44,2.14.61,1.77.31,2.64.49a39.28,39.28,0,0,0,5,.65" transform="translate(-51.25 -10.73)"/><path class="cls-1" d="M100.8,124.49l.47,0a37.06,37.06,0,0,0,3.8,0c.83-.09,1.66-.1,2.49-.18.67-.06,1.29-.14,2-.16,1.43,0,2.82,0,4.25-.14.81-.07,1.65-.08,2.44-.21.61-.1,1.2-.18,1.81-.25.85-.09,4.89-.22,7.44-.33" transform="translate(-51.25 -10.73)"/><path class="cls-1" d="M80.8,120.77A42.64,42.64,0,0,0,87,123c.61.15,3.75.52,6.93.86" transform="translate(-51.25 -10.73)"/><path class="cls-1" d="M120.11,61.51a2.44,2.44,0,0,1,1.62-.72c.6,0,.92.39,1.43.65a2.55,2.55,0,0,0,2.51-.64,4,4,0,0,1,.34-.37c.25-.18.51-.15.74-.38s.15-.41.29-.53.21-.09.47-.07.31.1.55.06a6,6,0,0,0,.83-.23,2.62,2.62,0,0,0,1.06-.81" transform="translate(-51.25 -10.73)"/><path class="cls-1" d="M84.49,66c-.21.22-1.17,1.18-1.11,1.62.1.79,1.44-.18,1.66-.33.47-.31.87-.69,1.41-.33s.44,2,1.13,2.22c.63-.44,1.16-1,1.78-1.43a2.08,2.08,0,0,1,1-.53c.42,0,.79.36,1.07.6a3.26,3.26,0,0,0,1.48.86" transform="translate(-51.25 -10.73)"/><path class="cls-1" d="M126.91,56.5c.34.73.72,1.43,1.08,2.15" transform="translate(-51.25 -10.73)"/><path class="cls-1" d="M127.27,64c.2.33,1.36,2,1.06,2.52-.15.27-.66.17-.91.17a5.63,5.63,0,0,0-1.83.09c-.72.23-1,1.11-1.71.52-.37-.3-.54-.65-1.07-.51s-.71.72-.91,1.15" transform="translate(-51.25 -10.73)"/><path class="cls-1" d="M134.43,64.91c.34.34,1.37,1.06,1.46,1.58s-1.59.8-2,.93c-1,.36-.85.89-.67,1.76a13.33,13.33,0,0,1-1.39.21,5,5,0,0,1-1.2.18" transform="translate(-51.25 -10.73)"/><path class="cls-1" d="M121.23,123.43a93.86,93.86,0,0,1-9.87,13c-3.57,3.94-6.36,6.61-9.86,9.89" transform="translate(-51.25 -10.73)"/><path class="cls-1" d="M103.91,151.3a39.3,39.3,0,0,1,6.31-6.65c2.22-2,5.17-4.33,6.58-6.87,1.5-2.11,8.4-9,8.92-11.11" transform="translate(-51.25 -10.73)"/><path class="cls-1" d="M124.43,113.34c-4.14-4.73-7.7-10.31-10.45-13.61-1.09-1.3-3.12-3.77-3.69-5.45-1.59-2.65-2.11-5.88-4.5-8.16" transform="translate(-51.25 -10.73)"/><path class="cls-1" d="M120.83,117.23c-3.56-3.86-8.11-8.55-10.76-12.39a88.56,88.56,0,0,1-4.28-8,27.18,27.18,0,0,1-3.29-6" transform="translate(-51.25 -10.73)"/><path class="cls-1" d="M94,146.35c-2.43-2.68-4.83-8-6.15-11.31-2.41-4-3.57-8.65-4.85-13.21" transform="translate(-51.25 -10.73)"/><path class="cls-1" d="M79.75,127.74c1.84,4.54,3.32,9.26,5.35,13.7,1.34,2.16,4.67,7.6,4.85,8.31" transform="translate(-51.25 -10.73)"/><path class="cls-1" d="M83.42,115.43c4.4-5.42,7.91-13.5,11.27-19.45" transform="translate(-51.25 -10.73)"/><path class="cls-1" d="M82.7,108.61c1.6-2.87,5.11-8.72,6.85-11.5,1.33-2.13,4.92-6.45,5.91-8.77" transform="translate(-51.25 -10.73)"/><path class="cls-1" d="M56.44,173.79C58,171.37,58.76,168.58,60,166c.56-1.16.93-1.05,2.17-.94,1.93.15,3.79-.54,5.68-.82a13.38,13.38,0,0,1,2.25-.26c.52,0,1,.19,1.51.23a12.15,12.15,0,0,0,2.08-.23,13.7,13.7,0,0,1,2.48.22c1.37.13,2.65,0,4,0a9.1,9.1,0,0,1,2,0c.09.54-.68,1.32-.94,1.73a8.5,8.5,0,0,0-.8,2,8.05,8.05,0,0,1-1,2,4.89,4.89,0,0,0-.82,1.76" transform="translate(-51.25 -10.73)"/><path class="cls-1" d="M83.22,164.7c0,1.77,0,3.52.12,5.29s0,3.86.64,5.57" transform="translate(-51.25 -10.73)"/><path class="cls-1" d="M60.23,166.21c.15,1.09.16,2.14.29,3.22.11.84.41,1.65.57,2.47a41.33,41.33,0,0,1,.66,4.42" transform="translate(-51.25 -10.73)"/><path class="cls-1" d="M77.16,173.29a3.38,3.38,0,0,1,1.26-.26" transform="translate(-51.25 -10.73)"/><path class="cls-1" d="M78.67,175.06h.76" transform="translate(-51.25 -10.73)"/><path class="cls-1" d="M78.17,177.33l.75,1.51" transform="translate(-51.25 -10.73)"/><path class="cls-1" d="M74.38,177.83v1.27" transform="translate(-51.25 -10.73)"/><path class="cls-1" d="M71.85,177.33" transform="translate(-51.25 -10.73)"/><path class="cls-1" d="M69.07,176.82" transform="translate(-51.25 -10.73)"/><path class="cls-1" d="M66,178.09a3.19,3.19,0,0,0-.25,1" transform="translate(-51.25 -10.73)"/><path class="cls-1" d="M60.48,178.84a6.2,6.2,0,0,1-1,1.27" transform="translate(-51.25 -10.73)"/><path class="cls-1" d="M59.22,177.08l-.25.25" transform="translate(-51.25 -10.73)"/><path class="cls-1" d="M64.47,174c.29.27.78.78,1.25.55a.71.71,0,0,0,.34-.76c-.25-1-1.4-.8-2.07-.43" transform="translate(-51.25 -10.73)"/><path class="cls-1" d="M71.69,173.75a2,2,0,0,0,.5,1c.21.16.67.39.9.14s-.15-.82-.31-1a1,1,0,0,0-.77-.17" transform="translate(-51.25 -10.73)"/><path class="cls-1" d="M53.54,172.66a21.55,21.55,0,0,0,1.27-2.17c.6-1.3,1.08-2.63,1.76-3.89a26.84,26.84,0,0,1,1.27-2.44c.27-.41.33-.9.58-1.32a2.91,2.91,0,0,1,.47-.69c.21-.14.39,0,.59.06A9,9,0,0,0,61,162a4.27,4.27,0,0,0,1.13,0,9.1,9.1,0,0,1,2.07-.32c.67,0,1.3-.13,2-.13a9.46,9.46,0,0,0,1.89-.32,8.88,8.88,0,0,1,1.77-.19c.68,0,1.35.07,2,.07a15.86,15.86,0,0,1,2.29.05c.54.08,1.09,0,1.63.07a14.17,14.17,0,0,0,2.91.32c.86,0,1.73,0,2.59,0a3,3,0,0,1,1.43.35c.27.13.34.16.41.48a7.5,7.5,0,0,1,.12,1.57" transform="translate(-51.25 -10.73)"/><path class="cls-1" d="M65.66,165.71a7.1,7.1,0,0,0-.63,2.4" transform="translate(-51.25 -10.73)"/><path class="cls-1" d="M69.58,164.57a11.36,11.36,0,0,0-.89,3" transform="translate(-51.25 -10.73)"/><path class="cls-1" d="M78.55,165.33c-.23.71-.37,1.45-.64,2.15" transform="translate(-51.25 -10.73)"/><path class="cls-1" d="M74.76,165.58a4.59,4.59,0,0,0-.38,1.26" transform="translate(-51.25 -10.73)"/><path class="cls-1" d="M69.37,182.23a1.56,1.56,0,0,1,.48,0,.73.73,0,0,1,.32.09,1.08,1.08,0,0,1,.4.58,2.63,2.63,0,0,1,.08.3c0,.05.06.09.08.14a1,1,0,0,1,0,.16,1.11,1.11,0,0,0,.12.27c.11.17.16.38.28.54a1.7,1.7,0,0,0,.22.24s.09.1.14.14a1.37,1.37,0,0,0,.35.15l.28.1a1.45,1.45,0,0,0,.36,0c.12,0,.23-.05.35-.06a1.62,1.62,0,0,0,.22,0c.13,0,.25,0,.38-.05h.2s.14-.06.18-.05c.2,0,.16.58.16.68a1.23,1.23,0,0,1-.29.9,3.55,3.55,0,0,1-.31.23,2.88,2.88,0,0,1-.38.22,4.46,4.46,0,0,1-.5.22c-.14,0-.26.11-.4.14a2.89,2.89,0,0,1-.83,0,1,1,0,0,1-.67-.47c-.07-.09-.15-.17-.22-.27a2.15,2.15,0,0,1-.19-.37,1,1,0,0,1-.1-.29,3.19,3.19,0,0,1-.06-.53c0-.08,0-.16,0-.24s0-.13,0-.2,0-.27,0-.4a1,1,0,0,0-.06-.18,1.89,1.89,0,0,1,0-.23,1,1,0,0,0-.15-.41,1.14,1.14,0,0,0-.3-.23,2.69,2.69,0,0,0-.27-.2A.31.31,0,0,0,69,183c-.12,0-.13,0-.13-.13s.18-.37.35-.5" transform="translate(-51.25 -10.73)"/><path class="cls-1" d="M72.27,187.07c0,.17,0,.35.07.52a3.12,3.12,0,0,1,.09.44" transform="translate(-51.25 -10.73)"/><path class="cls-1" d="M71.41,187.39a2,2,0,0,0-.22.57" transform="translate(-51.25 -10.73)"/><path class="cls-1" d="M268.08,143.3c-2.71-1.16-11.64.65-14.28.82-5.45.35-10.87,1.54-16.27,2.52-4.77.86-9.57,1.45-14.33,2.44-3.61.76-7.56.6-11.23,1.28-10.92,2-27.66,3.21-39.87,5.22" transform="translate(-51.25 -10.73)"/><path class="cls-1" d="M166.64,150.66a18.56,18.56,0,0,1-.08,2.24,72.11,72.11,0,0,0,.19,9.18c.31,6.53-.83,12.86-.65,19.36,0,.8-.38,7.26-.13,8" transform="translate(-51.25 -10.73)"/><path class="cls-1" d="M273.39,131.66a5.13,5.13,0,0,1,.45,2.67c-1,7.16,1,41.52,1.23,48.78" transform="translate(-51.25 -10.73)"/><path class="cls-1" d="M135.8,128.27c.12,7.42-.07,17.91-.25,25.33-.1,3.72-.06,19.41-.46,23.05" transform="translate(-51.25 -10.73)"/><path class="cls-1" d="M152.8,92.15c3.3,0,6.15-1.85,9.31-2.29,6.94-1,13.55-3.34,20.55-4.28,5-.68,10-1.37,15-2.25,7-1.22,14.19-.7,21.23-1.81,0,0,11.54-.25,16.61-1,0,0,7.32-.53,10.62-.79,2.36-.18,4.66-1,6.95-1.23a17.25,17.25,0,0,0,5.62-2l2.09-1.23c.22-2.71-.57-3.94-1.81-6.22-.62-1.14-2-6.38-2.7-7.45a8.06,8.06,0,0,1,4.26-3.6c.82,1.94.25,4.17,1,6.12.42,1,2.43,6.22,2.43,6.22.14-2.68,1.82-4.91,2.52-6.51.5-1.17,1-3.6,2.52-4.42,1.22-.33,1.65.65,2.54,1.23-1.4,4.2-1.86,8.31-4.11,12-2,3.27-3.14,8.22-1.88,10.56" transform="translate(-51.25 -10.73)"/><path class="cls-1" d="M263.29,78.57c-6.43,4.72-10.64,5.77-16.22,5.87-3.77.07-7.44,1-11.3.9a48,48,0,0,0-8.28.84,37,37,0,0,1-7.66.55c-7.9-.37-15.52,1.62-23.24,2.73-9.3,1.33-18.54,3-27.9,4-5,.52-10.94,2.62-16.41.41" transform="translate(-51.25 -10.73)"/><path class="cls-1" d="M263.29,78.57c4.25,8,7.13,16.51,12.5,24.06a86.05,86.05,0,0,1,9.59,19.07c.93,2.45,2.67,4.61,2.93,7.32h0a2.17,2.17,0,0,1-3.48,1.94,26.32,26.32,0,0,0-3.44-2.38,4.73,4.73,0,0,0-5.63.46c-1.72,1.42-3.2,2.92-5.7,2.63a1.43,1.43,0,0,0-.94.21l-.38.08c-1.66-1.37-3-1.18-4.69.3-3.52,3.17-7.79,3.1-11.88,1.61a9.15,9.15,0,0,0-7.67.44c-2.74,1.35-5.4,2.43-8.56,2.22a15.4,15.4,0,0,0-8.79,2.85c-4.3,3.24-8.68,4.28-13.9,2-5-2.22-10.15-.58-15.26.21-3.44.54-7.1,2-10.32-.42-.77-.58-3.49,1.82-4.23,2.43-1.94,1.59-7.12,2.32-9.55,2.4" transform="translate(-51.25 -10.73)"/><path class="cls-1" d="M270.07,184.31c-.9-3.19-1.74-36.47-1.68-39.69.07-3.76,0-7.52,0-11.29a1.69,1.69,0,0,1,.7-1.41" transform="translate(-51.25 -10.73)"/><path class="cls-1" d="M181.73,104.11c-3.47-.08-5.5,2.12-7.17,4.55-1.66.49-2.47-1.08-4.31-1.41-.54.49-1.06,2-2.47,1.51" transform="translate(-51.25 -10.73)"/><path class="cls-1" d="M267.41,147.28c-4.34.53-13.05,1.84-13.05,1.84-27.87,2.19-54.63,8.95-82.24,10.74" transform="translate(-51.25 -10.73)"/><path class="cls-1" d="M250.72,118h-6.64" transform="translate(-51.25 -10.73)"/><path class="cls-1" d="M260.8,112.39c-1.55,1.27-3.57,1.25-5.31,2" transform="translate(-51.25 -10.73)"/><path class="cls-1" d="M270.07,122.71c-1.41.22-2.54-1.15-4-.67" transform="translate(-51.25 -10.73)"/><path class="cls-1" d="M238.85,100.12c-1.38.08-2.39-2-4-.66" transform="translate(-51.25 -10.73)"/><path class="cls-1" d="M203.65,132c-.71.81-1.4,1.64-2.66,1.33" transform="translate(-51.25 -10.73)"/><path class="cls-1" d="M240.18,115.48c-.36-.4-.7-.82-1.33-.67" transform="translate(-51.25 -10.73)"/><path class="cls-1" d="M266.08,113.39c-.35.4-.69.82-1.33.66" transform="translate(-51.25 -10.73)"/><path class="cls-1" d="M241.51,100.12c-.36.4-.7.82-1.33.67" transform="translate(-51.25 -10.73)"/><path class="cls-1" d="M221.63,165.84c-1.79,0-3.59-.12-5.26.68-.94.46-2.94,1.38-3.12,2.55-.22,1.47,1.63,1.8,2.74,2.1a13.69,13.69,0,0,0,5.12.62c1.87,0,6,0,7.68-1.14,1.16-.76,2.66-1.61,1.53-2.73-1.44-1.42-2.8-1.52-4.36-1.81A22.4,22.4,0,0,0,221.63,165.84Z" transform="translate(-51.25 -10.73)"/><path class="cls-1" d="M230.72,168.82c.52.56.5,1.82.75,2.54.19.56.42,1.09.61,1.64a18.37,18.37,0,0,1,.78,3.82,40.17,40.17,0,0,1,0,9.8,58.2,58.2,0,0,1-2.13,7.31c-.17,1.17-2.18,2.09-3.11,2.54-1.67.8-3.47.68-5.26.68a23.38,23.38,0,0,1-4.34-.26c-1.55-.3-2.91-.39-4.36-1.82a7.54,7.54,0,0,1-.69-.89,21.58,21.58,0,0,1-2.06-5.31,45.84,45.84,0,0,1-.49-8.11,23.82,23.82,0,0,1,1.23-6.64c.41-1.16.89-4.07,1.63-5" transform="translate(-51.25 -10.73)"/><path class="cls-1" d="M214.87,169.92c3.92-3.68,11-3.1,14.68-.12" transform="translate(-51.25 -10.73)"/><path class="cls-1" d="M212.21,171.94a11.09,11.09,0,0,0,2.66,1.29,21.37,21.37,0,0,0,6.73,1,17.73,17.73,0,0,0,5.75-.74,10,10,0,0,0,4-2.84" transform="translate(-51.25 -10.73)"/><path class="cls-2" d="M212.54,192.66a47.45,47.45,0,0,0,7.18,1.31,20.64,20.64,0,0,0,4,.2,14.29,14.29,0,0,0,4.66-1,26.59,26.59,0,0,0,2.91-1.21" transform="translate(-51.25 -10.73)"/><path class="cls-2" d="M215.45,174.23a12.47,12.47,0,0,0-.57,2.24c-.3,1.71-.56,3.45-.74,5.18" transform="translate(-51.25 -10.73)"/><path class="cls-2" d="M229.05,184.57v.17a44.23,44.23,0,0,1-.78,7.78" transform="translate(-51.25 -10.73)"/><path class="cls-2" d="M227.62,173.38a27.94,27.94,0,0,1,1.24,6.79,5.37,5.37,0,0,0,0,.89" transform="translate(-51.25 -10.73)"/><path class="cls-2" d="M222,185.47l.12,3.88c0,2.19-.07,2.49.11,4.67" transform="translate(-51.25 -10.73)"/><path class="cls-2" d="M221.8,174.24c.06.57,0,3.27,0,3.84,0,1.21,0,2.41.08,3.61v.62" transform="translate(-51.25 -10.73)"/><path class="cls-2" d="M210.73,180.66a21.77,21.77,0,0,0,6.45,1.48,36.42,36.42,0,0,0,9.56-.19,62.94,62.94,0,0,0,6.4-1.42" transform="translate(-51.25 -10.73)"/><path class="cls-2" d="M210.41,183.88a40.07,40.07,0,0,0,5.26,1.22c5.78,1.05,11.77-.11,17.41-1.39" transform="translate(-51.25 -10.73)"/><path class="cls-2" d="M214,184.78c0,1.73.09,6.52.16,8.26" transform="translate(-51.25 -10.73)"/><path class="cls-1" d="M197,178c3.87,2.91,6.78,4.55,11,8.16-5.77.47-18.17,3-18.17,3-3.32-2.91-7.32-5-10.66-7.87Z" transform="translate(-51.25 -10.73)"/><path class="cls-1" d="M179,181.28a24.41,24.41,0,0,1,.7,7.47,13.49,13.49,0,0,1,.13,2.91,19.19,19.19,0,0,0-.12,3.39c0,.9-.33,2.36.44,3,.56.36,1.13.7,1.71,1a9.86,9.86,0,0,0,1.22.7c.47.2.95.25,1.41.46a4.31,4.31,0,0,0,1.23.48c1,.15,2.6.37,3.31,1.16" transform="translate(-51.25 -10.73)"/><path class="cls-1" d="M189.23,189.44a4.11,4.11,0,0,1,.46,2c0,.54.23,1,.24,1.56v3.38a8.42,8.42,0,0,0,0,1.23,4.81,4.81,0,0,1,.25,1.06v1.26a9.14,9.14,0,0,0-.24,1.64" transform="translate(-51.25 -10.73)"/><path class="cls-1" d="M190.16,201.56a9.22,9.22,0,0,0,2.08-.47c.75-.25,1.57-.27,2.34-.47,1.42-.36,2.86-.36,4.25-.64.76-.16,1.5-.23,2.26-.41a16.84,16.84,0,0,0,2.35-.34c.8-.33,1.59-.14,2.4-.41a6,6,0,0,1,2-.29" transform="translate(-51.25 -10.73)"/><path class="cls-1" d="M207.63,186.88a13.21,13.21,0,0,1,.25,3.26c-.1.46-.19.92-.25,1.38v1.66c0,1.85.34,3.54,0,5.35" transform="translate(-51.25 -10.73)"/><path class="cls-1" d="M194.8,197.36c.58,0,8.4-1.46,9-1.55s1.16-.19,1.18-.95a10.32,10.32,0,0,0-.16-2,10.62,10.62,0,0,1-.25-2,2.8,2.8,0,0,0,0-1c-.12-.25-.82,0-1.11,0a3.18,3.18,0,0,0-1.18.19,4.69,4.69,0,0,1-.91.24c-.72.14-1.44.23-2.16.34a8.66,8.66,0,0,1-1.61.21c-.75,0-2.65.57-3.56.57" transform="translate(-51.25 -10.73)"/><path class="cls-1" d="M182.8,188.36a13.92,13.92,0,0,1,.07,3.29,11.48,11.48,0,0,0,0,2.62,2.89,2.89,0,0,1,0,.83c-.05.37-.08.42.2.6s.36.16.54.27a2.13,2.13,0,0,0,.49.31,10.07,10.07,0,0,1,1.2.43c.22.11.86.69.94.22,0-.2-.1-.41-.12-.61s0-.55,0-.83v-1c0-.33-.11-.71-.14-1.1s0-.82,0-1.22a5,5,0,0,0,0-.55,4.52,4.52,0,0,0,0-.83c-.1-.51-.75-.52-1.11-.7a3.32,3.32,0,0,1-1.19-.69,5.83,5.83,0,0,1-.55-.56,4.3,4.3,0,0,0-.39-.65" transform="translate(-51.25 -10.73)"/><path class="cls-1" d="M195.53,181.54a4.32,4.32,0,0,0-1.52-.13,62.43,62.43,0,0,0-6.84,1.77,7.1,7.1,0,0,1,1.92,1.48c.22.2.48.37.69.58s.27.45.7.47,2.34-.6,2.71-.64,3.71-.7,4.13-.78,1.08.26,1.36,0" transform="translate(-51.25 -10.73)"/><path class="cls-1" d="M194,191.79c1.4.67,2.79,1.38,4.15,2.14a23,23,0,0,0,3.47,1.74" transform="translate(-51.25 -10.73)"/><path class="cls-1" d="M169.41,148.27" transform="translate(-51.25 -10.73)"/><path class="cls-1" d="M171.24,149.25v1.89c0,.78-.06,1.36-.05,2.05,0,.88-.08,1.81-.12,2.69s-.13,1.51-.15,2.27a11.92,11.92,0,0,1,0,1.33c-.05.45,0,1.14,0,1.72s-.05,1.38,0,2.06v2.57c0,.85-.09,1.58-.11,2.38,0,1.65-.16,3.27-.16,4.92,0,.89,0,1.81-.06,2.69,0,.51,0,1,0,1.51a21,21,0,0,1-.07,2.1c-.06,1.36-.06,2.73,0,4.1,0,.65.07,1.29.09,1.94s-.13,5.05-.1,5.66" transform="translate(-51.25 -10.73)"/><path class="cls-1" d="M134.7,128.87c6.39-7.43,8.16-17.65,13.87-25.66l.6-.15c1.52,8.5,7.33,15.36,9.51,23.69,2.94,5.64,6.48,11.14,8.51,17.1a7.31,7.31,0,0,0,4.06,4.41,3.63,3.63,0,0,0,3.83-.29c-.85-1.44-3.08-5.73-3.83-7.31-3.7-7.78-5.2-10.78-7.91-16.66-3.57-7.78-6.92-15.65-9.81-23.56q-.87-2.82-1.46-5.71a15.4,15.4,0,0,0,.11-1.58c0-3.2,2.56-4.44,4.23-7,.84-1.28,2.53-5.29,3.48-6.47,2.32-2.89-3.93-5.61-3.93-5.61-1.14,2.19-2.11,7.18-3.22,9.39a27.53,27.53,0,0,1-3.56,4c.09-3.16-1.62-5.9-2.07-9-.23-1.58.16-3.54-1.59-4.64-1.4-.5-1.94,1-3.1,1.2,1.25,5.06,1,10.46,3.27,15a10.37,10.37,0,0,1-.75,10.54c-3.16,4.91-4.47,10.51-7.24,15.52a80.85,80.85,0,0,1-8.6,13c1.8,3.53,4.11.94,6.13.86" transform="translate(-51.25 -10.73)"/><path class="cls-1" d="M187.25,152a72.75,72.75,0,0,0,.31-7.67c0-1.06-.18-2.11-.16-3.17" transform="translate(-51.25 -10.73)"/><path class="cls-1" d="M191.87,152.59a5.61,5.61,0,0,1-.14-1.36c0-1.08-.14-2.17-.23-3.24s-.16-2.09-.22-3.13-.2-1.44-.26-2.39" transform="translate(-51.25 -10.73)"/><path class="cls-1" d="M211.8,150.36c0-1.65-.21-3.23-.34-4.87-.06-.75-.12-1.51-.22-2.25a7.21,7.21,0,0,1-.19-1.54" transform="translate(-51.25 -10.73)"/><path class="cls-1" d="M216,149.76a16.85,16.85,0,0,1-.37-3c-.18-1.74-.71-3.06-1-4.78" transform="translate(-51.25 -10.73)"/><path class="cls-1" d="M232.8,147.07a18.07,18.07,0,0,0-.26-4.7,14.51,14.51,0,0,0-.48-3.65" transform="translate(-51.25 -10.73)"/><path class="cls-1" d="M236.35,146.33a26.06,26.06,0,0,0-1.34-8.8" transform="translate(-51.25 -10.73)"/><path class="cls-1" d="M249.25,143.79c0-3.51,0-7-.15-10.5" transform="translate(-51.25 -10.73)"/><path class="cls-1" d="M253.13,143.66a29.18,29.18,0,0,0-.45-4.94,32.59,32.59,0,0,0-.89-4.46" transform="translate(-51.25 -10.73)"/><path class="cls-1" d="M138.48,124a4.41,4.41,0,0,1,.05.81v5.57c0,.74,0,1.2.05,1.79.07,1.52,0,3.08,0,4.62v1.35c0,.56,0,1.12,0,1.7V142a13.65,13.65,0,0,1-.06,1.55c-.06,1.49,0,3.07,0,4.58v9.73a4.21,4.21,0,0,1,0,.71v4.29c0,1.8,0,3.6.08,5.39,0,1.37.08,2.74.12,4.11s0,5.42.09,6.63" transform="translate(-51.25 -10.73)"/><path class="cls-1" d="M138.72,130.09a129.1,129.1,0,0,0,28.52,15.36" transform="translate(-51.25 -10.73)"/><path class="cls-1" d="M137.46,134.84c.47.67.73.7,1.5.93,1.7.79,3.39,2.36,5,3.32,3.52,2.13,6.28,3,9.49,4.81,3.05,1.24,6,2.85,9,4.37a24,24,0,0,0,7.37,3.58" transform="translate(-51.25 -10.73)"/><path class="cls-1" d="M143.13,180.48c-.25-3.78-.67-26.24,1.56-30.16,3.78,2.42,10.82,1.65,13,5.84-.1,7.68-1.23,21.69-2,29.31" transform="translate(-51.25 -10.73)"/><path class="cls-1" d="M145.88,168l.13-.11c.06.47.06,1,.14,1.41a6.25,6.25,0,0,1-.12,1.83" transform="translate(-51.25 -10.73)"/><path class="cls-1" d="M141,179c-.17-8.94-.95-22.93.54-31.88,2.49.65,4.62.46,7.24,1.55a48.65,48.65,0,0,0,5.35,1.91,20.71,20.71,0,0,1,6,2.61c2.17,9.48-.25,21.08-.92,34.69" transform="translate(-51.25 -10.73)"/><path class="cls-1" d="M151.34,111.72a80.18,80.18,0,0,0-.36,12c.45,4.61-.36,9.65.28,14.22" transform="translate(-51.25 -10.73)"/><path class="cls-1" d="M146.34,106.66c.64,9.67,1.34,19.36,1.06,29.08" transform="translate(-51.25 -10.73)"/><path class="cls-1" d="M250.33,157.3a13.16,13.16,0,0,1,.79,2.89c.18.66.1,1.36.22,2a17.83,17.83,0,0,1,.18,2.53c0,.65.26,1.27.3,1.91a2,2,0,0,0,.31.89c.18.35.24.72.44,1.06a5.46,5.46,0,0,0,1.18,1.52c.32.25.72.34,1.06.56a2.3,2.3,0,0,0,.9.34,1.62,1.62,0,0,0,1.42-.37,4.61,4.61,0,0,0,1.08-1.7c.14-.28.18-.6.32-.89A4.81,4.81,0,0,0,259,167c.14-.59.29-1.19.4-1.78a4.28,4.28,0,0,0,.15-.87,7.22,7.22,0,0,1,0-.93c.08-.35.18-.73.24-1.08s0-.65.06-1a10.57,10.57,0,0,0,.42-1.56c0-.51.15-1,.14-1.49a1.82,1.82,0,0,1,0-.57c.08-.17.16-.33.25-.49a2.73,2.73,0,0,0,0-.7" transform="translate(-51.25 -10.73)"/><path class="cls-1" d="M257.94,157.45a8,8,0,0,1-.22,3.15c-.36,1.28-.62,2.59-.94,3.87a24.76,24.76,0,0,1-.82,2.66,4.53,4.53,0,0,0-.41,1.49v.68c0,.22-.13.35-.16.54" transform="translate(-51.25 -10.73)"/><path class="cls-1" d="M254.66,157.16" transform="translate(-51.25 -10.73)"/><path class="cls-1" d="M254.66,157.16a12.18,12.18,0,0,1-.16,1.48c-.05.6.16,1.21.16,1.82a18.25,18.25,0,0,1-.3,4.3,9.06,9.06,0,0,0-.3,2.54,9.73,9.73,0,0,0,.75,3" transform="translate(-51.25 -10.73)"/><path class="cls-1" d="M255.11,171.66c.09.84.21,1.67.31,2.51.19,1.59.15,3.2.4,4.78a9.52,9.52,0,0,1,0,1.51V184a17.87,17.87,0,0,0,.23,3.27,6.6,6.6,0,0,1,.22,1.39" transform="translate(-51.25 -10.73)"/><path class="cls-1" d="M258.09,181.92l1.2-2.17a6.13,6.13,0,0,1,1.64-2.38c.41,1,0,2.17,0,3.21" transform="translate(-51.25 -10.73)"/><path class="cls-1" d="M260.18,183.86a5.81,5.81,0,0,1,1-2.08c.23-.29.72-1.13,1.15-1.05a3.58,3.58,0,0,1,.13,1.34" transform="translate(-51.25 -10.73)"/><path class="cls-1" d="M263.16,185.2a17.26,17.26,0,0,1,.9-2.83" transform="translate(-51.25 -10.73)"/><path class="cls-1" d="M265,185.35c.5-.73,1.22-1.26,2.09-.89" transform="translate(-51.25 -10.73)"/><path class="cls-1" d="M247.36,171.1a6.54,6.54,0,0,0-1.41,2.76,2.56,2.56,0,0,0,0,1.5c.24.7.69,1.31.94,2" transform="translate(-51.25 -10.73)"/><path class="cls-1" d="M252.27,179.24a.27.27,0,0,1-.29.3,15.86,15.86,0,0,1-1-2.84" transform="translate(-51.25 -10.73)"/><path class="cls-1" d="M251.08,184.66a7.87,7.87,0,0,0-2.06-3.42,1.87,1.87,0,0,0-.67-.51.32.32,0,0,0-.44-.09l-.09.09c-.63.2-1,1.39-1.22,1.88" transform="translate(-51.25 -10.73)"/><path class="cls-1" d="M245.41,186.1c-.51-.55-.67-.52-1.08.07a4.49,4.49,0,0,1-1,1.13,1.68,1.68,0,0,1-.31-.81,8.55,8.55,0,0,0-1.12-2.83,1.18,1.18,0,0,0-.73-.72.49.49,0,0,0-.69-.13l-.08.06c-.86.32-1.2,1.29-1.56,2.07" transform="translate(-51.25 -10.73)"/><path class="cls-1" d="M237.5,191.32a4.89,4.89,0,0,1-.33-2.51,5.07,5.07,0,0,1,.31-1.89c.49-.06,1,.8,1.21,1.12" transform="translate(-51.25 -10.73)"/><path class="cls-1" d="M244.8,188.19a17.66,17.66,0,0,1,.69-1.75,2.84,2.84,0,0,1,.5-.9.69.69,0,0,1,.73-.51,12.76,12.76,0,0,1,1.06,2" transform="translate(-51.25 -10.73)"/><path class="cls-1" d="M250.93,189.38l-.07.33c.35-.28,1.51-3.38,2.13-2.91a6.19,6.19,0,0,1,.61,1.72c.23.64.41,1.41,1.06,1.76" transform="translate(-51.25 -10.73)"/><path class="cls-1" d="M246.45,192.07a8.37,8.37,0,0,1-2.82-.15,4.46,4.46,0,0,1-1.68-1.46c-.44.13-.71.54-1,.85-.65.67-1.35,1.26-2,1.9-.44.42-1.58,1.27-1.42,2" transform="translate(-51.25 -10.73)"/><path class="cls-1" d="M293.59,194.39" transform="translate(-51.25 -10.73)"/><path class="cls-1" d="M238.51,232.12c.87-.37,1.18-1,1.93-1.44.49-.3,1.22-.32,1.76-.64a17.43,17.43,0,0,1,3.18-1.72c.67-.22.82,0,1.29-.65s.54-1.2.9-1.75c.61-.9,1.76-1.42,2.55-2.17s1.24-1.18,2.4-.95a7.29,7.29,0,0,0,3.29-.59,32.14,32.14,0,0,1,3.7-1.12c1.14-.17,1.95-1.18,2.93-1.78a5.44,5.44,0,0,1,2.38-.92,23.16,23.16,0,0,0,2.5,0c2.49-.37,4.62-2.09,7.21-2.11.91,0,1.31.16,2-.57a5.85,5.85,0,0,1,1.17-1.16,10.86,10.86,0,0,1,3.1-.87,8.71,8.71,0,0,0,1.59-.36,4.82,4.82,0,0,1,2.12-.62,11.28,11.28,0,0,0,1.3,0,13.83,13.83,0,0,1,2.21-.31" transform="translate(-51.25 -10.73)"/><path class="cls-1" d="M218.77,232.42c.68-.65,1.45-1.17,2.13-1.78.52-.47.83-1.07,1.3-1.57a4.1,4.1,0,0,1,2.17-1.38,5.57,5.57,0,0,1,1,0c1.14-.2,1.72-1.19,2.58-1.81s2.06-.82,3-1.46c1.38-1,1.5-2.46,2.59-3.63a1.4,1.4,0,0,1,1.05-.6,21.38,21.38,0,0,0,2.4-.2,30.36,30.36,0,0,0,4.06-1.39c1.54-.55,3.15-.38,4.71-.83,1.25-.37,2.24-1.3,3.43-1.81a8.46,8.46,0,0,0,1.58-.82,10.8,10.8,0,0,1,1.49-.82,8.65,8.65,0,0,1,1.3-.44,9.25,9.25,0,0,0,1.29-.28c.56-.27.91-.87,1.48-1.16a6.06,6.06,0,0,1,1.3-.51c.51-.12,1,0,1.52-.12a19.92,19.92,0,0,1,2.12-.78,6.12,6.12,0,0,1,2-.08c.71.15.63.32,1.28,0,1.14-.5,2.17-1.92,3.45-1.82a17.82,17.82,0,0,0,2.29.34,10.06,10.06,0,0,1,2.11-.32" transform="translate(-51.25 -10.73)"/><path class="cls-1" d="M204.37,230.63c1-1,1.46-2.46,2.61-3.36a9.63,9.63,0,0,1,2.4-1.09,7.08,7.08,0,0,0,2.43-1.87c1.36-1.36,2-3.18,3.84-4.06.83-.4,1.76-.52,2.58-.94a7.6,7.6,0,0,1,1.49-.86c.52-.15,1.05-.18,1.57-.35,1.69-.54,3.53-.34,5.25-.66a18.55,18.55,0,0,0,4.14-1.59c.64-.28,1.32-.41,1.94-.72a8.88,8.88,0,0,1,1.75-.86,9.32,9.32,0,0,0,3.3-1.33c1-.67,2-1.34,3-2a5.68,5.68,0,0,1,1.22-.85c.54-.19,1.12-.08,1.67-.32,1.18-.55,2-1.57,3.19-2.13a9.41,9.41,0,0,1,2.44-.57,4.89,4.89,0,0,0,.91-.39,4.33,4.33,0,0,1,2.47-.15,7.43,7.43,0,0,0,3.25,0c.6-.13,1.21,0,1.82-.14s1.74-.08,2.2-.53" transform="translate(-51.25 -10.73)"/><path class="cls-1" d="M268,211.83a12.93,12.93,0,0,0,0-4.21c-.15-.81-1-3.6-2.18-3.25" transform="translate(-51.25 -10.73)"/><path class="cls-1" d="M257.61,216a15.12,15.12,0,0,0-.31-3" transform="translate(-51.25 -10.73)"/><path class="cls-1" d="M246.07,221.08c1-2-.8-4.56-1.25-6.56" transform="translate(-51.25 -10.73)"/><path class="cls-1" d="M236.31,224.36a4.77,4.77,0,0,0,0-4.29,9.15,9.15,0,0,0-2.49-2.27" transform="translate(-51.25 -10.73)"/><path class="cls-1" d="M226.92,229.74a11.53,11.53,0,0,1,1.56-5.67" transform="translate(-51.25 -10.73)"/><path class="cls-1" d="M266.07,222c0-1.49.49-3.82-.63-5.08" transform="translate(-51.25 -10.73)"/><path class="cls-1" d="M276.07,217.2a16.52,16.52,0,0,0-.62-4.47" transform="translate(-51.25 -10.73)"/><path class="cls-1" d="M255.42,227.35a14.08,14.08,0,0,0-1.89-3.36c-.24-.37-.41-.78-.68-1.13a6.29,6.29,0,0,1-1.19-1.48" transform="translate(-51.25 -10.73)"/><path class="cls-1" d="M247.59,230a3.76,3.76,0,0,1-.94-1.19" transform="translate(-51.25 -10.73)"/><path class="cls-1" d="M251.66,206.76a19.35,19.35,0,0,1-.62-4.48" transform="translate(-51.25 -10.73)"/><path class="cls-1" d="M211.57,227.05a4.74,4.74,0,0,0-2.19-4.48" transform="translate(-51.25 -10.73)"/><path class="cls-1" d="M218.77,219.89a9.73,9.73,0,0,1-.65-2.87,6.79,6.79,0,0,1,.34-1.61" transform="translate(-51.25 -10.73)"/><path class="cls-1" d="M226.6,215.11a18,18,0,0,1-.62-3" transform="translate(-51.25 -10.73)"/><path class="cls-1" d="M237.57,212.73c.1-1.25-1.32-2.79-1.88-3.88" transform="translate(-51.25 -10.73)"/><path class="cls-1" d="M244.14,210.34c-.69-1.51-1.5-3-2.19-4.48" transform="translate(-51.25 -10.73)"/><path class="cls-1" d="M288.92,211.82c.87-.37,1.19-1,1.93-1.44.5-.3,1.22-.32,1.76-.64a17.43,17.43,0,0,1,3.18-1.72c.67-.22.82,0,1.3-.65s.53-1.2.9-1.74c.6-.91,1.75-1.43,2.54-2.18s1.24-1.18,2.41-1a7.22,7.22,0,0,0,3.28-.59,32.14,32.14,0,0,1,3.7-1.12c1.14-.17,1.95-1.18,2.93-1.77a5.58,5.58,0,0,1,2.38-.93,23.35,23.35,0,0,0,2.51,0c2.48-.37,4.62-2.08,7.2-2.11.92,0,1.32.16,2-.57a5.85,5.85,0,0,1,1.17-1.16,10.92,10.92,0,0,1,3.11-.87,8.42,8.42,0,0,0,1.58-.36,4.82,4.82,0,0,1,2.12-.62,11.28,11.28,0,0,0,1.3,0,12.76,12.76,0,0,1,2.22-.31" transform="translate(-51.25 -10.73)"/><path class="cls-1" d="M269.19,212.12c.67-.65,1.45-1.17,2.13-1.78.51-.46.82-1.06,1.29-1.57a4.16,4.16,0,0,1,2.17-1.38,5.57,5.57,0,0,1,1,0c1.14-.2,1.72-1.18,2.58-1.81s2.06-.82,3-1.46c1.38-1,1.5-2.46,2.59-3.63a1.42,1.42,0,0,1,1.05-.59,21.39,21.39,0,0,0,2.4-.21,30.36,30.36,0,0,0,4.06-1.39c1.54-.55,3.15-.38,4.71-.83,1.25-.36,2.24-1.3,3.43-1.81a7.64,7.64,0,0,0,1.58-.82,10.8,10.8,0,0,1,1.49-.82,8.4,8.4,0,0,1,1.31-.44,9.43,9.43,0,0,0,1.28-.28c.56-.26.91-.87,1.48-1.16a6.06,6.06,0,0,1,1.3-.51c.51-.12,1,0,1.52-.12a20.93,20.93,0,0,1,2.13-.78,5.85,5.85,0,0,1,2-.08c.72.16.63.32,1.28,0,1.15-.51,2.17-1.93,3.46-1.83a16.08,16.08,0,0,0,2.28.34,10.16,10.16,0,0,1,2.12-.32" transform="translate(-51.25 -10.73)"/><path class="cls-1" d="M254.78,210.33c1-1,1.46-2.46,2.61-3.35a10,10,0,0,1,2.4-1.1,7.08,7.08,0,0,0,2.43-1.87c1.36-1.36,2-3.18,3.84-4.06.83-.4,1.77-.52,2.58-.94a8.23,8.23,0,0,1,1.49-.86c.52-.15,1.05-.18,1.57-.35,1.69-.54,3.53-.34,5.25-.66a18.55,18.55,0,0,0,4.14-1.59c.64-.28,1.32-.41,2-.72a8.88,8.88,0,0,1,1.75-.86,8.92,8.92,0,0,0,3.29-1.33l3-2a6.06,6.06,0,0,1,1.22-.85,15.86,15.86,0,0,0,1.67-.32c1.18-.54,2-1.57,3.19-2.13a10.3,10.3,0,0,1,2.44-.57,5,5,0,0,0,.92-.39,4.31,4.31,0,0,1,2.46-.15,7.43,7.43,0,0,0,3.25,0c.61-.13,1.22,0,1.83-.13s1.73-.09,2.19-.53" transform="translate(-51.25 -10.73)"/><path class="cls-1" d="M318.36,191.53a12.93,12.93,0,0,0,0-4.21c-.15-.8-1-3.59-2.18-3.25" transform="translate(-51.25 -10.73)"/><path class="cls-1" d="M308.07,195.71a15.13,15.13,0,0,0-.32-3" transform="translate(-51.25 -10.73)"/><path class="cls-1" d="M296.44,200.78c1-2-.8-4.56-1.26-6.56" transform="translate(-51.25 -10.73)"/><path class="cls-1" d="M286.73,204.07a4.85,4.85,0,0,0,0-4.3,9.34,9.34,0,0,0-2.5-2.27" transform="translate(-51.25 -10.73)"/><path class="cls-1" d="M277.33,209.44a11.44,11.44,0,0,1,1.57-5.67" transform="translate(-51.25 -10.73)"/><path class="cls-1" d="M316.48,201.68c0-1.49.49-3.82-.62-5.07" transform="translate(-51.25 -10.73)"/><path class="cls-1" d="M326.51,196.9a16.93,16.93,0,0,0-.63-4.47" transform="translate(-51.25 -10.73)"/><path class="cls-1" d="M305.83,207.05a14.08,14.08,0,0,0-1.89-3.36c-.24-.36-.41-.78-.68-1.12-.4-.51-.95-.87-1.19-1.49" transform="translate(-51.25 -10.73)"/><path class="cls-1" d="M298,209.74a3.8,3.8,0,0,1-.94-1.2" transform="translate(-51.25 -10.73)"/><path class="cls-1" d="M302.07,186.46a19.35,19.35,0,0,1-.62-4.48" transform="translate(-51.25 -10.73)"/><path class="cls-1" d="M262,206.75a4.72,4.72,0,0,0-2.19-4.47" transform="translate(-51.25 -10.73)"/><path class="cls-1" d="M269.19,199.59a9.67,9.67,0,0,1-.65-2.86,6.48,6.48,0,0,1,.33-1.62" transform="translate(-51.25 -10.73)"/><path class="cls-1" d="M277.07,194.82a17,17,0,0,1-.63-3" transform="translate(-51.25 -10.73)"/><path class="cls-1" d="M288,192.43c.1-1.25-1.32-2.79-1.88-3.88" transform="translate(-51.25 -10.73)"/><path class="cls-1" d="M294.56,190c-.7-1.51-1.51-3-2.2-4.47" transform="translate(-51.25 -10.73)"/><path class="cls-1" d="M270,191.41" transform="translate(-51.25 -10.73)"/><path class="cls-1" d="M251.74,239.71a8.15,8.15,0,0,1,1.41-1.74,14.35,14.35,0,0,0,1.57-1.45,17.75,17.75,0,0,1,3.49-2.73c.58-.39,1.22-.63,1.79-1,.41-.31.73-.68,1.12-1a13.1,13.1,0,0,1,1.84-1c.85-.49,1.46-1.16,2.34-1.6a5,5,0,0,1,1.28-.54c.33-.07.65-.06,1-.15a11.77,11.77,0,0,0,2.53-1.21,4.35,4.35,0,0,0,.84-.48c.29-.26.38-.64.64-.92a10.08,10.08,0,0,1,1.42-1,6.09,6.09,0,0,1,3.44-1c.35,0,.66.11,1,.1a15.59,15.59,0,0,0,1.67-.23,30.53,30.53,0,0,0,5.66-1.45,7.79,7.79,0,0,0,3.08-2,6.33,6.33,0,0,1,1.52-1.21c.33-.16.68-.21,1-.4.72-.4,1.27-1,2-1.35s1.72-.79,2.56-1.22a6.65,6.65,0,0,1,1.63-.74c1.92-.45,3.82-.92,5.71-1.45a27.39,27.39,0,0,0,6.47-2.63c1.8-1.06,3.28-2.63,5.15-3.55a8.8,8.8,0,0,1,2.15-.42,11.78,11.78,0,0,0,1.31-.57c.39-.12.79-.17,1.18-.25a25.41,25.41,0,0,0,2.71-.78,11.34,11.34,0,0,0,2.23-1.31,12.67,12.67,0,0,1,1.9-.69,10.2,10.2,0,0,0,1.7-.72c.73-.41,1.18-1.11,1.89-1.57.88-.56,1.56-1.32,2.7-1.19a3.51,3.51,0,0,0,1.73-.19,4.75,4.75,0,0,0,1.62-.85" transform="translate(-51.25 -10.73)"/><path class="cls-1" d="M268.66,242.1a31.8,31.8,0,0,1,2.73-3.08c1.13-1.05,2.05-2.36,3.09-3.5a8.9,8.9,0,0,1,2.59-2.14,5,5,0,0,1,1.33-.25c.78-.13,1.52-.43,2.3-.57,2.81-.52,4.93-2.47,7.23-3.94,1.17-.74,2.46-1.23,3.63-2a28.77,28.77,0,0,1,3.34-1.76c.37-.16.76-.21,1.14-.35s.77-.39,1.18-.56c.76-.31,1.57-.47,2.36-.71a23.48,23.48,0,0,1,2.7-.74A21.4,21.4,0,0,1,305,222a5.32,5.32,0,0,0,3.52-1.22c1.3-1,2.66-2,4-3a22.09,22.09,0,0,1,3.32-1.87,32.15,32.15,0,0,1,3-1.48,15.94,15.94,0,0,0,1.87-1c1.11-.6,2.22-1.17,3.3-1.81.57-.35,1.1-.77,1.63-1.17a7.47,7.47,0,0,0,1-1.1,4.42,4.42,0,0,1,2.2-1.15c.61-.18,1.24-.33,1.87-.5a4.94,4.94,0,0,0,1-.35,4.16,4.16,0,0,1,.74-.28c.26-.05.51,0,.72-.21" transform="translate(-51.25 -10.73)"/><path class="cls-1" d="M286.2,244.48a5.53,5.53,0,0,1,1.26-2.78,13.38,13.38,0,0,0,1.08-1,5.67,5.67,0,0,1,1.6-1,12.21,12.21,0,0,0,1.27-.85c.66-.44,1.44-.69,2.1-1.13a23,23,0,0,0,3.33-2.9,12.27,12.27,0,0,1,2.81-1.67,17,17,0,0,1,3-1.21,18.47,18.47,0,0,0,6.37-3.46,27.83,27.83,0,0,1,4-2.71c1.18-.65,2.39-1.24,3.5-2,.37-.25.79-.3,1.17-.53.58-.34,1.06-.67,1.68-1,.94-.43,1.77-1.07,2.66-1.58a13.09,13.09,0,0,0,2.9-2.5,22.65,22.65,0,0,1,2.5-2.19,6.8,6.8,0,0,1,1.95-1c.32-.1.64-.12,1-.24a15,15,0,0,1,1.72-.56,12.51,12.51,0,0,0,4.42-2.43A12,12,0,0,0,338,210.5c.44-.42.8-1,1.25-1.42.65-.55,1.78-.71,2.3-1.37" transform="translate(-51.25 -10.73)"/><path class="cls-1" d="M259.68,234.14a10.48,10.48,0,0,0,.43-2,5.53,5.53,0,0,1,0-1.15,5.69,5.69,0,0,0-.05-2.43" transform="translate(-51.25 -10.73)"/><path class="cls-1" d="M269.7,228.77a6.56,6.56,0,0,0,0-2.79,5,5,0,0,0-.06-.94c-.06-.32-.4-.78-.38-1.25" transform="translate(-51.25 -10.73)"/><path class="cls-1" d="M279.31,224.79a14,14,0,0,1-.43-2.32v-2.06" transform="translate(-51.25 -10.73)"/><path class="cls-1" d="M287.87,221a9.67,9.67,0,0,0-.21-5.17" transform="translate(-51.25 -10.73)"/><path class="cls-1" d="M294.76,217.43a19.27,19.27,0,0,1,.41-3.78" transform="translate(-51.25 -10.73)"/><path class="cls-1" d="M306.87,212.06a17.5,17.5,0,0,0,0-2.29c0-.37-.17-.72-.19-1.09" transform="translate(-51.25 -10.73)"/><path class="cls-1" d="M314.8,209.27v-2.78" transform="translate(-51.25 -10.73)"/><path class="cls-1" d="M325.87,203.11a12.17,12.17,0,0,0,0-3.19" transform="translate(-51.25 -10.73)"/><path class="cls-1" d="M323.78,213.85c-.07-1.27-.2-2.51-.21-3.78" transform="translate(-51.25 -10.73)"/><path class="cls-1" d="M319.4,216a10.21,10.21,0,0,0-.84-2.79" transform="translate(-51.25 -10.73)"/><path class="cls-1" d="M311.46,224.19a21.2,21.2,0,0,1,.21-6.36" transform="translate(-51.25 -10.73)"/><path class="cls-1" d="M303.53,223.6a29.83,29.83,0,0,0-1.67-3.58" transform="translate(-51.25 -10.73)"/><path class="cls-1" d="M293.71,227.77a8.26,8.26,0,0,1-.83-4" transform="translate(-51.25 -10.73)"/><path class="cls-1" d="M283.9,233.34c-.29-1.37-.64-2.79-.84-4.17" transform="translate(-51.25 -10.73)"/><path class="cls-1" d="M295.8,241.7a14.61,14.61,0,0,0-1.67-7.36" transform="translate(-51.25 -10.73)"/><path class="cls-1" d="M304.78,235.13a16,16,0,0,1-.63-4.57" transform="translate(-51.25 -10.73)"/><path class="cls-1" d="M319.19,223.4a22.76,22.76,0,0,1-.91-2.09c-.09-.28-.12-.69-.34-.9" transform="translate(-51.25 -10.73)"/><path class="cls-1" d="M326.91,220c.42-1.79.18-3.62.84-5.38" transform="translate(-51.25 -10.73)"/><path class="cls-1" d="M157.38,211.16c1,1.27.53,2.87,0,4.15-.29.25-.4.3-.31.71a13.73,13.73,0,0,0,1,2.8A5.28,5.28,0,0,1,155,214.6" transform="translate(-51.25 -10.73)"/><path class="cls-1" d="M153.24,209.69c-2.93.93-4.49-1.79-5.34-4.13a4.33,4.33,0,0,0,4.62,5.85" transform="translate(-51.25 -10.73)"/><path class="cls-1" d="M152.52,212a10.22,10.22,0,0,0,.86,6.44" transform="translate(-51.25 -10.73)"/><path class="cls-1" d="M158.68,213.45c1.34-.29,2.73-.32,3.86-1.14" transform="translate(-51.25 -10.73)"/><path class="cls-1" d="M163.68,210.59a22,22,0,0,0,0,5" transform="translate(-51.25 -10.73)"/><path class="cls-1" d="M161.38,211.16A55.78,55.78,0,0,0,163,217" transform="translate(-51.25 -10.73)"/><path class="cls-1" d="M164.05,211.16c.57-1,1-2.53,1.61-3.43a11.5,11.5,0,0,0,2.11-2.13c-.31-.51-1.25-1.72-1.16-2a2.15,2.15,0,0,0,.09-1.28,7.6,7.6,0,0,1-1,1.19c-.57.31-1.93.19-2.16-.49a3.67,3.67,0,0,0-.83-1.46,7.33,7.33,0,0,1-1.2,4.51,31.93,31.93,0,0,0-5.39,1.65c-.94.68-3.36.37-3.71,2.09" transform="translate(-51.25 -10.73)"/><path class="cls-1" d="M283.68,130.34c-.71,1.51-.86,2.2-1.58,3.7-.42.89-.49,2-1,2.86-.23.41-.59.63-.85,1s-.43.87-.7,1.29a6.56,6.56,0,0,0-.91,2.62c-.21.91-.49,1.78-.73,2.68a60,60,0,0,0-1.06,6.37,22.75,22.75,0,0,0,.08,3.17,26,26,0,0,0,.34,3.43c.18,1.37-.11,3,.71,4.21a17.15,17.15,0,0,0,2.3,2.37c.4.4.85.79,1.23,1.21a6.58,6.58,0,0,1,.7,1.23c.26.42.59.69.84,1.11s.39,1.09.69,1.58c.46.74,1,.88,1.67,1.37a7.27,7.27,0,0,0,2.19,1.49,6,6,0,0,0,2.28.32,19.93,19.93,0,0,0,2.69-.59,16.06,16.06,0,0,0,2.25-.54c1.34-.65,2.29-2,3.59-2.74a15.38,15.38,0,0,1,3.54-1,4.07,4.07,0,0,0,1.75-1.29,11.76,11.76,0,0,0,2.32-3.45c.2-.54.34-1.1.55-1.64a16.09,16.09,0,0,0,.38-1.7,9.15,9.15,0,0,0,.44-1.28,14.07,14.07,0,0,1,.23-1.8,36.53,36.53,0,0,0,.82-4,22.35,22.35,0,0,0,.41-3.26c0-1.24-.35-2.4-.33-3.63a20.92,20.92,0,0,0-.08-4.19,17.68,17.68,0,0,0-1.3-3.39,30.07,30.07,0,0,0-2.23-4.1,17.74,17.74,0,0,1-1.2-2.92c-.71-1.76-.35-3.76-.8-5.6a4.13,4.13,0,0,0-2.29-3c-1.19-.55-1.73-.11-2.85,0l-1.95.33a10.67,10.67,0,0,0-6.51,1.7c-.94.66-1.35.49-2.32,1.05" transform="translate(-51.25 -10.73)"/><path class="cls-1" d="M295.4,165.75a26.73,26.73,0,0,0-2.33-1.46c-.68-.29-1.38-.46-2-.8a24.11,24.11,0,0,1-2.67-1.51,7.39,7.39,0,0,1-2.74-2.89,6.71,6.71,0,0,1-.31-3.14,12.53,12.53,0,0,1,.29-1.75c.08-.34,0-.54.18-.86a3.54,3.54,0,0,1,.7-1,6.13,6.13,0,0,1,1.55-.51,6.31,6.31,0,0,1,2-.12,5,5,0,0,0,2-.15,10,10,0,0,0,2.62-2,7.84,7.84,0,0,0,.74-1.07,5.08,5.08,0,0,0,.72-1.06,3.36,3.36,0,0,0,.29-2.16c-.1-.32-.39-.58-.53-.9s-.26-.76-.38-1.13a5.92,5.92,0,0,1-.19-1.18,4.83,4.83,0,0,0-.38-1c-.22-.51-.48-1-.65-1.53a3.42,3.42,0,0,1,.36-2.2c.2-.53.27-1.13.52-1.64a4.57,4.57,0,0,1,1.2-1.49,5.91,5.91,0,0,1,2.69-1.4,11.86,11.86,0,0,1,1.66-.32,6.62,6.62,0,0,1,1.26.08,8.6,8.6,0,0,0,1.31.24" transform="translate(-51.25 -10.73)"/><path class="cls-1" d="M301.59,127.33a11.18,11.18,0,0,0-2.36-.33c-.69,0-1.37,0-2.05,0-1.43,0-2.79-.08-3.91,1a12,12,0,0,0-1.94,2.64,9.56,9.56,0,0,0-.64,1.33c-.25.57-.68,1.05-.95,1.6a7.4,7.4,0,0,0-.52,2.37,8.73,8.73,0,0,0-.17,1.62,5.59,5.59,0,0,0,.33,1.51,7.83,7.83,0,0,0,.37,1c.19.44.44.85.61,1.3a2.87,2.87,0,0,1,.16,1.17,5.68,5.68,0,0,1,0,1.43,5.2,5.2,0,0,1-.76,2.12,5,5,0,0,1-2.91,1.34c-.62.16-1.21.3-1.83.49a1.79,1.79,0,0,0-.81.44c-.55.54-1.18,1-1.7,1.54-.68.73-.7,1.81-1.11,2.7-.16.36-.26.74-.41,1.11-.06.16-.2.35-.25.51a3.61,3.61,0,0,0,.05,1,8.36,8.36,0,0,0,0,1.5c.11.53.31,1.08.45,1.6.27,1,.78,2,1.1,2.93a4.72,4.72,0,0,0,2.2,2.32,10.57,10.57,0,0,1,1.18.94,9.44,9.44,0,0,1,1.22,1,4.66,4.66,0,0,0,1.51,1.18,10.1,10.1,0,0,1,1.43.81l1.16.77c.34.23.58.3.8.66a7.18,7.18,0,0,0,.64,1" transform="translate(-51.25 -10.73)"/><path class="cls-1" d="M303.7,142.63a12.2,12.2,0,0,0,0,3.25c.53,2.75,0,5.74-.47,8.47-.62,3.52-1.4,7-2.27,10.51-.14.55-.29,1.09-.44,1.63a2.94,2.94,0,0,1-.4,1.21" transform="translate(-51.25 -10.73)"/><path class="cls-1" d="M294.75,154.19c.63.2,1.25.45,1.88.64a5.88,5.88,0,0,0,1.62.18c1.55,0,3.09.17,4.64.16.87,0,1.77-.06,2.64,0a17.16,17.16,0,0,0,1.76.15" transform="translate(-51.25 -10.73)"/><path class="cls-1" d="M299.8,142.79a9.31,9.31,0,0,0,1.16,3.33,3.87,3.87,0,0,0,2.62,2.09,3,3,0,0,0,3-.72,5.22,5.22,0,0,0,1.33-3.07" transform="translate(-51.25 -10.73)"/><path class="cls-1" d="M297.36,151.75c.81,1,2.43,2.68,1.63,4.14-.95,1.74-4,1.23-5.7,1.23" transform="translate(-51.25 -10.73)"/><path class="cls-1" d="M296.54,162.49c1-.71,2.17-1.36,3.4-.68a4.28,4.28,0,0,1,1.46,1.41,3.74,3.74,0,0,1,.84,1.88" transform="translate(-51.25 -10.73)"/><path class="cls-1" d="M296.54,130.75a4.39,4.39,0,0,0,.33-1.63" transform="translate(-51.25 -10.73)"/><path class="cls-1" d="M300,130.91a3.05,3.05,0,0,0,.33-1.14" transform="translate(-51.25 -10.73)"/><path class="cls-1" d="M292.31,133c-.16.16-.67.62-.36.92s.51.05.68.05" transform="translate(-51.25 -10.73)"/><path class="cls-1" d="M291.17,140.19h.49" transform="translate(-51.25 -10.73)"/><path class="cls-1" d="M291.66,144.91l.49.16" transform="translate(-51.25 -10.73)"/><path class="cls-1" d="M289.7,147.52l.82.81" transform="translate(-51.25 -10.73)"/><path class="cls-1" d="M285,149a6.72,6.72,0,0,1,1.14,1.79" transform="translate(-51.25 -10.73)"/><path class="cls-1" d="M282.05,154.19a8.13,8.13,0,0,1,1.63.33" transform="translate(-51.25 -10.73)"/><path class="cls-1" d="M284.49,160.21a7.82,7.82,0,0,1,1.47-.81" transform="translate(-51.25 -10.73)"/><path class="cls-1" d="M290.19,165.42c.54-.33,1.07-.67,1.63-1" transform="translate(-51.25 -10.73)"/><path class="cls-1" d="M294.42,167.87l.49-.17" transform="translate(-51.25 -10.73)"/><path class="cls-1" d="M384.59,200.51c-.26-.15-.42-.36-.7-.5a3.15,3.15,0,0,0-.65-.23,4.89,4.89,0,0,0-.85-.08,2.51,2.51,0,0,0-.67,0,1.08,1.08,0,0,0-.44.22,1.18,1.18,0,0,1-.73.21,4.05,4.05,0,0,1-.83-.35,1.83,1.83,0,0,0-1-.19,3.22,3.22,0,0,1-.93-.07,3.29,3.29,0,0,0-.6-.15,5.08,5.08,0,0,0-.78,0c-.64,0-1.22-.47-1.83-.18a3.89,3.89,0,0,1-1.64.4.58.58,0,0,0-.49.25c-.05.09-.1.19-.16.28a1.28,1.28,0,0,1-.62.27,3.75,3.75,0,0,0-.88.2l-.56.24c-.28.11-.58.19-.86.31s-.53.17-.3.41.37.13.22.32-.62.3-.82.38a3.59,3.59,0,0,0-1.32.77,1.73,1.73,0,0,0-.39.5c-.11.23-.05.47-.13.7s-.53.69-.48,1.08a1.4,1.4,0,0,0,.27.61c.13.21.05.39-.05.6a2.8,2.8,0,0,0-.18.51c-.09.33.19.46.46.63a1.37,1.37,0,0,1,.56.67,2.1,2.1,0,0,1,0,.56c.19.4.71.53,1,.87a1.18,1.18,0,0,1,.19.58,1.89,1.89,0,0,0,.25.54,4.09,4.09,0,0,0,.26.51,3.2,3.2,0,0,0,.8.61,3.1,3.1,0,0,0,1.37.52c.36,0,.68-.19,1-.21a2.25,2.25,0,0,1,1.2.36,1.59,1.59,0,0,0,.59.27c.38.07.74.16,1.13.21a3.75,3.75,0,0,0,1.6.05,2.27,2.27,0,0,0,.69-.36c.16-.16.24-.44.45-.56a1.31,1.31,0,0,1,.68,0c.34.06.66.23,1,.26s.72-.29,1.09-.37.58-.1.86-.17.63-.08.81-.27.08-.3.08-.47.23-.27.46-.3a6.46,6.46,0,0,1,.88,0,2.13,2.13,0,0,0,.8-.28c.44-.23,1-.19,1.39-.54s.4-.63.84-.84c.27-.13.55-.2.82-.32a8.81,8.81,0,0,0,.77-.47,4.21,4.21,0,0,0,1-.73,1.16,1.16,0,0,0,.35-.64,3.84,3.84,0,0,0,0-.83,5.28,5.28,0,0,1,.19-1.19c0-.2.18-.47,0-.64s-.52-.16-.66-.4a1.87,1.87,0,0,1,0-1.57.85.85,0,0,0,.13-.22.72.72,0,0,0-.16-.32c-.09-.1.65-.42.58-.62s.08-.52.13-.75-.06-.33-.29-.51a1.39,1.39,0,0,0-.8-.44h-.24c-.15,0-.26.2-.41.21a4.56,4.56,0,0,1-1.4-.23.23.23,0,0,0-.08-.18c-.18-.11-.36.14-.48.23a2.92,2.92,0,0,0-.63.48.75.75,0,0,0-.08.53" transform="translate(-51.25 -10.73)"/><path class="cls-1" d="M386.59,210a4.49,4.49,0,0,1,1.47,2.52,12.24,12.24,0,0,1-1,3.84" transform="translate(-51.25 -10.73)"/><path class="cls-1" d="M383.6,212.55c.4.94-.12,1.82-.2,2.79" transform="translate(-51.25 -10.73)"/><path class="cls-1" d="M372.26,214c0,.49-.26,1.8.2,2.18" transform="translate(-51.25 -10.73)"/><path class="cls-1" d="M368.68,212.75a11.08,11.08,0,0,0-.4,3.58" transform="translate(-51.25 -10.73)"/><path class="cls-1" d="M365.81,205.07l-2.32,2.36a5,5,0,0,0-1,1.85,16.51,16.51,0,0,0-.81,3.4,5.5,5.5,0,0,0,0,2.79,1.2,1.2,0,0,0,1.5.81,1.09,1.09,0,0,0,.25-.1c.53-.2.86-1.06,1.35-1.34.81-.46,2.09-2.15,2.62-5.76" transform="translate(-51.25 -10.73)"/><path class="cls-1" d="M345.81,156.44" transform="translate(-51.25 -10.73)"/><path class="cls-1" d="M345.81,156.44a6.78,6.78,0,0,1,1.8.05,8.36,8.36,0,0,1,1.69,1.08c.52.33,1.54,1.15,2.11,1.13s1-.55,1.55-.86c1.39-.8,2.36-.25,3.76.21a5,5,0,0,0,1.9.52c.57-.11.88-.54,1.48-.65A5.26,5.26,0,0,1,362,158c.41.11.59.4,1,.27,1.42-.44.46-2.13.09-2.91a26.44,26.44,0,0,1-1-2.73c-.53-1.53-1.63-2.11-2.58-3.4a9.82,9.82,0,0,1,1.35-.12,1.11,1.11,0,0,1,.91-.22,3.35,3.35,0,0,0,1.08.31c1.27.11,1.71-1,2.09-2.07s-.13-1.8-.21-2.83c-.05-.59.14-1-.12-1.63s-1.21-1.18-1.69-1.7a4.56,4.56,0,0,1-1.16-2c-.16-.73.09-1.47-.12-2.2a11.12,11.12,0,0,1-.7-2,9.29,9.29,0,0,0-.46-1.87c-.4-1.17-.9-2.32-1.32-3.49a23,23,0,0,0-1.05-2.59c-.34-.65-1-1.47-.93-2.23.78-.14,1.4-.14,1.92-.85.64-.89.24-1.6,0-2.49a23.63,23.63,0,0,0-1.79-5.06,24.06,24.06,0,0,0-2.47-3.45c-.86-1.25-1.81-2.48-2.67-3.72-.43-.63-.63-1.31-1.11-1.92a3.81,3.81,0,0,1-.84-1.47c-.23-.65-.41-1.25-.58-1.92a3.56,3.56,0,0,1-.12-2.54,6.45,6.45,0,0,0,.5-2.77c0-.7-.1-1.36-.1-2.07s0-1.42,0-2.11-.31-1.27-.41-2c-.12-.86.12-1.72-.06-2.58a12.16,12.16,0,0,0-.69-1.88,30.67,30.67,0,0,1-.64-3.17c-.21-.75-.51-1.51-.77-2.25-.41-1.19-.78-2.39-1.14-3.6a37.83,37.83,0,0,0-1.59-5.31C344,72,342.85,70.42,342,68.88a14.79,14.79,0,0,0-1.52-2.59c-.59-.69-1-.43-1.8-.14s-.83.55-1.52.07a4.92,4.92,0,0,1-1.32-2.35c-.24-.63-.52-1.23-.75-1.86s-.17-1.9-1.05-2.12c-.82.45-1.12,2-1.14,2.84a14.6,14.6,0,0,1,0,1.62c-.08.53-.36,1-.42,1.53-.1.89-.25,1.75-.36,2.63-.16,1.27-1,2.13-1.14,3.43s-1.1,2.36-1.9,3.48a11.43,11.43,0,0,0-1.41,4.09,17.64,17.64,0,0,0-.87,3.74,30.15,30.15,0,0,1-.54,3c1.07-.05,1.66-.61,1.66.77a3.37,3.37,0,0,1-1.27,2.1,11.83,11.83,0,0,0-3.15,4.9c-.31,1-.49,1.92-.85,2.89a36.27,36.27,0,0,0-1.44,3.7c-.4,1.6-1.21,3-1.52,4.64-.4,2.14,1.17,1.12,2.05,2.7.76,1.34,0,3.85-.33,5.23a27.37,27.37,0,0,0-1,4.91c-.07,1.17-.31,2.29-.39,3.46a23.77,23.77,0,0,0-.32,2.59c1.61-.18.48,4.91.24,5.78-.14.52-.45,1-.59,1.45-.26.91-.11,1.92-.35,2.87a33.53,33.53,0,0,1-.85,4.15,14.73,14.73,0,0,0-1.29,5.28,3.5,3.5,0,0,1,.71-.32c.88.58.7,1.55.75,2.45a17.21,17.21,0,0,0,.49,2.24,11.18,11.18,0,0,1-.1,4.39c-.17.63-.51,1.21.2,1.63.29.16.64.14.93.29s.6.37.94.53a7.27,7.27,0,0,1,2.09,1.5,3,3,0,0,0,2.36.4c.39,0,.84-.3,1.24-.17s.83,1,1.33,1.17,1-.06,1.43-.06a6.78,6.78,0,0,0,1.35.12,4,4,0,0,1,2-.22c.65.13,1.3.21,1.94.35a12.14,12.14,0,0,1,1.57.7c.42.16,1.14.21,1.48.55.51.5.25,1.59,1.1,1.69C340.49,161.18,340,157.18,345.81,156.44Z" transform="translate(-51.25 -10.73)"/><path class="cls-1" d="M333.78,157.87c-.12,3-.47,8.39-.47,11.45" transform="translate(-51.25 -10.73)"/><path class="cls-1" d="M338.64,161a58,58,0,0,0-.8,6.18c-.06,1-.35,2.85.39,3.71" transform="translate(-51.25 -10.73)"/><path class="cls-1" d="M366.94,150.21c0,4.83-.62,9.35-.62,14.18" transform="translate(-51.25 -10.73)"/><path class="cls-1" d="M354.53,165.53c-.45-2.54-1.06-5.07-1.52-7.58" transform="translate(-51.25 -10.73)"/><path class="cls-1" d="M350.57,165.72c0-1.36-.56-6,.38-7.13" transform="translate(-51.25 -10.73)"/><path class="cls-1" d="M379.16,164.39a15.6,15.6,0,0,1,1.51-5.3" transform="translate(-51.25 -10.73)"/><path class="cls-1" d="M331.54,87c-.3.9-.62,1.79-.89,2.7a8.12,8.12,0,0,0-.6,2.53,8,8,0,0,0,.66-2.13c.17-.81.75-1.53.84-2.33a9.22,9.22,0,0,0,.18,2.1,3.46,3.46,0,0,0,.24,1.51c.35-.43.26-1,.58-1.5.58.28.22,1.45.81,1.8.64-1.22,2.08-1.2,3-2.15" transform="translate(-51.25 -10.73)"/><path class="cls-1" d="M352.25,123.85v4" transform="translate(-51.25 -10.73)"/><path class="cls-1" d="M349.22,124.6c.22,1.09.6,2.2.76,3.29" transform="translate(-51.25 -10.73)"/><path class="cls-1" d="M345.43,124.6c0,.86.15,1.9.08,2.75,0,.39.17.6-.5.52-1-.11-1.71-2.33-2.62-.87-.64-.2-.56-1.26-1.25-1.4-.35.3-.41,1-.81,1.22s-.65-.17-1-.3a3.1,3.1,0,0,0-2.77.36" transform="translate(-51.25 -10.73)"/><path class="cls-1" d="M321.68,140.77c-.23.8-.42,1.59-.62,2.39-.11.4-.51.91-.45,1.29.82-.11.88-1.11,1.61-1.31.42.54.13,1.21.26,1.82.63-.15.6-1.17,1.23-1.36.75.43.18,1.4.75,1.85.5-.06.15-.93.76-.88.43,0,.42.77.75.93a5.2,5.2,0,0,0,1.78-2.2" transform="translate(-51.25 -10.73)"/><path class="cls-1" d="M329.52,144.06v3.28" transform="translate(-51.25 -10.73)"/><path class="cls-1" d="M331.79,144.31c-.36.92-.47,1.85-.76,2.78" transform="translate(-51.25 -10.73)"/><path class="cls-1" d="M348,145.07a2.61,2.61,0,0,1,1.51.67,9.32,9.32,0,0,0,.95,1.13c.82.63,1.31.25,1.83-.54" transform="translate(-51.25 -10.73)"/><path class="cls-1" d="M355.79,142.29a9.05,9.05,0,0,1,1,2.52" transform="translate(-51.25 -10.73)"/><path class="cls-1" d="M358.32,142.54a30.6,30.6,0,0,0,1.51,3.54" transform="translate(-51.25 -10.73)"/><path class="cls-1" d="M370.42,151.87c-.3,3.88-.2,8.63-.19,12.52" transform="translate(-51.25 -10.73)"/><path class="cls-1" d="M349.73,88.41a2.26,2.26,0,0,0,.31-.49,4.84,4.84,0,0,0,.21-.47c0-.1.05-.21.15-.27s.2.29.4.35.25,0,.3-.18.07-.41.15-.6a4.33,4.33,0,0,1,.38-.78c.12,0,.24.33.31.42a2,2,0,0,0,.81.58c.17.07.35.15.52.24s.28.3.4.24c0-.41-.12-.86.32-1.1a.72.72,0,0,1,.54,0,1.6,1.6,0,0,0,.57.11c.28-.08.31-.49.43-.7a1.15,1.15,0,0,1,.33-.33c.19-.15.32,0,.5.12l.45-1.65c-1.15.51-1.88-.29-2.63-1a13.59,13.59,0,0,0-1-1,1.73,1.73,0,0,1-1.69-.24,1.09,1.09,0,0,1-.33-1.47,1.44,1.44,0,0,0,.25-.78,2,2,0,0,1,1.88-2.17c.66-.12,1.18-.28,1.27-1.21a2.24,2.24,0,0,1,1.77-1.82.61.61,0,0,1,.41.09c.77.75,1.87.57,2.71,1.11.42.28.83,0,1.14-.19a2.17,2.17,0,0,1,2.48.19,2.27,2.27,0,0,0,2.46.18.7.7,0,0,1,.9.18,20.54,20.54,0,0,0,1.81,1.29,2,2,0,0,0,1.64.33,1.39,1.39,0,0,1,1.61.57c.53.91,1.47,1.36,2,2.23a.42.42,0,0,0,.34.26A1.67,1.67,0,0,1,375.14,82a6.91,6.91,0,0,0,.55,1.13.84.84,0,0,1-.57,1.3c-.74.22-.87.43-.65,1.21a4,4,0,0,0,.24,1,2.32,2.32,0,0,0,2.71.44c.32-.28.53-.7,1-.79A10,10,0,0,1,381,91.66a1.36,1.36,0,0,0,.55,1,3.05,3.05,0,0,1,.93.93,2,2,0,0,1-.58,2.6c-1.11.75-1.36,1.47-1,2.91,1.1-.06,1.13-.07,1.51,1,.22.62.89.83,1.09,1.46.06.17.16.35.23.53l-.24-.95a2,2,0,0,1,1.66,0c.66.37,1.54-.44,1.62-1.35s.2-1.54,1.15-1.75c.77-.17,1.36.34,1.14,1.14a3.82,3.82,0,0,0,.58,3.3c.33.49.25,1.12.55,1.66.51.93.9,1.11,1.67.42l.33-.26-.33.52a5.3,5.3,0,0,1,.36,1.21,1.47,1.47,0,0,0,.45.88c1.46,1.54,1.44,3.86-.32,4.84a1.44,1.44,0,0,0-.73,1.22,11.18,11.18,0,0,1-.74,2.34h-.17l1.15,1.91a1.14,1.14,0,0,0,1.15.71c.35,0,.82-.22,1.05.17a5.73,5.73,0,0,1,.94,1.72,1.71,1.71,0,0,1-.76,1.9,2.22,2.22,0,0,0-.94,1.83c0,.69.2.78.68,1,.33.15.92-.2,1,.48l.09-.3c.2-.11.44,0,.66-.12a1.2,1.2,0,0,1,1.57.24c.67.55,1.61.59,2.31,1.2a2.14,2.14,0,0,1,.57.64c.14.32.3.75-.27.86-.32.06-.46.39-.74.55a4.67,4.67,0,0,0,.43,1.53c.11.29.38.57.14.86a1.06,1.06,0,0,1-1.06.44,7.25,7.25,0,0,1-.74-.26v-.26c.1.56-.57.3-.69.77-.33,1.33.06,2.19,1.18,2.53,1.56.48,1.55.49.67,2a3.67,3.67,0,0,0-.26.77h-.24c.58.42.59,1.11.75,1.73,0,.09,0,.07-.09.1a4.41,4.41,0,0,1-3.29,1.22,1.75,1.75,0,0,0-1.48.94.69.69,0,0,0-.08.87c.24.35.45.79,1,.48l-.57.13c-.56.74-1.19,1.45-.63,2.48a1.92,1.92,0,0,1-1.34.76,3.57,3.57,0,0,0-2,1c-.83.82-1.46.81-2.79.08,0,0-.06-.06-.09-.08-1.15-.83-1.24-.85-2.37.09a12.8,12.8,0,0,1-2.15,1.34,4.81,4.81,0,0,1,.07.53l-.15-.4c-.62-.08-1.31-.06-1.6.54-.22.44.16,1,.53,1.37,0,0,0,.11,0,.17-.7,1.12-1,1.25-2.14,1-.89-.17-1.14.12-.9,1l-.58,2.08a5.05,5.05,0,0,1-2,0,.9.9,0,0,0-.66.16,1,1,0,0,1-1.49-.51,2.09,2.09,0,0,0-1.63-1.31,1,1,0,0,0-1.14,1.13l.07-.69c-.84-.41-1.27-1.31-2-1.9a3.79,3.79,0,0,0-2.61-1,6,6,0,0,1-2.54-.44" transform="translate(-51.25 -10.73)"/><path class="cls-1" d="M378.78,127.38c-.14.71-.24,2.69.81,3a3.8,3.8,0,0,0,2.48-1.11c.45-.47.49-.55.33-1.12a10.36,10.36,0,0,0-.65-2C381.51,125.63,380.06,125.27,378.78,127.38Z" transform="translate(-51.25 -10.73)"/><path class="cls-1" d="M364.63,105.15c0,1.1.64,1.08,1.39,1.41s1.49,1,1.86-.34a4.71,4.71,0,0,0,.06-1.83C367.73,103.64,366.37,103.28,364.63,105.15Z" transform="translate(-51.25 -10.73)"/><path class="cls-1" d="M355.28,99.09c.1.27.22,1.11.55,1.25a3.26,3.26,0,0,0,1.17-.24,2.55,2.55,0,0,0,1.6-1.62,1.3,1.3,0,0,0-.77-1.68c-.38-.12-.81-.08-1.23-.24S356.07,96.21,355.28,99.09Z" transform="translate(-51.25 -10.73)"/><path class="cls-1" d="M384.59,112.48c.29.59.49,1.59,1.26,1.52s.86-.51,1.08-1.06.51-1.15.14-1.75C386.87,110.86,386.22,110.33,384.59,112.48Z" transform="translate(-51.25 -10.73)"/><path class="cls-1" d="M367.16,140c.34.93.71,2.65,2.09,2.24.41-.13.74-.61,1.19-.61.6,0,.87.44,1.36-.34.65-1-.34-2.21-1-3-.33-.37-.63-1-1.09-1.23S368.31,137.13,367.16,140Z" transform="translate(-51.25 -10.73)"/><path class="cls-1" d="M292.09,120.86a8.68,8.68,0,0,1,0-1.25c0-.3.3-.57.34-.84a.93.93,0,0,0-.34-.78c-.31-.3-.67-.19-1-.39a1.86,1.86,0,0,1-.61-1.52,3.5,3.5,0,0,0-.51-2.29,13.31,13.31,0,0,0-1.37-2.18,9,9,0,0,1-.9-.85c-.29-.46,0-.75.52-.68.25,0,.5.26.76.31s.55,0,.83.08c.73.12,1.31.72,1.47-.4.09-.55-.32-1.49.52-1.46.24-.5-.75-1.44-1.07-1.69a2.85,2.85,0,0,1-1.25-1.51c-.1-.4-.15-.82-.23-1.23a10,10,0,0,0-.08-1.11c-.17-.56-.55-1-.68-1.59s-.26-1.47-.38-2.21c-.08-.43-.11-.47.33-.61a3,3,0,0,1,.85,0,4.44,4.44,0,0,1,1.07.53c.41.27.35.56.59.88a9.17,9.17,0,0,0,.82.83c.2.21.57.52.79.12l-.13-.2.67-.42c-.63-.53-.15-.93-.18-1.51s-.33-.92-.15-1.48c2.62.18.47-3.41,1.13-4.67.57-1.09,1.75-1.38,1.27-2.76a4.23,4.23,0,0,1-.47-2.77c.17-.67.51-1.21.25-2s-1.63-1.3-1.49-2.11c.1-.59,1.21-1.49,1.53-2.08s1.18-2.2,1.92-2.26c.66.59.84,1.57,1.7,2.06a4.94,4.94,0,0,0,3.72-.06,7.08,7.08,0,0,1-1.69-.86c-.4-.34-.68-.85-1.1-1.17-.91-.68-1.49-1-1.52-2.25,0-.65-.41-2.54-.12-3,.5-.81,2.39.14,3.34-.1.61-.16,1.09-.61,1.71-.71.79-.14.82.18,1.53-.42.41-.35.69-.91,1.14-1.28a4.68,4.68,0,0,0,.95-1.28c.32-.45.9-.47,1.25-.87s.28-.89.51-1.46c.38-.94,2.1-.81,1.59-2.11.56-.59,3.5-.11,4.33-.14.66,0,.86.16,1.22-.44.5-.83-.15-.67.7-1.09a6.67,6.67,0,0,1,2.23-.4c.75,0,1.69.4,2.37.19s.79-1.09,1.54-1.23,1.2.63,1.86,1c1.34-.88,1.49-.49,2,1s.92,2.73,1.42,4.08" transform="translate(-51.25 -10.73)"/><path class="cls-1" d="M315.87,143.17c-.72.11-1.35-.51-2-.06,0,1.53-.91,1.34-2.07,1.61" transform="translate(-51.25 -10.73)"/><path class="cls-1" d="M322.7,92c-1.62-5.88-2.2-11.91-3.31-17.9-.43-2.3-1.46-4.43-1.93-6.71a40.85,40.85,0,0,1-.45-8" transform="translate(-51.25 -10.73)"/><path class="cls-1" d="M315.87,67.38c-1.22-.6-3.39-1.37-3.41-3" transform="translate(-51.25 -10.73)"/><path class="cls-1" d="M319.28,70a3.79,3.79,0,0,0,2.28-3.6,12.88,12.88,0,0,1,0-1.52c.07-.59.5-1.09.4-1.71" transform="translate(-51.25 -10.73)"/><path class="cls-1" d="M318.53,74.58a6.78,6.78,0,0,1-2.15.26,2.28,2.28,0,0,1-1.27-.38c-.27-.16-.47-.43-.75-.57s-.67,0-1,.07a2.34,2.34,0,0,1-1.55-.38,10.85,10.85,0,0,0-1.14-.77,2.93,2.93,0,0,0-1.33-.5" transform="translate(-51.25 -10.73)"/><path class="cls-1" d="M313.85,73.7a5,5,0,0,0-.75-2.53,14.21,14.21,0,0,0-1.39-1.51" transform="translate(-51.25 -10.73)"/><path class="cls-1" d="M320.17,75.34c.31-.8.63-1.35,1.53-1.49a3.5,3.5,0,0,0,1-.15,5,5,0,0,0,1-.7c.47-.37,1-.73,1.43-1.13a5.71,5.71,0,0,0,.88-1.13,2.61,2.61,0,0,1,1-.95,4,4,0,0,0,1.41-2.28" transform="translate(-51.25 -10.73)"/><path class="cls-1" d="M325.35,69.91a5.18,5.18,0,0,1,0-.79c.06-.28.35-.5.52-.69A5.79,5.79,0,0,0,327,67" transform="translate(-51.25 -10.73)"/><path class="cls-1" d="M322.7,74.46a1.41,1.41,0,0,0,.94.55c.37.06.6-.14.95-.23s.76,0,1.13-.18A10.13,10.13,0,0,0,327,74" transform="translate(-51.25 -10.73)"/><path class="cls-1" d="M320.42,83.42a4.3,4.3,0,0,0-.74-2.12,5.26,5.26,0,0,0-2.49-1,22.84,22.84,0,0,0-3.77-.46,24.61,24.61,0,0,1-3.3-.93,11.64,11.64,0,0,0-2.34-.37c-.24,0-.48-.14-.73,0a3.73,3.73,0,0,0-.57.41,6.57,6.57,0,0,0-1.05,1" transform="translate(-51.25 -10.73)"/><path class="cls-1" d="M322.7,88.86c.13-.42.26-1,.67-1.28a3.94,3.94,0,0,1,1.28-.31A4.15,4.15,0,0,0,327,86.08" transform="translate(-51.25 -10.73)"/><path class="cls-1" d="M321.56,82.41a16.41,16.41,0,0,1,2.12-1.8c1.06-.53,2.23-.66,3.06-1.61" transform="translate(-51.25 -10.73)"/><path class="cls-1" d="M324,81.66c.31.08.6.23.91.31a2.1,2.1,0,0,0,1.08-.06,8.8,8.8,0,0,1,1.92,0" transform="translate(-51.25 -10.73)"/><path class="cls-1" d="M321,87a8,8,0,0,1-1.35,1.6,3.94,3.94,0,0,1-1.89.77,11.47,11.47,0,0,0-3.18.66c-1,.49-2,1.2-3,1.77s-2.3,1.21-3.46,1.78a2.66,2.66,0,0,1-1.56.44c-.4-.09-.54-.56-.7-.89" transform="translate(-51.25 -10.73)"/><path class="cls-1" d="M310.5,91.18a3,3,0,0,0-1.4-1.24,2,2,0,0,0-.93.06,9.51,9.51,0,0,1-1.07,0,6.9,6.9,0,0,1-3.53-.81" transform="translate(-51.25 -10.73)"/><path class="cls-1" d="M307.41,89.65c.16-.69-.27-.59-.67-1-.22-.24-.32-.57-.52-.83a5,5,0,0,0-.79-.66" transform="translate(-51.25 -10.73)"/><path class="cls-1" d="M311.83,79.64a2.1,2.1,0,0,0-.34-1.1,4,4,0,0,0-1.1-.85c-1-.58-2.22-.59-3.21-1.27-.27-.19-.47-.43-.72-.64a2.45,2.45,0,0,0-.88-.45,8.74,8.74,0,0,0-1.33-.37" transform="translate(-51.25 -10.73)"/><path class="cls-1" d="M317.26,81.53c-.29.36-.44.78-.73,1.15a1.11,1.11,0,0,0-.26.4.93.93,0,0,1,0,.33c-.33.85-1.5.2-2,.65" transform="translate(-51.25 -10.73)"/><path class="cls-1" d="M321.81,92.9c-.42.42-.88.82-1.25,1.27-.55.67-1.05,1.34-1.63,2-1,1.17-2.12,2.28-3.23,3.37a7.76,7.76,0,0,1-2,1.54,12.67,12.67,0,0,1-2.9.9,35,35,0,0,0-3.84.68,6.28,6.28,0,0,0-3,1.62" transform="translate(-51.25 -10.73)"/><path class="cls-1" d="M320.93,112.1a11.25,11.25,0,0,0-1.41-.25c-.65-.1-1.28-.27-1.93-.39-.37-.07-.74-.11-1.11-.19s-1-.33-1.49-.49a9.56,9.56,0,0,0-3-.46,4.74,4.74,0,0,0-1.35.19,3.36,3.36,0,0,1-.95.33" transform="translate(-51.25 -10.73)"/><path class="cls-1" d="M315.75,110.46a3.63,3.63,0,0,0-1.73-2.09,6.52,6.52,0,0,0-1.82-.28,13.55,13.55,0,0,0-1.38-.29" transform="translate(-51.25 -10.73)"/><path class="cls-1" d="M315.87,100.6c-.29.83-.17,1.74-.92,2.37a3.45,3.45,0,0,1-2.11.78,4.51,4.51,0,0,0-2.14.52" transform="translate(-51.25 -10.73)"/><path class="cls-1" d="M320.3,96.06c-.25.57,0,1,.11,1.59a3.56,3.56,0,0,1-.31,2c-.32.69-1.21,1.83-2.08,1.84" transform="translate(-51.25 -10.73)"/><path class="cls-1" d="M318.53,96.06a7.83,7.83,0,0,0-2.21.39,16,16,0,0,0-3,1.56c-.32.22-1,.84-1.38.67-.2-.08-.34-.33-.5-.45a4.51,4.51,0,0,0-.89-.41" transform="translate(-51.25 -10.73)"/><path class="cls-1" d="M306.4,144.69c.06,3-.62,6-1,9-.2,1.86-.35,3.72-.37,5.58" transform="translate(-51.25 -10.73)"/><path class="cls-1" d="M308.67,148.1a20.25,20.25,0,0,1-.14,5.71c-.13,1.7-.64,3.81,0,5.47" transform="translate(-51.25 -10.73)"/><path class="cls-1" d="M314.74,144.69a32,32,0,0,1-.42,5.94,32.41,32.41,0,0,0-.69,4.68,32.9,32.9,0,0,1-.22,4" transform="translate(-51.25 -10.73)"/><path class="cls-1" d="M318.92,154.1c0,1.51-.39,4.61-.39,6.12" transform="translate(-51.25 -10.73)"/><path class="cls-1" d="M326.11,165.15a12.78,12.78,0,0,1,0-3.27,23.64,23.64,0,0,1,.37-4.12" transform="translate(-51.25 -10.73)"/><path class="cls-1" d="M105.53,226.82c-4.7-.53-6.9.53-9.29,2-.73.44-2.21,1.12-1.92,2.26.21.8,1.7,1.57,2.44,1.78a9.23,9.23,0,0,0,2.59.61c1.1-.05,5.6.23,6.84.29a7.35,7.35,0,0,1,1.24.05,12.29,12.29,0,0,0,3.13-.47,12.86,12.86,0,0,0,1.51-.39,6.88,6.88,0,0,0,1-.78c.6-.5,1.68-1,1.59-1.77a4,4,0,0,0-1.74-2.33C112.39,227.62,106,226.89,105.53,226.82Z" transform="translate(-51.25 -10.73)"/><path class="cls-1" d="M90.87,242.82c.1-2.18,0-10.57,0-12.75,1-2.78,4.62-4.6,7.31-5.62,3,.32,5.8-1.29,8.82-.73,2.45.25,5.48-.26,7.33,1.79,1.35,1.6,4.88,2.06,4.74,4.49-.43,4.33.16,8.55.15,12.82" transform="translate(-51.25 -10.73)"/><path class="cls-1" d="M91.1,235a4,4,0,0,0,.48.61,7.08,7.08,0,0,0,.89.51c.38.19.77.29,1.16.46s.74.3,1.12.45a7.29,7.29,0,0,0,1.51.52c.56.09,1.15.06,1.71.15.36.06.7.2,1,.29a2.89,2.89,0,0,0,.88.08c.24,0,.44-.16.67-.16" transform="translate(-51.25 -10.73)"/><path class="cls-1" d="M108.85,240.5a3,3,0,0,0,1.09.36,4.5,4.5,0,0,0,1.45-.33c.9-.3,1.82-.61,2.69-1,.28-.12.56-.28.85-.4s.36-.11.53-.19a3.59,3.59,0,0,0,.63-.45" transform="translate(-51.25 -10.73)"/><path class="cls-1" d="M114.37,240a13.4,13.4,0,0,1,.22,2.61" transform="translate(-51.25 -10.73)"/><path class="cls-1" d="M94.6,238.19c.06,1,.14,1.94.23,2.91" transform="translate(-51.25 -10.73)"/><path class="cls-1" d="M99.6,238.89c.11,1,.19,2,.3,3" transform="translate(-51.25 -10.73)"/><path class="cls-1" d="M110.49,237.67a15.28,15.28,0,0,0,.13,1.65,1.12,1.12,0,0,0,.17.74" transform="translate(-51.25 -10.73)"/><path class="cls-1" d="M117.21,231.89a7.37,7.37,0,0,1-.54,1.09,11.61,11.61,0,0,1-1.25,1.37" transform="translate(-51.25 -10.73)"/><path class="cls-1" d="M94.78,242.34c-.65-2.47-.44-5.59-.53-8.15-.13-3.86-.13-7.7,0-11.54.12-3.33.34-6.66.26-10-.05-1.75-.36-3.48-.32-5.22" transform="translate(-51.25 -10.73)"/><path class="cls-1" d="M90.2,242.34c0-11.17.6-22.3.6-33.47" transform="translate(-51.25 -10.73)"/><path class="cls-1" d="M122.11,246.81a152.59,152.59,0,0,1,0-20.51c.13-2.41.3-4.81.3-7.23a21.09,21.09,0,0,0-.31-5.38" transform="translate(-51.25 -10.73)"/><path class="cls-1" d="M126.59,247.41c-.18-4-.62-8-.61-12,0-4.63.08-9.25,0-13.87,0-2.84-.49-5.59-.62-8.4" transform="translate(-51.25 -10.73)"/><path class="cls-1" d="M90.82,204h1a2.71,2.71,0,0,1,1.06.35l1,.46a19.77,19.77,0,0,0,2,.71c1.9.7,3.81,1.33,5.74,1.95,1.77.58,3.53,1.19,5.3,1.79,1.07.36,2.19.55,3.29.81s2.08.56,3.12.86c1.59.45,3.18.85,4.74,1.43s2.82,1.43,4.33,1.89c.56.17,1.13.28,1.69.45a2,2,0,0,1,1,.45" transform="translate(-51.25 -10.73)"/><path class="cls-1" d="M90.23,207.36a2.7,2.7,0,0,1,1.29.14,8.29,8.29,0,0,1,1.25.88c.47.36.83.78,1.33,1.12a5,5,0,0,0,1.07.52c.47.16.85.38,1.3.58s1.24.51,1.86.74c.85.31,1.74.48,2.59.79,1.94.7,3.85,1.51,5.76,2.29s3.91,1.29,5.91,1.79c1.62.47,3.23.95,4.81,1.54a6.52,6.52,0,0,0,1.23.39,3.67,3.67,0,0,1,.85.22c.86.34,1.72.7,2.59,1s1.53.49,2.29.73a6.43,6.43,0,0,0,.76.17.53.53,0,0,1,.42.12" transform="translate(-51.25 -10.73)"/><path class="cls-1" d="M89.71,199.4a8,8,0,0,0-1.72.53,6,6,0,0,0-1.25,1,9.27,9.27,0,0,0-2.59,6.18,9.82,9.82,0,0,0,.23,2.23c.11.51.23,1,.37,1.51a6.4,6.4,0,0,0,1.47,2,5.36,5.36,0,0,0,3.66,1.7c.91,0,1.8-.25,2.71-.29" transform="translate(-51.25 -10.73)"/><path class="cls-1" d="M102.46,208.25a5.45,5.45,0,0,0-.75,2.64c0,.46.18,1.4.81,1.22a2.28,2.28,0,0,0,1.35-1.16,7.62,7.62,0,0,0,.44-1.21,4.47,4.47,0,0,0,.25-1.14c-.5,0-.91,1.15-1,1.53-.2.68-.65,2.09.34,2.34a1.53,1.53,0,0,0,1.19-.41,6.79,6.79,0,0,0,1.31-2c.15-.28,1.08-2,.47-2.13a3.82,3.82,0,0,0-.69,1.23,7.26,7.26,0,0,0-.56,2,3.83,3.83,0,0,0,.36,2.42c.19.32.5.79.88.86.92.18,1.45-1.29,1.72-1.95a14.48,14.48,0,0,0,.61-1.9,4.87,4.87,0,0,0,.24-1.69c-.52.14-.76.68-1,1.15A5.18,5.18,0,0,0,108,212c0,.69,0,2.15.88,2.45s1.15-.29,1.48-.9a5.8,5.8,0,0,0,.64-3c0-.56-.07-1.43-.62-1.79a1.14,1.14,0,0,0-1.2.4l-.56.75a5.57,5.57,0,0,0-.37,3.37" transform="translate(-51.25 -10.73)"/><path class="cls-1" d="M104.65,212.89a40.53,40.53,0,0,1,.13,5.17c-.06,2.51-.12,5,0,7.51s.18,4.87.31,7.31" transform="translate(-51.25 -10.73)"/><path class="cls-1" d="M308.5,168.64a17.11,17.11,0,0,1-.36-2.95,12.23,12.23,0,0,1-.12-1.81" transform="translate(-51.25 -10.73)"/><path class="cls-1" d="M311.35,168.4c-.11-1.6-.25-3.16-.24-4.76" transform="translate(-51.25 -10.73)"/><path class="cls-1" d="M345.31,169.51a8.8,8.8,0,0,1-.71-4" transform="translate(-51.25 -10.73)"/><path class="cls-1" d="M349.1,172.59a26.78,26.78,0,0,1-.71-5.22" transform="translate(-51.25 -10.73)"/><path class="cls-1" d="M351.71,172.36c-.5-1.63-.23-3.53-.23-5.22" transform="translate(-51.25 -10.73)"/><path class="cls-1" d="M353.85,175.68a35.72,35.72,0,0,1,0-4.51" transform="translate(-51.25 -10.73)"/></svg>