<svg id="Capa_1" data-name="Capa 1" xmlns="http://www.w3.org/2000/svg" viewBox="0 0 22.67 26.61"><defs><style>.cls-1,.cls-2{fill:none;stroke:#1d1d1b;stroke-linecap:round;}.cls-1{stroke-miterlimit:10;}.cls-2{stroke-linejoin:round;}</style></defs><circle class="cls-1" cx="11.33" cy="5.8" r="5.3"/><path class="cls-2" d="M7,14.71A30.05,30.05,0,0,0,5.74,25.38a1.23,1.23,0,0,0,1.22,1c2.26.07,1.26-4.72,4.64-4.72" transform="translate(-0.26 -0.31)"/><path class="cls-2" d="M16.24,14.71a30.05,30.05,0,0,1,1.21,10.67,1.23,1.23,0,0,1-1.22,1C14,26.49,15,21.7,11.6,21.7" transform="translate(-0.26 -0.31)"/><path class="cls-2" d="M7,14.71s-1.77-.21-3.83,3.5A1.26,1.26,0,0,1,.85,18h0a1.41,1.41,0,0,1-.09-.49A9.57,9.57,0,0,1,6.9,9.2" transform="translate(-0.26 -0.31)"/><path class="cls-2" d="M16.24,14.71s1.78-.21,3.83,3.5A1.26,1.26,0,0,0,22.34,18h0a1.41,1.41,0,0,0,.09-.49A9.57,9.57,0,0,0,16.29,9.2" transform="translate(-0.26 -0.31)"/></svg>