<svg id="Capa_1" data-name="Capa 1" xmlns="http://www.w3.org/2000/svg" viewBox="0 0 141.73 141.73"><defs><style>.cls-1{fill:#fff;}</style></defs><path class="cls-1" d="M141.73,64.11H130.46A60.08,60.08,0,0,0,77.63,11.27V0H64.11V11.27A60.08,60.08,0,0,0,11.27,64.11H0V77.63H11.27a60.08,60.08,0,0,0,52.84,52.83v11.27H77.63V130.46a60.08,60.08,0,0,0,52.83-52.83h11.27Zm-24.9,0H77.63V24.9A46.57,46.57,0,0,1,116.83,64.11ZM64.11,24.9V64.11H24.9A46.57,46.57,0,0,1,64.11,24.9ZM24.9,77.63H64.11v39.2A46.57,46.57,0,0,1,24.9,77.63Zm52.73,39.2V77.63h39.2A46.57,46.57,0,0,1,77.63,116.83Z"/><path d="M141.73,69.46H125.48a54.69,54.69,0,0,0-53.21-53.2V0H69.46V16.26a54.68,54.68,0,0,0-53.2,53.2H0v2.81H16.26a54.69,54.69,0,0,0,53.2,53.21v16.25h2.81V125.48a54.71,54.71,0,0,0,53.21-53.21h16.25Zm-19.07,0H72.27V19.07A51.89,51.89,0,0,1,122.66,69.46ZM69.46,19.07V69.46H19.07A51.89,51.89,0,0,1,69.46,19.07ZM19.07,72.27H69.46v50.39A51.88,51.88,0,0,1,19.07,72.27Zm53.2,50.39V72.27h50.39A51.88,51.88,0,0,1,72.27,122.66Z"/><circle class="cls-1" cx="70.87" cy="70.87" r="38.56"/><circle cx="70.87" cy="70.87" r="31.95"/><polygon class="cls-1" points="107.08 69.46 72.27 69.46 72.27 34.37 69.46 34.37 69.46 69.46 34.37 69.46 34.37 72.28 69.46 72.28 69.46 107.08 72.27 107.08 72.27 72.28 107.08 72.28 107.08 69.46"/></svg>