<svg xmlns="http://www.w3.org/2000/svg" viewBox="0 0 390.61 573.69"><defs><style>.a,.f{fill:#ff6854;}.b{fill:#414141;}.c{fill:#9b65d9;}.d{fill:#823ecf;}.e{fill:#7400a7;}.f{stroke:#ff6854;stroke-miterlimit:10;stroke-width:0.98px;}</style></defs><path class="a" d="M447.87,520.39Z" transform="translate(-89.89 -78.48)"/><polygon class="a" points="341.59 395.96 341.59 395.96 341.59 395.96 341.59 395.96"/><path class="a" d="M441.69,532.83" transform="translate(-89.89 -78.48)"/><polygon class="a" points="254.38 526.59 254.38 526.59 254.38 526.59 254.38 526.59"/><path class="a" d="M241.78,430.64Z" transform="translate(-89.89 -78.48)"/><polygon class="a" points="254.72 472.21 254.72 472.21 254.72 472.22 254.72 472.21"/><path class="a" d="M410,567.92Z" transform="translate(-89.89 -78.48)"/><path class="a" d="M480.24,273.82a12.63,12.63,0,0,1,0-6.11,4.94,4.94,0,0,0,.08-2.69,8.94,8.94,0,0,1-.37-3.93,11.43,11.43,0,0,0-.34-3.55c-.37-1.33-.05-2.82-.21-4.28-.27-2.39-1.38-4.62-1.26-7.07a1.68,1.68,0,0,0-.21-.69,3,3,0,0,1-.21-1.61c.18-1.49-.87-2.75-.77-4.21-1.33-1.24-.47-3.22-1.54-4.55.3-1.18-.61-2-.91-3-.42-1.38-1.08-2.69-.8-4.21a.86.86,0,0,0-.26-.64,1.93,1.93,0,0,1-.44-1.72,2.56,2.56,0,0,0-.22-1.59c-.69-1.15-.28-2.67-1.36-3.67a.74.74,0,0,1,0-.68c.62-.92.19-1.87.15-2.8.6-.76-.53-1-.45-1.72.34-2.83-.7-5.44-1.38-8.1h0l-.34-.38v-.71c-.16-.88-1.65-1.37-.78-2.57h0a.94.94,0,0,0-.33-1.47,1,1,0,0,1-.44-1.46v-.69a15,15,0,0,0-1.42-5.26,2.08,2.08,0,0,1-.34-1.71c.53-1.72-.14-3.37-.45-5-.09-.08-.25-.15-.26-.24-.22-1.29-1.22-2.29-1.41-3.57,0-.3,0-.63-.35-.78-.71-.32-.57-.92-.64-1.54-.12-1.37-.44-2.73-.5-4.09,0-.89-1.07-1.18-1-2.08.05-.57.17-1.31-.86-1.08.09-.88-1.3-1.4-.75-2.28s0-1.51-.46-2.15a3.45,3.45,0,0,1-.52-.73c-.71-1.67-1.14-3.43-1.78-5.15-.66-1.88-1.14-3.87-2-5.71-.54-1.21-.94-2.64-2.07-3.47a2,2,0,0,1-.82-1.5c-.13-1.21-1.14-2.14-1.06-3.4-1-.37-.4-1.57-.87-2-.73-.64-.51-1.43-.79-2-.57-1.3-.74-2.7-1.26-4a5.06,5.06,0,0,0-.65-.87c-.3-.43-.63-.9-.95-1.27-1.43-1.66-2.47-3.66-4.39-4.92a5.13,5.13,0,0,1-2.19-3.46,6.22,6.22,0,0,0-1.77-3.43c-.44-.39-1.31-.23-1.33-1s-.62-1-1.15-1.21-.95-.81-1.4-1.25c-1.53-1.5-2.79-3.3-4.74-4.38-1.52-.85-2.8-2-2.86-3.93,0-.4-.31-.47-.64-.26s-.48.23-.44-.17c.16-1.37-.79-2.28-1.57-3.09a5.52,5.52,0,0,0-3-1.89c-.6-.1-1.41-.23-1.71-.88a15.8,15.8,0,0,0-1.93-2.29,11.4,11.4,0,0,0-4.78-3.8c-1.14-.48-2.1-1.33-3.37-1.62a2.3,2.3,0,0,1-1.41-1.3,3.44,3.44,0,0,0-1.54-1.72,2,2,0,0,1-.91-2c-1.5-.81-2.11-2.58-3.63-3.34h0c-3.13-1.72-6.3-3.36-9.88-3.9-.92-2.13-3.15-1.51-4.67-2.32a31.7,31.7,0,0,0-5.72-2.35A50.6,50.6,0,0,0,372,83.56h0c-1.71-.69-3.94-.4-5.35-1.33-2.22-1.46-4.67-.81-6.86-1.64s-4.31,0-6.44-.5a20.62,20.62,0,0,0-3.32-.32c-2.45-.16-5,1-7.36-.57a.56.56,0,0,0-.51-.12c-1.33.54-2.59,0-3.87-.2-2.06-.39-4.08-.95-5.89.84a2.53,2.53,0,0,1-2.25.47c-1.64-.43-3.24.61-4.88.06a1.14,1.14,0,0,0-1,.38,3.91,3.91,0,0,1-3,1,7.75,7.75,0,0,0-4.73,1.57c-1,.73-2.15,1.29-3.24,1.91h0a.94.94,0,0,0-.42.34c-.33.46-1,.39-1.35.87a16.81,16.81,0,0,1-4.21,3.9,9.57,9.57,0,0,0-2.39,2.19c-1.56,2.09-3.74,3.57-5.32,5.62-.3.38-.85.36-1.14.83a22.47,22.47,0,0,1-6.19,6.4,10.24,10.24,0,0,0-2.35,1.67,62,62,0,0,1-4.09,5.18,2,2,0,0,1-2.16.84,2.4,2.4,0,0,1-2,1.85,2.13,2.13,0,0,0-1.72,1.42c-.17.38-.24.84-.6,1.11-1.88,1.42-3,3.66-5,4.93a2.56,2.56,0,0,0-.85.94,31.62,31.62,0,0,1-4.84,6.09,45.47,45.47,0,0,0-3.26,3.85c-1.27,1.68-2.25,3.55-3.43,5.29-.79,1.14-2,2-2.51,3.29a16.94,16.94,0,0,1-3.55,5.36,25.94,25.94,0,0,0-3.52,4.63c-.83,1.4-2.06,2.73-1.65,4.61.06.3-.2.57-.39.79a25.09,25.09,0,0,0-2.29,4.07c-.93,1.72-2.11,3.4-2.52,5.4a3.21,3.21,0,0,1-.64,1.31c-1.71,2.12-2.39,4.72-3.51,7.11-.58,1.26-.76,2.72-1.39,3.91a45.31,45.31,0,0,0-2.68,7.67,39.39,39.39,0,0,1-2.12,5.53,10.47,10.47,0,0,0-1,2.53c-.23,1.18-.39,2.4-1.52,3.16-.35.23-.28.66-.34,1a7.73,7.73,0,0,1-1.15,3.43,1.78,1.78,0,0,0-.3,1.72,2.31,2.31,0,0,1-.46,2.05,11,11,0,0,0-1.52,2.64c-.43,2.07-1.22,4-1.6,6.09a30.67,30.67,0,0,0-.67,5.39c0,1.9-.88,3.66-1.06,5.52a53.5,53.5,0,0,1-2,10.87,48.86,48.86,0,0,0-2,8.45,82.58,82.58,0,0,0-.88,8.45,23.46,23.46,0,0,1-1.27,5.65c-.17.64-.33.83.35,1.22,1.2.68,1.21,1.15.32,2.37a1.15,1.15,0,0,0-.32.82c.13,1.08-.45,2-.61,3-.19,1.31-1.28,2.29-1.14,3.66-.27.17-.19.5-.32.74h0a5.23,5.23,0,0,0-.52,1.81c-.25,1,.48,2-.22,2.92a1.32,1.32,0,0,0-.09.3c-1.09,2.52,0,5.19-.48,7.75a2,2,0,0,0,.17,1.72h0c.21,1.8-.33,3.67.53,5.42a1.09,1.09,0,0,1-.36,1.29c-.53.45-.57,1.14-1,1.67-.54,1.66-1.52,3.19-1.54,5,0,3.51-1.09,6.86-1.25,10.39a49.45,49.45,0,0,1-.87,5.67,92,92,0,0,0-.68,9.72c-.15,2.41.46,4.83-.25,7.21a.79.79,0,0,0,.29,1c1,.44.88,1.15.65,2a2.61,2.61,0,0,0,.05,1.44,6.28,6.28,0,0,1,.57,2.25,28.32,28.32,0,0,0,.85,6.21c.26,1,1.54,1.42,1.19,2.65a2.69,2.69,0,0,0,.73,2.29c1.37,1.64,1.44,3.7,2.13,5.56a1.65,1.65,0,0,0,.06.32c.37.58-.15,1.3.35,1.83a1.88,1.88,0,0,0,.07.58,19.6,19.6,0,0,1,2.09,6.29,2,2,0,0,0,.32.84,6.68,6.68,0,0,1,.77,3.5,15.4,15.4,0,0,0,.14,2.54c.5,2.55.73,5.14,1,7.71-.08,2.14.87,4.11,1,6.2a34.13,34.13,0,0,0,1.82,8.88,2.12,2.12,0,0,0,.57,1.28,3,3,0,0,0,.38.33,1.6,1.6,0,0,1,.36.49,1,1,0,0,0,.08.39c0,.72-.4,1.37-.36,2.1a9,9,0,0,0,1.65,5.19,10.07,10.07,0,0,1,1.3,3.25,32.43,32.43,0,0,0,2.17,6.21c1.18,2.56,3.34,4.73,3.4,7.81,0,.57.65,1.11,1.06,1.63,2.08,2.63,4,5.37,5.87,8.16a10.43,10.43,0,0,1,3,4.58,10.78,10.78,0,0,0,1.49,3.23c2.56,3.35,4.33,7.18,6.5,10.76.26.44.4,1,.86,1.21a4.76,4.76,0,0,1,2.19,2.82,3.36,3.36,0,0,0,1.14,1.72c1.87,1.2,2.8,3.24,4.36,4.7a5.37,5.37,0,0,1,1.47,1.61c1.25,2.92,3.23,5.38,5,8l-.07,0a.93.93,0,0,0,.41.42v-.06a4.39,4.39,0,0,0,1.41,1.83,23.54,23.54,0,0,1,4.74,4.22c1.14,1.46,1.92,3.31,4,3.88.1,0,.13.21.23.26,2.86,1.72,5.2,4.35,8.79,4.76a8.57,8.57,0,0,1,4,1.56,1.37,1.37,0,0,0,.53.08h.26a38.58,38.58,0,0,1,6.17-.28c1.41.07,2.78.83,4.22.26.11,0,.22-.06.34-.07a.45.45,0,0,1,.63-.06l.08.09h0c.89.26,1.62,1,2.59,1a14.42,14.42,0,0,0,5.08,1,16.61,16.61,0,0,1,2.64,0c2.37.66,4.62-.68,6.95-.23a.76.76,0,0,0,.52-.15c.93-.81,2-.36,3-.35a20.15,20.15,0,0,0,5-.26,7.37,7.37,0,0,0-.72,4.1c.26,1.61.5,3.23.82,4.8.54,2.66,1.15,5.31,1.72,8a11.72,11.72,0,0,0,1.28,3.16c.52,1-.24,2.25.07,3.38a51.72,51.72,0,0,1,1,5.51,108.12,108.12,0,0,1,1.36,16.27c0,1.14,0,2.29,0,3.43.07,1.68-.37,2.56-1.88,3a8.26,8.26,0,0,0-2.1,1c-1.84,1.15-3.27,2.86-5.14,4a4.89,4.89,0,0,0-1.34,1.18,6.09,6.09,0,0,1-3.69,2.44,1.53,1.53,0,0,1-.41.31h0c-2.92,1-3.62,4.26-5.88,6-.61.48,0,2.42-1.88,1.79-.11,0-.36.31-.44.53a4,4,0,0,1-1.72,1.71,11.37,11.37,0,0,0-2.45,2h0c-.41,1.45-2.24,1.06-2.86,2.24-.11.21-.18.57-.35.61a7.3,7.3,0,0,0-2.86,2.11,20.54,20.54,0,0,1-2.73,2.79c-.46.33-1.1.12-1.36.67-.61,1.3-1.83,1.87-3,2.54-.22.21-.15.53-.33.76a.77.77,0,0,1-.11.3.61.61,0,0,1-.32.35h0c-1.84,1.57-4,2.73-5.39,4.84h0a.77.77,0,0,0-.39.34h0c-1,.07-1.42,1-2.2,1.44h0a1.9,1.9,0,0,0-.35.4l-1.1.7c-.23.18-.15.54-.41.7h0a12.91,12.91,0,0,1-.7,1.11c-.32,1.08-1.77.51-2.18,1.47h0a2.1,2.1,0,0,0-.36.37h0a3.53,3.53,0,0,1-2.94,1.09,4.47,4.47,0,0,0-2.15,0,2.31,2.31,0,0,0-1,1.85c-.18,4.54.22,9.09-.23,13.64a4,4,0,0,0,.87,3.37,1,1,0,0,1,.17,1.18,7.17,7.17,0,0,0-.31,3.31h0c1.06,1.05-.19,2-.18,3,0,2.51.6,5,.49,7.51a4.62,4.62,0,0,0,1,3.4,1.11,1.11,0,0,1,.07,1.5,1.23,1.23,0,0,0-.22.46c0,1.45,1.22,2.5,1.15,4a10.73,10.73,0,0,0,.39,2.64c.27,1.39,1.28,2.46,1.45,3.81a1.82,1.82,0,0,0,1.55,1.72,2.89,2.89,0,0,0,1.27-.26c1-1,2.07-1.72,1.15-3.64a6.39,6.39,0,0,1-.05-4,14.43,14.43,0,0,0,.57-4.71,11.07,11.07,0,0,1,0-1.41c.46-2.81,0-5.6-.1-8.4a5.74,5.74,0,0,0-.18-.58,14.42,14.42,0,0,1-.51-8.71c.67-2.63-.65-5.33.27-8,.15-.44-.25-.76-.39-1.15-.47-1.3-.91-2.65-.16-4a1.56,1.56,0,0,0,.3-.77c.53-1.61,1.33-2.9,3.28-2.9a1.26,1.26,0,0,0,.51-.07,1.41,1.41,0,0,0,.39-.34,1.62,1.62,0,0,0,.17-.48c.19-.92,1.15-.7,1.67-1.14a2.85,2.85,0,0,0,.38-.31c.95-.81,2.35-1.21,2.34-2.86,0-.37.61-.63,1-.72a5.94,5.94,0,0,0,2.86-2.07,6.41,6.41,0,0,1,1.87-1.3c.33-.53.67-1.05,1.42-1l.42-.12a3.38,3.38,0,0,1,.42-.13,2.52,2.52,0,0,0,.61-.18.82.82,0,0,0,.36-.21h0a1.57,1.57,0,0,0,.72-.74h0c.3-.34.8-.39,1.09-.75h0a3.44,3.44,0,0,0,1.32-3.18c0-.34-.22-.84.17-1,1.8-.71,2.73-2.75,4.75-3.12h0a1.49,1.49,0,0,0,.36-.39,1.52,1.52,0,0,0,1.22-1.33,2.68,2.68,0,0,1,1.35-2.21c.21-.1.27-.5.39-.77a1.56,1.56,0,0,0,.33-1.19c0-.1-.07-.21-.1-.31,1.4,1.71,1.78-.54,2.7-.69h0a14.51,14.51,0,0,1,5.87-5.33,1,1,0,0,0,.91-.32,5.15,5.15,0,0,1,.94-1.14l.16-.19c.09-.14.18-.27.28-.4a2.74,2.74,0,0,1,.36-.32c.81-.37,1.39-1.14,2.29-1.37s1.06-1.31,1.93-1.54h0a.71.71,0,0,0,.45-.9.69.69,0,0,0-.1-.19s0-.07,0-.1c1.78-.57,3.07-2,4.79-2.77h0c.15-.27.51-.17.68-.41,1.36-.22,2.19.11,2.05,1.72a2.72,2.72,0,0,0,.17,1.92,33.1,33.1,0,0,1,.72,4.42c.07,2.61.86,5.14.79,7.76a3.28,3.28,0,0,0,.31,1.22c1.15,2.82,1.49,5.85,2,8.79a47.5,47.5,0,0,1,1,7.33c.18,5.78,1.78,11.43,2.14,17.2a4.2,4.2,0,0,0,.33,1c.2,2.59.93,5.11,1.05,7.71a1,1,0,0,1,0,1.14l-.05.69a41,41,0,0,1,1.5,6.93h0c.51,2.07.18,4.26,1.1,6.29s.33,4.25,2,5.92a2.57,2.57,0,0,1,.44,1.63,7.44,7.44,0,0,0,.66,2.62,9.58,9.58,0,0,1,.76,3.65c.15,2.29,0,4.67.84,6.91a1.49,1.49,0,0,1,.09.3c.07,1.72.33,3.44.5,5.19.48,1.61,1.1,3.13,2.7,4a.9.9,0,0,1,.57.67c0,.76.31,1.4,1.14,1.3,1.08-.14.94-1.15,1-1.86.08-2.36.67-4.68.61-7,.13-.66-.64-1-.57-1.63.23-2.22-.53-4.32-.82-6.48a2.67,2.67,0,0,0-.34-1.51,2.42,2.42,0,0,1-.12-2.54,4,4,0,0,0-1-4.12,3,3,0,0,1-1.11-3.12A6.69,6.69,0,0,0,354,621c-1.6-.3-1.77-1.41-1.78-2.8,0-2.41-1-4.75-.69-7.21a.93.93,0,0,0-.13-.69c-1-1.09-.58-2.38-.58-3.61a2.08,2.08,0,0,0,.08-1,3.37,3.37,0,0,1-.93-3.43,26.1,26.1,0,0,0,.73-3.87,3.26,3.26,0,0,1,0-1.32,4.67,4.67,0,0,0-.06-1.9l-.27-.46a12.43,12.43,0,0,1-1.44-6.46v-.75a13,13,0,0,0-.47-4.44v-.5a2.56,2.56,0,0,0-.19-1.06c-.13-.46-.2-1.07-.82-1a.6.6,0,0,0-.57.35,7.86,7.86,0,0,0,.57-2.48c-.19-1.91.57-3.75.19-5.72a30.15,30.15,0,0,0-1.86-6.65.65.65,0,0,1,0-.34c.31-.29.17-.67.21-1a1.06,1.06,0,0,0-.42-1.08c-.84-.47-.8-1.14-.53-1.94h0a1.72,1.72,0,0,0,0-1.78h0c-.83-.67-.67-1.72-.69-2.53-.06-2.21-1.41-4.52.33-6.64a39.17,39.17,0,0,1-1.55-5.93c-.31-1.21,0-2.16,1.56-2.06.29.29.47.67.87.9a15.89,15.89,0,0,1,3.12,2.55c1.14,1.08,1.9,2.65,3.18,3.36,1.46.79,2.16,2.2,3.43,3.07.53.36.67,1.23,1.36,1.41,2.22.57,3.21,3.16,5.65,3.33.09,0,.19.3.22.46.07.4.51.52.64.72.57,1,1.78.61,2.45,1.2a7.83,7.83,0,0,0,2.41,1.82,3.05,3.05,0,0,1,1.42.75c1.32,1.82,3.43,2.72,5,4.25.48.48,1.37.57,1.81,1.06,1.59,1.84,3.08,3.78,4.61,5.68a4.44,4.44,0,0,0,1,1.06,16.48,16.48,0,0,1,4.73,4.12c1.31,2,2.51,4.09,3.88,6,1.22,1.71,2.47,3.49,4.52,4.4a1.65,1.65,0,0,1,.85.89c.42.38,1-.08,1.47.34h0a1.46,1.46,0,0,0,1.46,0h0c.62-.53,1.59-.11,2.16-.79h0c.94-.15,1.9-.29,2.16-1.46h0a13.93,13.93,0,0,0,1.14-1.4l1.08-1.48a9.56,9.56,0,0,1,3.53-4.32,20.4,20.4,0,0,0,2.71-2.29,29.36,29.36,0,0,0,3.11-4.48c1.45-2.24,3.53-4,5.28-6h0c1.82-2.43,3.29-5.14,5.44-7.32h0c1.24-1.2,1.38-3,2.16-4.39h0a3.23,3.23,0,0,0,1.4-2.58,10.45,10.45,0,0,1,.83-3.43c1.06-2.38,2.32-4.66,3.25-7.11h0c1.18-1.29,1.21-3.68,1.72-4.87a15.77,15.77,0,0,1,1.83-2.49c.38-.51.57-1.14.92-1.65a1.74,1.74,0,0,0,2.16-.57c.67-1,1.37-.65,2.14-.62.54-.42.95-1,1.51-1.37h0c.8-.94-.39-2.1.33-3a3.36,3.36,0,0,1,.34-.65c.68-.64,1.63-.89,2.28-1.55a.91.91,0,0,0,.19-.44,3.29,3.29,0,0,1,.77-3.14h0c.94-.49.16-1.56.73-2.18.22-.81-.39-2,1.19-2.21.36,0,.44-.69.13-1.08s-.52-.66-.24-1.14c0-.35,0-.7.06-1a4.86,4.86,0,0,0-1.81-3.32,1.55,1.55,0,0,1-.06-.31c-1-.78-1.91-.14-2.81.26-.34.15-.85.39-.87-.05-.06-.88-.61-1.68-.39-2.58.45-1.88.51-3.85,1.14-5.72a8,8,0,0,0,.41-5.09c.28-.22.75-.3.87-.63.73-2.1,2.28-3.84,2.69-6.06.12-.69-.25-1.48.1-2.16a27,27,0,0,0,2.66-9.72,2.74,2.74,0,0,0-.83-2.63,2.23,2.23,0,0,0-2.68.34,5.13,5.13,0,0,1-1,.75h0c-.16.18-.43.33-.44.57-.1,2.67-2.37,4.37-3,6.81-.22.82-1.09,1.38-1.53,2.18-.33.57-.87.57-1.33,0a9.12,9.12,0,0,1-.9-1.15h0c-.78-.64.45-1.44-.06-1.94-1.14-1.09-.81-3-2.21-3.84-.82-.14-.91-1.27-1.86-1.3-.3,0-.31-.5,0-.71s.69-.24.9-.57c.71-1.1-.67-1.15-.85-1.72-.57-1.83-1.91-2.14-3.55-2a5.24,5.24,0,0,0-.74,4.4c.52,2.2,0,4.54.29,6.89.35,2.68.91,5.47.61,8.25a5.21,5.21,0,0,0,.45,2.1c.65,2.1,1.26,4.23-.63,6.08-1.78,2.1-3.9,4-3.89,7.09a3.18,3.18,0,0,1-.3,1,4.85,4.85,0,0,0-.29,2,38,38,0,0,1-.29,4.14,25,25,0,0,0-.22,4.48,35.94,35.94,0,0,1,.22,4.15,3.46,3.46,0,0,0,.77,2.7c.69.32,1.71.22,1.46,1.56a1,1,0,0,0,.81,1.2c0,.44-.25,1.08-.25,1.54,0,1.37.33,2.23.13,2.39-.7.57-.83,2.9-1.6,3.35-.57,1,.45,2.1-.15,3.11,0,.11,0,.23,0,.34-.33.29,0,.81-.37,1.08h0a22.45,22.45,0,0,0-1.48,2.17h0c-.16.23-.11.57-.33.75h0a4.85,4.85,0,0,0-.7,1.47h0a6.84,6.84,0,0,1-1.44,2.23h0a.69.69,0,0,0-.38.35h0a11.68,11.68,0,0,0-3.67,5.49,7.89,7.89,0,0,1-1.68,2.68c-1,1.06-2.37,1.77-3,3.13h0a.86.86,0,0,0-.37.36h0a2.37,2.37,0,0,1-1.08,2.26c-.26.16-.57.37-.57.64,0,2-1.57,2.86-2.7,4.07-.52.35,0,1-.44,1.4a6.68,6.68,0,0,1-1.1,1.58,17.09,17.09,0,0,0-2.51,2.71c-.92,1.45-2.77,2.13-3.71,3.67a.47.47,0,0,1-.34.12c-.64,0-.88.44-1.23.89a16.31,16.31,0,0,1-2.86,3c-.51.41-1.36.62-1.57,0-.31-.91-1.53-1.27-1.31-2.43.07-.39-.34-.62-.67-.79-1.91-1-3.15-2.78-4.43-4.39-1.79-2.29-4.18-4-5.64-6.55a.88.88,0,0,0-.26-.25c-2.74-1.62-4.58-4.29-7.09-6.2-3.06-2.28-6.06-4.57-9.69-5.9-.34-.12-.72-.14-.89-.57-.53-1.3-1.71-1.89-2.83-2.56-.24-.14-.63-.08-.75-.4-.46-1.2-1.61-1.82-2.29-2.86s-2.24-1.15-2.36-2.62c-1.44-.65-2.21-2.06-3.48-3s-3-1.48-3.94-3.06-2.86-2.25-4.46-3.08a22.5,22.5,0,0,0-2.8-.72c-2-.7-2-.64-2-2.74.15-1.46.77-3-.81-4.15-.24-.18-.18-.66.09-1,0-.23,0-.45.06-.68,0-2,1.32-4-.58-5.8-.16-.15-.09-.57.15-.82l0-2.16a4.31,4.31,0,0,1-1.07-3.68h0c.57-1.22-.66-2.24-.36-3.49.49-2-.22-4-.42-6-.28-2.64-.8-5.25-1.1-7.9-.13-1.14.42-2.63-1-3.43h0a4.21,4.21,0,0,1-.17-2.43,2.56,2.56,0,0,0-2-3c.11-1,2.12-2.93,3.07-2.67a4.41,4.41,0,0,0,2.61-.3,23.54,23.54,0,0,1,8.17-1.06,4.9,4.9,0,0,0,3-1c.47-.26,1.06.46,1.49-.18.63-.94,1.79-1.21,2.54-2,.44-.14.94.34,1.36-.12,1.39-1.61,2.62-3.47,5.18-3.18h0a1.57,1.57,0,0,1,.35-.38,9.68,9.68,0,0,0,5.65-.89,6.69,6.69,0,0,1,1.15-.45,1.35,1.35,0,0,0,.77-.41,4.1,4.1,0,0,1,2.77-1.44,4.33,4.33,0,0,0,2.11-.9,11.18,11.18,0,0,1,4.68-2.46c1.22-.81,1.95-2.23,3.74-2.29a4.85,4.85,0,0,0,3.36-1.84c.67-.86,1.29-.58,2-.6h0a4.86,4.86,0,0,1,1.65-1.72,43.78,43.78,0,0,0,8.58-7.07,29.13,29.13,0,0,1,3.75-2.93,31.42,31.42,0,0,1,4.67-3c2-1.14,4.34-2,4.83-4.71,0-.1.13-.18.24-.26a3.43,3.43,0,0,1,1.1-1.43c1-.86,2-1.71,3-2.61.76-.69,1.72-1.21,2-2.24.42-1.36,1.85-.9,2.66-1.62a52.81,52.81,0,0,0,8-9.08c1.71-2.39,3.15-4.94,4.91-7.29a29.92,29.92,0,0,0,3.1-5.07c1.15-2.34,2.58-4.51,2.76-7.21a3.87,3.87,0,0,1,.33-1.41,6.82,6.82,0,0,0,.45-4.27,2.51,2.51,0,0,1,.63-2.13,35.94,35.94,0,0,0,3.73-5.79c.89-1.83,1.7-3.7,2.41-5.62a21.17,21.17,0,0,0,1.35-7,.88.88,0,0,1,0-1.14h0l.47-.57c1.65-1.75,3.31-3.43,3.27-6.17a5.12,5.12,0,0,1,.62-2.42A33.05,33.05,0,0,0,453,370a3.29,3.29,0,0,1,1.33-2.66l.1-.64c.36-2.09,1.72-3.81,2.12-5.89.35-1.2,1.36-2.18,1.22-3.56a.71.71,0,0,1,.21-.49c1.42-1.28,1.46-3.12,1.91-4.78.13-.48.15-1,.57-1.29a2.29,2.29,0,0,0,1.06-2.18,12.94,12.94,0,0,1,2.05-7c.25-.33,0-.8.29-1.14h0c.33-.44.31-1.06.79-1.41h0c.12-.51-.13-1,.2-1.56,1.72-2.92,2.38-6.23,3.4-9.41a18,18,0,0,1,1.49-5.22,7.9,7.9,0,0,0,.77-2.38c.22-1.29.61-2.58.95-3.85.78-2.9,1.75-5.72,2.29-8.71a6.49,6.49,0,0,1,1.23-3,10.73,10.73,0,0,0,2.07-5.52c.27-2.52,1-4.94,1.33-7.43.4-2.82,1-5.6,1.51-8.41.16-.94.5-2.09.14-2.86-.68-1.42-.32-2.69-.11-4.05A4.78,4.78,0,0,0,480.24,273.82Zm-6.51,6.32c.35,2.45,0,5,.35,7.44a4.15,4.15,0,0,1-.35,2.28c-.09.23-.25.48-.21.69.52,2.65-1.46,4.51-2.19,6.74-.82,2.46-1.72,4.87-2.42,7.36-.43,1.51-.32,3.16-1.27,4.51a.63.63,0,0,0-.09.35c-.12,2.52-1.44,4.69-2.09,7.05-.32,1.14.05,2.29-.23,3.39a25.07,25.07,0,0,1-1.06,4c-.92,2.14-1.54,4.42-2.29,6.61-.65,1.87-1.25,3.93-2.71,5.47a6.6,6.6,0,0,0-1.39,3.12c-.57,2.34-1.3,4.66-1.8,7-.38,1.79-1.27,3.39-1.71,5.14-.18.64-.31,1.3-.48,1.94-.71,2.24-1.15,4.57-2.57,6.56-1.39,2.28-1.58,5.05-2.63,7.47-1.41,3.29-1.71,6.91-3.13,10.17a18.65,18.65,0,0,1-1.91,3.88,17.23,17.23,0,0,0-3.43,7,5.5,5.5,0,0,1-.81,1.41c-1.93,3-2.14,6.5-2.81,9.85-.22,1.07.52,2.33-.57,3.28h0c-.74,1.1-.73,2.51-1.5,3.6h0c-1.41.47-1.55,1.94-1.72,2.94-.36,2.05-1.5,3.76-2.22,5.58a45.06,45.06,0,0,1-4.11,8.07,2,2,0,0,1-.68.58c-1.53,2.08-3.35,4-4.53,6.29a3.31,3.31,0,0,1-.75.79,25.24,25.24,0,0,0-4.3,5.09c-.1.15-.18.4-.31.42-1.61.39-2.58,1.67-3.79,2.62-.88.68-1.44,1.63-2.29,2.29a60,60,0,0,1-5.66,4.24,22.71,22.71,0,0,0-2.61,1.95c-2.45,2.14-5.15,4-7.28,6.47-.08.09-.16.22-.26.25-2.41.57-3.47,2.7-5,4.24l-.39.39a68,68,0,0,0-8.46,4.82,6.09,6.09,0,0,1-2.36.95,1.24,1.24,0,0,0-.7.12c-1.84,1.92-4.65,1.23-6.73,2.48h0c-2,1.58-4.54,2-6.93,2.66a3.13,3.13,0,0,0-1.83,1h0c-.24.33-.42.85-.93.75-2.79-.58-4.65,1.52-6.86,2.46a41.89,41.89,0,0,1-5,1.9c-.32.18-.64.5-1,.5-2.16,0-3.95,1.32-6,1.59-3.27.44-6.57.57-9.86.79a3.74,3.74,0,0,0-1.94.34c-.18.12-.52.24-.66.15-1.18-.65-2.42-.3-3.57-.11a25.82,25.82,0,0,1-5,.31,11.5,11.5,0,0,0-2.68.4,10.84,10.84,0,0,1-4.32.12,5.12,5.12,0,0,0-2.52-.06c-.11.07-.24.18-.32.15-2.58-1.18-5.1.21-7.61.09-1.66-.08-3.59.21-5.15-1a1.88,1.88,0,0,0-1.89,0c-.53-.22-.95-.85-1.62-.33-.84.65-1.71.32-2.59.06a16.63,16.63,0,0,1-3.94-1.95,10.28,10.28,0,0,1-2.42-1.41c-1.55-1.45-3.59-2.39-4.62-4.4a.82.82,0,0,0-.89-.51c-2.29.75-2.91-1.6-4.41-2.28-.14-.07-.19-.3-.29-.45a3.83,3.83,0,0,0-.34-.63c-1.1-1.34-2.42-2.53-3.05-4.21-.25-.66-1.19-.3-1.36-1a3.43,3.43,0,0,1-2.68-2.43A4.88,4.88,0,0,0,265.6,457a2.6,2.6,0,0,1-1.35-1.54,19.62,19.62,0,0,0-4.19-7.79,11.15,11.15,0,0,1-1.93-3.75c-.45-1.47-1.58-2.16-2.54-3.05a5.47,5.47,0,0,1-1.6-2.49,21.3,21.3,0,0,0-2.5-4.89c-1.61-1.77-2.29-4-3.09-6.18h0A3.15,3.15,0,0,1,248,427h0a6.29,6.29,0,0,1-1.92-2.33c-.45-.94-1.71-1-2.44-1.72l-.38-.7a7.43,7.43,0,0,1-1.44-2.86,2.4,2.4,0,0,0-.38-.92c-2.44-2.65-2.6-6.38-4.43-9.32a27,27,0,0,1-2.29-3.7c-.89-1.46-.49-3.32-1.8-4.57-.31-.31-.21-1-.3-1.57-.86-2.19-2.36-4.1-2.05-6.76.23-2,.24-4.15-1.2-5.89a1.13,1.13,0,0,1-.28-1c.49-2.65-.24-5.08-1.08-7.58a6.52,6.52,0,0,1-.42-3.24h0a.51.51,0,0,0,0-.72v0h0a5.93,5.93,0,0,1-.84-3.47c0-1.79-.3-3.56-.17-5.38a5.52,5.52,0,0,0-.85-4.13c-.49-.57.05-1.58-.37-2.28a4,4,0,0,1-.93-1.37c-.63-1.14-.43-2.81-1.87-3.54-.33-.17-.31-.52-.26-.8.34-2-.94-3.67-1.14-5.57-.08-.75-.58-1.44-.53-2.28a.9.9,0,0,0-.31-.83c-1-.61-.81-1.51-.7-2.42a1.19,1.19,0,0,0,0-1.51c0-.22,0-.44-.05-.67-.67-.4-1.47-.68-1.58-1.63a3.51,3.51,0,0,1,0-1.37,28.87,28.87,0,0,1,.17-6c.23-2.77.9-5.65.27-8.5a2.61,2.61,0,0,1,.13-1.94,1.8,1.8,0,0,1,.5-1.14c.15-.17.35-.48.29-.57-.9-1.93.3-3.73.3-5.59.62-2.26-.34-4.43-.4-6.66,0-.57-.32-1.14.05-1.71,0-.11,0-.21.05-.32.54-1.63,1-3.27,1.55-4.92.15-.47.05-1,.57-1.32h0c.42-.68-.1-1.51.34-2.2a4.17,4.17,0,0,1,0-.7c0-2.4,1.23-4.73.93-7-.21-1.62.57-3.11.07-4.66-.28-.84.16-1.64.16-2.48a34.74,34.74,0,0,0-.1-4.08,2,2,0,0,0,0-.35c.44-.68-.14-1.53.37-2.2.37-.84.74-1.71,1.11-2.53.12-1.24.49-2.48,0-3.71a1.35,1.35,0,0,1,.18-1.38c1-1.25.63-2.68.62-4.06,0-.23-.27-.47-.11-.69,1.44-2.13.57-4.46.51-6.7,0-1,.73-1.92.44-3a4.3,4.3,0,0,0,.9-3.15h0a1.52,1.52,0,0,1-.32-.4,5.31,5.31,0,0,0,0-.69c.36-.44,0-1,.31-1.49,0-.1.05-.21.09-.31a16.36,16.36,0,0,0,1.32-6.86c0-.79,1.15-1.08,1.15-2h0c.1-1.39.83-2.6,1.09-4a16.59,16.59,0,0,0,.4-4,47.91,47.91,0,0,0,.49-5.6,15.19,15.19,0,0,1,.57-4.3c.77-1.79.69-3.8,1.1-5.72a8.32,8.32,0,0,1,.73-2.43c1.26-2.12,1.62-4.57,2.4-6.86a44.39,44.39,0,0,0,1.39-5.82c.31-1.61,1.14-3.12.54-4.84a1.37,1.37,0,0,1,.13-.89,29.63,29.63,0,0,1,3.19-6.61,18.29,18.29,0,0,0,1.85-3.86c.73-1.65.95-3.47,2-5a14.68,14.68,0,0,0,1.79-3.95c.92-3.07,2.82-5.6,4.14-8.44,1.36-.9,1.45-2.7,2.66-3.72.49-.41.5-1.09.69-1.66,1.15-3.24,2.21-6.5,4.25-9.32,1.63-2.23,3.43-4.35,5.06-6.56,1.83-2.45,4.12-4.58,5.33-7.49.35-1,1.41-1.09,2.06-1.71,1.1-1.08,1.29-2.52,1.94-3.76a7.61,7.61,0,0,1,3.82-3.68c.87-.43,1.8-.88,2-2.18a3.22,3.22,0,0,1,2-2.21c3.33-1.42,5.33-4.27,7.58-6.86a14.21,14.21,0,0,1,3.83-3.43c.16-.09.38-.13.46-.26,1.37-2,3.58-3.17,5.34-4.77a3.22,3.22,0,0,0,.49-.73c.57-1,1-2.07,2.32-2.36a.57.57,0,0,0,.49-.65h0c-.29-.89.33-1.06.9-1.48,2.14-1.55,4.46-2.91,6.45-4.61,1.76-1.49,3.74-2.85,5.09-4.83.49-.73,1.3-1.18,1.66-2.09.26-.66,1.14-.69,1.78-.64,2.21.19,4.13-.86,6.19-1.31a.34.34,0,0,0,.17,0c1.46-1.66,3.36-1.66,5.34-1.48a5.93,5.93,0,0,0,2.54-.81,4,4,0,0,1,2.65-.1,27.29,27.29,0,0,0,8.44.81c3.33-.06,6.65-.18,10-.18,1.56,0,3.08-.3,4.65-.3a15,15,0,0,1,5.87,1.43,8.79,8.79,0,0,0,2.05.67c3.28.48,6.52,1.14,9.84,1.4a16.88,16.88,0,0,1,5,.78c1.68.67,3.43,1.09,5.09,1.86a20,20,0,0,0,3.7,1.2c1,.26,2.18.36,2.86,1.42a.8.8,0,0,0,.62.31c1.37-.1,2.24,1.1,3.48,1.31.17,0,.43.12.48.25.57,1.53,2.13,2.22,3.05,3.49a11.76,11.76,0,0,0,4.67,3.92c.27.13.63.2.78.42,1.52,2.22,4,3.17,6.08,4.57a45.43,45.43,0,0,1,7.34,5.85,6.21,6.21,0,0,0,2.62,2c.82.21.79,1.14,1.26,1.35.88.35.81.93.78,1.59a3.41,3.41,0,0,0,1,2.09,15.74,15.74,0,0,0,1.18,1.39,8.27,8.27,0,0,0,.73.72h0c.1.14.24.25.33.4h0a34.77,34.77,0,0,0,3.25,2.94l.06.32c.24.37.24.89.71,1.11a9.8,9.8,0,0,1,1.53,1.28c2.37,2,3.9,4.65,5.72,7.1a35.19,35.19,0,0,0,3.85,5,5.25,5.25,0,0,1,1.08,2.08,13.93,13.93,0,0,0,2.15,3.67,22.4,22.4,0,0,1,2.86,4.8,1.4,1.4,0,0,0,1.05.89c.82.24,1,.82,1,1.67a29,29,0,0,0,.62,4.26c.36,2.25,1.45,4.16,2.2,6.21.4,1.09,1,2.17,1.3,3.29.74,2.71,2.41,5.07,2.92,7.86A29.84,29.84,0,0,1,459,184c.08.35.34.7.22,1-.68,1.92.38,3.66.72,5.42a19.11,19.11,0,0,0,.79,4c1,1.14,2.1,2.13,1.87,3.93-.09.69.54,1.44.74,2.19.57,2.21,1.45,4.35,1.56,6.69a5.26,5.26,0,0,0,.72,2.59,4.78,4.78,0,0,1,.32,3.88,7.32,7.32,0,0,0,1.14,6.86c.2.26.37.52.24.83-.63,1.42-.07,2.85-.07,4.31a8.91,8.91,0,0,0,1,3.43,4.68,4.68,0,0,1,.44,1.91,3.87,3.87,0,0,0,.57,2.61.5.5,0,0,1,.15.32c0,3.55,1.72,6.77,2,10.21.23,2.49,1.45,4.74,1.4,7.25a55.41,55.41,0,0,0,.54,6.29,69.67,69.67,0,0,1,.16,11.91,3.35,3.35,0,0,0,.33,2.29,3.07,3.07,0,0,1,.15,2.14A20.91,20.91,0,0,0,473.73,280.14Z" transform="translate(-89.89 -78.48)"/><path class="b" d="M466.48,193.42a.56.56,0,0,1,0-.63Q466.47,193.11,466.48,193.42Z" transform="translate(-89.89 -78.48)"/><path class="a" d="M238.08,426.64l.36.36Z" transform="translate(-89.89 -78.48)"/><path class="a" d="M238.45,427l.36.36Z" transform="translate(-89.89 -78.48)"/><path class="a" d="M237.72,426.27l.36.37Z" transform="translate(-89.89 -78.48)"/><path class="a" d="M218.07,341.75a1.24,1.24,0,0,1,0,1A1.44,1.44,0,0,1,218.07,341.75Z" transform="translate(-89.89 -78.48)"/><path class="a" d="M325.23,552.48l-.13,0,.13,0Z" transform="translate(-89.89 -78.48)"/><path class="c" d="M270.16,211.33a4.17,4.17,0,0,1,2.29-1.94,7.31,7.31,0,0,0,3.43-3.34,19.39,19.39,0,0,0,.91-2,1.91,1.91,0,0,0-.07-2.08,3.51,3.51,0,0,1-.72-2.21,3.65,3.65,0,0,0-.76-1.81,2.22,2.22,0,0,1,.35-3.08,4,4,0,0,0,.92-1.75c.13-.48.27-1-.42-1.18a.57.57,0,0,1-.48-.65h0c.41-1.52.09-3.33,1.58-4.45a1.78,1.78,0,0,0,.72-1.19,4.46,4.46,0,0,1,1.32-1.94c.18-.22.5-.48.74-.13.46.67.65.4,1.23,0s1.14-1.37,2.17-1.32c.46,0,.52-.4.67-.74a2.33,2.33,0,0,1,2.12-1.45c.66,0,1.33,0,2-.16a6.89,6.89,0,0,1,6.29,2.16,15.55,15.55,0,0,0,4.37,3.26,8,8,0,0,1,3.51,2.76,2.72,2.72,0,0,0,2.21,1.14,3,3,0,0,1,1.9,1,44.31,44.31,0,0,0,3.33,3.08,5.67,5.67,0,0,1,1.67,2.5,26,26,0,0,0,2.1,3.58,5.71,5.71,0,0,1,.69,4c-.16,1-.36,2-.5,3a2.32,2.32,0,0,0,.65,2.29,3.86,3.86,0,0,1,1.14,3c0,1.2.1,2.41,0,3.63a6.59,6.59,0,0,0,.88,4.57,2.3,2.3,0,0,1-.08,2.73,8.86,8.86,0,0,0-1.79,4.13c-.06.42-.16.93-.58,1.11-1,.46-1,1.6-1.71,2.29a1,1,0,0,0-.22,1,7.45,7.45,0,0,1-.14,3.78,6.13,6.13,0,0,0,1,5.49c1,1.32.71,3.11,1.84,4.32a.39.39,0,0,1,0,.35c-.81,2.05.71,3.48,1.5,5a14.71,14.71,0,0,1,.92,3.47c0,.12,0,.3,0,.36-1,.87-1,2.36-1.86,3.19a2.44,2.44,0,0,0-.64,3.22,1.18,1.18,0,0,1,.12,1.05c-.64,1.42-.36,3-.7,4.48a3.69,3.69,0,0,0,0,1.62A85.74,85.74,0,0,1,315.76,278a12.32,12.32,0,0,0,.35,1.6c-1.18.48-1.6-.25-1.9-1.18-.4-3.21-1.71-6.25-1.93-9.5-.53-1.09.22-2.14.07-3.23-.25-1.84.27-3.67-.68-5.56-.69-1.38,0-3.25,0-4.89a15.68,15.68,0,0,0-.24-3.62A73.89,73.89,0,0,1,310,242c-.32-2.79-1.83-5.14-2.79-7.68a31.61,31.61,0,0,0-2.47-5.66c-.41-.65.15-1.47-.39-2.09-.61-2.46-1.91-4.63-2.86-6.94-.68-1.65-2.45-2.45-2.71-4.25a.7.7,0,0,0-.47-.53c-1.79-.39-2.37-2.07-3.47-3.19-.35-.34-.69-.85-1.15-.85-2,0-3.56-1.22-5.33-1.81-1.08-.36-2.08-1-3.23-1.37-.74-.21-.62-1.08-.82-1.91-.86,1.19-2.11.73-3.16,1.05-2.19.67-4.54,1.09-6.08,3.08-.41.49-1.08.57-1.56,1a5.86,5.86,0,0,1-2.43,1,1.12,1.12,0,0,1-.54-.11A3.89,3.89,0,0,1,270.16,211.33Z" transform="translate(-89.89 -78.48)"/><path class="d" d="M387,254.78a1.81,1.81,0,0,1,1.23-1.47,4.64,4.64,0,0,0,2.22-2.28c.45-.84,1.2-1.53,1.72-2.35a11.52,11.52,0,0,0,1-2.15,6.4,6.4,0,0,1,1.41-2.07,45.21,45.21,0,0,1,4.13-4.29,3,3,0,0,0,.57-1.31,14,14,0,0,1,2.29-3.89,4.06,4.06,0,0,1,2.59-1.57,2.31,2.31,0,0,0,1.72-1.19,1.38,1.38,0,0,1,.74-.78c1.86-.57,3.36-2,5.18-2.53,2.06-.58,4.16-.84,5.93-2.29a5.19,5.19,0,0,1,2.63-.57,4.1,4.1,0,0,0,1.75-.39c1.36-.86,2.91-.8,4.37-1.08,1.91-.38,2.81.09,3.77,1.77.79,1.38,2,2.45,2.86,3.77.23.35.68.66.72,1,.32,3,2.33,5.54,2.58,8.58a8.8,8.8,0,0,1,0,2.71,1.55,1.55,0,0,0-.08.71c.89,2.22-.61,3.76-1.54,5.45a3.68,3.68,0,0,0-.38,1.93c0,3.35-1.48,6.17-3,9-.11.21-.35.36-.44.57-1.72,3.85-4.95,6.16-8.2,8.5a37.77,37.77,0,0,0-3,2.65c-.4.37-.74.9-1.22,1.08-3.21,1.14-5.6,3.75-8.74,5a7.21,7.21,0,0,0-2.41,1.62,7.59,7.59,0,0,1-3.3,1.86,11.64,11.64,0,0,0-3.56,1.77c-2.34,1.72-5.15,2.34-7.79,3.43-2.94.37-5.92.47-8.86.81-1.78.21-3.43,1-5.36.94s-3.67-.16-5.49-.27c-2.28-.14-3.16-1.57-2.64-3.8a2,2,0,0,0,.06-1.23c-1.56-2.61-1.48-4.63.42-6.79a11.13,11.13,0,0,0,1.54-2.86c.84-1.79,2.25-3.11,3.32-4.69,1.27-1.9,2.46-3.86,3.63-5.81a3.53,3.53,0,0,0,.5-2.29,2.18,2.18,0,0,1,.89-2c1.76-1.72,4-2.4,6.2-3.31.8.81.57,1.52-.25,2.15-.57.44-1.15.89-1.72,1.35a6.46,6.46,0,0,0-2.64,4.11,10.23,10.23,0,0,1-3.5,6.53c-1.32,1.07-2.07,3-3.47,4.08a14,14,0,0,0-3.16,4.15,2,2,0,0,0-.32,2.07c.48.83,1.4.46,2,.23a5,5,0,0,1,4.64.48c1.15.63,2.63.2,4,.4-.95-1.72,0-3.5-.3-5.15,0,0,0-.05,0,0-.81,2.08-3.47,2.86-4.7,1.53-.91-1-.58-1.95-.36-2.86.38-1.55.16-3.43,2-4.34a.67.67,0,0,1,.41.16.92.92,0,0,1-.18-.43,10.17,10.17,0,0,1,6.06-4.84c1.48-.46,3.67.25,5.25,1.29,1,.69,1.63,1.91,2.57,2.78a2.31,2.31,0,0,1,.17,2.59,1.66,1.66,0,0,1-1.82.91h-1.09c-1.52,0-2.08.63-1.43,2a5,5,0,0,0,3.55,3c3.88.76,6.66-1.47,9.61-3.29a.57.57,0,0,0,.24-.27c.81-3,3.87-4.12,5.49-6.43a4.07,4.07,0,0,1,2.13-1.58c1.31-.47,2.07-1.2,1.66-2.71a2.24,2.24,0,0,1,0-.73c.14-1.79.63-2.34,2.46-2.44,1.08-.06,1.56-.3,1.28-1.53a2,2,0,0,1,1.32-2.56l.11,0a1.66,1.66,0,0,0,.85-.67c.89-1.47,1.85-2.14,3.72-1.27,1.07.49,2-.87,2.94-1.47a2.65,2.65,0,0,1,2.76-.23,2.36,2.36,0,0,1,1.05,2.2,1.45,1.45,0,0,1-.61,1.45c-1.15.62-1.43,1.71-1.78,2.82-.57,1.85-2.15,3.21-2.58,5.28A1.52,1.52,0,0,0,425,263c2-2.58,4.36-5,5.88-7.94a13.49,13.49,0,0,0,1.07-4.57c.09-.66-.46-1.11-1.05-1.36-1.93-.82-3.48-2.29-5.46-3.06a1.64,1.64,0,0,1-.88-2.66,2.25,2.25,0,0,0,.37-1.91c-.17-.58.25-1.72-.5-1.68s-1.72-.22-2.18.93c-.24.61-1,1-1.43,1.59a1.11,1.11,0,0,1-1.75.11c-1.4-1.23-3.14-1.21-4.75-1.09-2.65.21-4.33-1.33-4.21-4.08.06-1.58.12-2.9,2.21-3,1-.06.73-1.26,1.15-2-1.9-.1-3.53-.11-5.05,1.42a14.8,14.8,0,0,1-4.53,2.86c-1.51.67-2.54,2.48-3,4.29-.24,1-.58,1.87-1.72,2a.32.32,0,0,1-.23-.19,1,1,0,0,0,.05.16c.07.23,0-.08.08.15.24,1.23-.8,1.67-1.47,2.28a18.46,18.46,0,0,0-5,6.74c-.68,1.8-2.4,2.63-4.09,3.32A1.39,1.39,0,0,1,387,254.78Z" transform="translate(-89.89 -78.48)"/><path class="c" d="M296.48,282.47a5.54,5.54,0,0,1-3.2-.08,4.24,4.24,0,0,0-3.34.38,7.2,7.2,0,0,1-8.65-1.07c-.88-.81-1.6-1.58-3-.9a1.56,1.56,0,0,1-2-.92,4,4,0,0,0-3.66-2.29,1.48,1.48,0,0,1-1.53-1.21c-.45-1.39-1.63-2.39-2.51-3.5a18,18,0,0,1-2-2.79c-.62-1.19-1.14-2.69-.26-4.09a2.11,2.11,0,0,0,.27-1.9,13.33,13.33,0,0,0-2-4.43,2.94,2.94,0,0,1-.89-2.64,2.3,2.3,0,0,0-.23-1.24c-.43-1.31-1.11-2.56-.86-4a2,2,0,0,0-.32-1,5.07,5.07,0,0,1-.37-3.55,3.17,3.17,0,0,0-.3-2.46,1.61,1.61,0,0,1-.3-.65c-.07-2.42-.88-4.74-.86-7.16a3.16,3.16,0,0,1,.25-1,2.54,2.54,0,0,0,.23-1.6,10.2,10.2,0,0,1,.09-4c.84-.14.87.46.89,1,.17,3.29,1.44,6.2,2.82,9.15a16.76,16.76,0,0,0,2.49,4.25,4.05,4.05,0,0,0,.57,3.14c1,1.71.74,4,2.82,5.14.91.53.7,1.72-.21,2.29a1.55,1.55,0,0,0-.69,2,3.9,3.9,0,0,0,.31.4c.73.89,2.57,1.1,1.86,2.92-.09.23-.2.46-.3.69.09.81.28,1.6-.38,2.29a1.13,1.13,0,0,0-.09,1.59c.07.13.14.26.22.38a2.85,2.85,0,0,0,.47.45,1.38,1.38,0,0,1,.34.3,1.69,1.69,0,0,1,.24.41,1.37,1.37,0,0,1,.13.2,31.55,31.55,0,0,0,5,3.43c1.09.68,2.24.27,3.29-.24,1.84-.89,2.73-.84,3.89.71.79,1.06,2,.81,2.93,1.15a4.53,4.53,0,0,1,3.31,4.19,3.61,3.61,0,0,0,1.86,2.78c1.11.72,1.83,1.9,3.1,2.38a.84.84,0,0,1,.53,1.08A.36.36,0,0,1,296.48,282.47Z" transform="translate(-89.89 -78.48)"/><path class="a" d="M304.83,356.25c-.1-.26-.22-.52-.33-.77-.34-1.27-1.72-1.72-2.23-2.9h0a2.94,2.94,0,0,1,.44-3.25h0c1.84-.83,2.86.12,3.67,1.64a6.17,6.17,0,0,1,3.25,3h0a26.72,26.72,0,0,1,4,3.67l.69.76c1.11,1.15,1.72,3,3.84,2.76.31,0,.4.42.58.65s.43.85.89.84c2,0,3.64,1.4,5.64,1.34a2.17,2.17,0,0,1,1.37.41,3.2,3.2,0,0,0,2.89.36c2,.31,3.83-.65,5.58-1.38a13.5,13.5,0,0,0,3.26-1.49c1.85-.84,2.93-2.71,4.79-3.53h0c1.14-2.59,3.62-3.92,5.54-5.77h0c.91-.92,2.19-1.19,3.25-1.86,1.14-.06,1.71-1,2.49-1.58,1.22,1.71,1.21,2.6,0,4.45l-2.16,3.3c-.4.67-1.15,1.07-1.44,1.83h0a6.63,6.63,0,0,1-1.86,2.15h0a.9.9,0,0,1-.33.39c-.54.28-1.15.57-1.33,1.18s-.81,1-1.22,1.48c-2,2.4-4.75,3.38-7.38,4.69-.32,1.05-1.78.35-2.13,1.36-2.37-.11-4.62.68-6.94.94-.84-.27-1.71-.52-2.5-.86h0a3.94,3.94,0,0,1-3.52.57,20.25,20.25,0,0,1-6.47-2.73c-.71-.58-1.71-.83-1.88-1.93-.07-.33-.51-.57-.83-.65a7.62,7.62,0,0,1-3.35-2.23h0a26,26,0,0,1-4-4.37h0C306,358.19,305.7,357,304.83,356.25Z" transform="translate(-89.89 -78.48)"/><path class="a" d="M318,310.94a1.14,1.14,0,0,0,.07-.32c.12-1.15.05-2.34,1.15-3.25a2.74,2.74,0,0,1,4.54,1c1.29,2.5,1.31,5.31,1.94,8,.26,1.11-1.14,2-2.21,1.52a3.87,3.87,0,0,0-1.22-.33c-2-.21-2.81-2-4.06-3.17a.73.73,0,0,1-.12-.85C318.58,312.62,318.14,311.8,318,310.94Z" transform="translate(-89.89 -78.48)"/><path class="a" d="M343.15,307.3a1.45,1.45,0,0,1,.06-.3c.77-.87,1.45-1.87,2.86-1.55h0c1.39-.34,2.23.2,2,1.46a4.89,4.89,0,0,0,.16,2.46c.42,1.32-.24,2.47-.63,3.57a11.56,11.56,0,0,1-2.29,3.2c-.85,1-2.07.61-3.05.3-.83-.27-.69-1.28-.72-2.07a3.48,3.48,0,0,1,.21-1.94h0a4.36,4.36,0,0,0,.36-3.3h0c-.36-.43-.25-.85.25-.89C343,308.2,342.91,307.63,343.15,307.3Z" transform="translate(-89.89 -78.48)"/><path class="a" d="M218.26,337.38v.51l-.35.57c-.33-.23-.13-.48,0-.71A2,2,0,0,1,218.26,337.38Z" transform="translate(-89.89 -78.48)"/><path class="e" d="M260.38,223.73a2.89,2.89,0,0,0-.73-1.83c.23-.43.71-.69,1.06-.49,2.18,1.23,3.38-.78,4.94-1.48a6.94,6.94,0,0,0,1.85-1.71c1.27-1.35,2.22-3.09,4.23-3.56a1.07,1.07,0,0,0,.67-.58c1.2-2.43,3.36-3.24,5.84-3.35,2.16-.11,4.31-.45,6.48-.47a3.62,3.62,0,0,1,2.5.88,32.75,32.75,0,0,0,6.5,4,4.78,4.78,0,0,1,2.78,3.19,7.07,7.07,0,0,0,2.39,4,6.12,6.12,0,0,1,1.44,2.08,3.1,3.1,0,0,0,1.78,1.63l.25-.07c-.43-1.43-2-1.59-2.77-2.72a43,43,0,0,1-2.29-4.35,13.46,13.46,0,0,0-1.94-3.24c-.63-.7-.93-1.45-.07-2.22a3.84,3.84,0,0,1,3.13,1.77c.82,1.49,2.12,2.55,2.86,4.09,1.15,2.37,2.38,4.72,3.53,7.1a42.44,42.44,0,0,0,2.63,5.93c.95,2.08,1.23,4.45,2.67,6.29a1.58,1.58,0,0,1,.37,1c0,2.9.85,5.72.75,8.65a3.6,3.6,0,0,0,.34,1,16.09,16.09,0,0,1,.81,5.72,24,24,0,0,1-.2,4.15,2.06,2.06,0,0,0,.39,1.71,3.09,3.09,0,0,1,.57,1.88c0,2,.08,4,.11,6-1.59-.13-1.42-1.49-1.59-2.47-.58-3.29-.91-6.63-1.72-9.87,0-.12-.11-.25-.08-.35,1.14-3.22-.5-6.19-.88-9.26a24.05,24.05,0,0,0-.75-5,6.89,6.89,0,0,1,.18,3c-.23,3.11,1.23,5.92,1.38,8.93.1,2.11.45,4.2.66,6.29.37,3.75.33,7.63,1.85,11.21a2.12,2.12,0,0,1,.21.69,23.06,23.06,0,0,0,2.15,8.63,15,15,0,0,1,.67,3.17c.13.7.15,1.34-.63,1.71-.81-2.12-2.19-3.95-2.67-6.29s-1.08-2.9-3.52-1.4c.19.61,1.06.19,1.25.81a4.16,4.16,0,0,1,.13,1.45c0,.65-.2,1.23-1,1.29-.57,0-.83.41-1.15.76-.78.8-1.11.83-1.75,0-1-1.27-2.44-1-3.73-1.14a2.88,2.88,0,0,0-1.57.4c-1.65.82-3.19-.25-4.8-.22-.46,0-.57-.57-.83-.89-.42-.5-.68-1.15-1.49-1.22-.5,0-.67-.44-.74-.9-.42-2.89-2.55-4.71-4.27-6.79a.94.94,0,0,0-.63-.32c-.69,0-1.14-.91-1.8-.69-1.23.41-.43-1-1.11-1.14-.38-.07-.7-.44-1.18-.3-1.22.37-1.57-.44-1.85-1.61-.82,1-1.53,1.84-2.29,2.66-.48.51-1,1.28-1.82.77s-.27-1.31-.07-2,.94-1.25,1.06-2.08c-.57-.09-.83.4-1.14.7s-.47.67-.87.9c-1.55.88-1.91.75-2.14-1-.1-.75-.43-1-1.09-.75s-1.34.58-2,.83h0a2.47,2.47,0,0,0-.35-.37h0c-.51-1.43-1-2.86.28-4.17a8.55,8.55,0,0,1,1.15-1.1,2.67,2.67,0,0,1,.67-.35c1.07-.21,1-.81.76-1.72s-1.15-1.77.2-2.43c0-.06-.07,0-.1,0-1.5-.37-1.82-1.87-2.71-2.82a1.91,1.91,0,0,1-.22-.7c.07-.52.16-1.05-.54-1.24a1.12,1.12,0,0,1-.33-.32,5.45,5.45,0,0,1-.57-1.75V250c.05-.48.09-1,.14-1.44,0-.31.09-.69-.15-.86a2.28,2.28,0,0,1-1-2.77c.18-.7-.77-1.49-1.46-1.63-1.24-.24-1.15-.81-.76-1.66a1.27,1.27,0,0,0,.16-.51c0-.33.16-.74-.57-.37-.39.21-1-.67-1.09-1-.43-1.14-1.67-1.94-1.6-3.33a1.91,1.91,0,0,0-.53-1.33,1.34,1.34,0,0,1-.38-1.14,2.58,2.58,0,0,0-.52-2.19c-.61-.9-.35-2-.2-3a2.65,2.65,0,0,0-.17-2.1A3,3,0,0,0,260.38,223.73Z" transform="translate(-89.89 -78.48)"/><path class="f" d="M315.28,286.75l-.92-5.24a3.48,3.48,0,0,0-.66-1.4,7.4,7.4,0,0,1-1.51-4.29,14.38,14.38,0,0,0-.84-5,22,22,0,0,1-1.09-5.79c-.08-.92-.33-1.79-.41-2.69-.14-1.54-.78-3.09-.09-4.65-.8-1.49-.12-3.19-.76-4.73a11.64,11.64,0,0,1-.44-2.92,2.7,2.7,0,0,0-.15-1c-1.41-2.47-.88-5.14-1-7.8a3.89,3.89,0,0,0-.52-1.66c-.51-1.11-.22-2.09.61-2.32s1.52.39,1.72,1.48a3.16,3.16,0,0,0,.75,2,.72.72,0,0,1,.13.57c-.6,3.43.74,6.54,1.39,9.77a3.47,3.47,0,0,1-.22,2.45c-.2.41-.52.81-.28,1.3.87,1.71.72,3.59,1,5.4a4.08,4.08,0,0,0,.82,2.58,1.52,1.52,0,0,1,.24,1.49,6.82,6.82,0,0,0,.68,4.41c.27,3.47,1.62,6.75,1.93,10.22.06,1.92.89,3.67,1.29,5.52a26.13,26.13,0,0,1,.35,2.92.77.77,0,0,1-1.47.44C315.64,287.46,315.47,287.1,315.28,286.75Z" transform="translate(-89.89 -78.48)"/><path class="e" d="M383.24,276.78a2,2,0,0,1-.66,2.7c.9.57,1.81-.26,2.71.5-2.09.22-3.73,1.55-5.84,1.22a3.36,3.36,0,0,1-2-.68,1.79,1.79,0,0,0-2.31-.34,24.29,24.29,0,0,1-2.58.76c-1,.43-2.45-1.27-2-2.34.92-2.23,1.88-4.44,3.86-6.05,1.14-.93,2.46-1.8,2.74-3.47.06-.35.41-.58.72-.79a7.64,7.64,0,0,0,3.36-7.11,1.45,1.45,0,0,1,.58-1.25,39.94,39.94,0,0,1,4.25-3.67,1.67,1.67,0,0,0,.89-1.48h0c1.76-.21,3-1.44,4.37-2.33a1.17,1.17,0,0,0,.4-.58c.72-3.1,3.13-5,5.18-7.13a13.55,13.55,0,0,0,2.09-2h0a4.74,4.74,0,0,0,1.14-2.81,1.9,1.9,0,0,1,.75-1.42,3.66,3.66,0,0,0,1.22-2,1.38,1.38,0,0,1,1.26-1.15c2.18-.14,3.48-1.78,5-3a5,5,0,0,1,2.35-1.14c1.24-.26,2.62.3,3.76-.67a.92.92,0,0,1,1.27.26l0,0c.22.44-.16.82-.48,1.09a4.56,4.56,0,0,0-1.51,2.42,1.18,1.18,0,0,1-1.66.94,1.07,1.07,0,0,0-.53-.07.69.69,0,0,0-.58.57c-.07.4.19.54.52.57s.76.09.72.57-.34.58-.77.43-.53.19-.58.52.06.52.35.58c.51,0,.76.24.77.78s0,.92.83,1.09c.65.13.89.18,1.29-.38a1,1,0,0,1,1.45-.23.57.57,0,0,1,.15.12c.53.94,1.27.75,2,.7,1.86-.12,1.86-.13,2.33,1.56.76-.57.17-1.57.74-2.16.91.79,1,.79,1.15-.19a6.8,6.8,0,0,1,.48-1.82c.47.35,0,1.09.58,1.33.09-.06.22-.1.27-.19.3-.57.1-1.65,1.19-1.47a2.61,2.61,0,0,1,1.58,2.5,6.33,6.33,0,0,0-.1,2.17c0,.89,0,1.72-1.31,2.14,1,.34,1.33,1.18,2.29.79a.9.9,0,0,1,1.05.58c.29,1.05,1,1.18,1.91,1.18.25,0,.54.09.57.35.09.83.8.79,1.32,1a2.27,2.27,0,0,1,1.09,3.28,3.85,3.85,0,0,0-.22,1.06c-.2,1.19-.31,2.41-1.31,3.3-.45.41-.26,1.05-.49,1.52s0,1.62-1.26,1.21c-.24-.08-.48.24-.46.47.07,1-.51,1.36-1.22,2s-2.1,1.51-2.11,3c0,.21-.22.42-.31.57-.57.14-.87-.51-1.37-.43a.36.36,0,0,0-.06.51c.16.31.44.66,0,1a.83.83,0,0,1-1,0,8.5,8.5,0,0,1-1.38-2,1.41,1.41,0,0,1,.48-1.65c.27-.22.78-.29.82-.67.23-2.17,2.68-3.46,2.28-5.89-.09-.61.3-.84.95-.69a.82.82,0,0,0,1-.55,1,1,0,0,0,0-.17,1.73,1.73,0,0,0-.44-1.52,1.05,1.05,0,0,0-1.34-.25,4.78,4.78,0,0,0-1.86,1.55c-.53,1.08-1.38.5-2.06.7s-1.55.13-1.67-.94c-.79.17-.79.84-1.14,1.23-.5.57-.84,1.29-1.76,1.46s-1.1.81-.37,1.51.41,1.19,0,1.72a7.92,7.92,0,0,1-1.14,1.1c-.62.58-.71-.37-1.14-.37s-1-.21-1.39.16a3.22,3.22,0,0,0-.21,2.58c.22.32.91.57.44,1-.73.6-.61,2.08-1.87,2-.7-.05-1.1.45-1.71.49-.18,0-.48.1-.48.19-.12,1.06-1.11,1.43-1.64,2.15-1.14,1.53-1.07,1.56-3.18,1.84.77.77.28,1.38-.14,2a9.25,9.25,0,0,1-4.39,3.4,3.32,3.32,0,0,0-1.83,1.35c-.23.42-.62.86-1.18.67-1.59-.58-3.26-.18-4.87-.41-1-.14-1.91-.33-2.36-1.39-.3-.72-1.1-.94-1.5-1.72C387.28,273,383,276.12,383.24,276.78Z" transform="translate(-89.89 -78.48)"/><polygon class="d" points="226.29 201.1 226.29 201.1 226.29 201.1 226.29 201.1"/><path class="d" d="M317.12,285.25c-.16-1.15-.35-2.29-.53-3.43.57-.9-.1-1.55-.41-2.29-.73-.22-.68-1-1.09-1.45-1.11.41-.69,1.31-.5,2a21.39,21.39,0,0,1,.78,3.72,8.69,8.69,0,0,1-2.72-5.24,4.64,4.64,0,0,0-.79-1.82c-.86-1.35-1.94-.79-3-.27s-1.36,1.19-.7,2.18c.31.47.75.92.16,1.41s-1.14,1.14-2.09.57a7.29,7.29,0,0,0-5.79-.45c-3.15.87-5.14-.82-6.82-3.67s-3.11-5.93-6.56-7.17a5.19,5.19,0,0,1-1.36-.9,9.1,9.1,0,0,0-3.91-1.71c-1.14-.23-1.43,1.33-2.29,1.83h-.17a.35.35,0,0,1,0-.33c.2-.77,1-1.59.06-2.29s-1.59,0-2.23.57-1.07.31-1.63-.28c-1.34-1.39-3-.95-3.81.92,1.77,1.59,4,2.59,5.63,4.32a1.24,1.24,0,0,0,1.39.08,3,3,0,0,1,2.29,0c.4.16.63,0,.87-.35.61-.93,1-1,1.72-.26A14.44,14.44,0,0,1,285,272.7c.18.25.24.4.67.25,2.42-.82,4.41,1,4.52,3.43,0,.58-.35,1.15-.16,1.79,1.14-.34,1.6.58,2.2,1.23.2.21.14.7.48.72,1.68.07,2.37,1.71,3.73,2.29a2.61,2.61,0,0,1,1.24-.06c1.18.14,2.1,1,3.17,1.19,2.74.42,5.15,1.76,7.67,2.66,1.24.43,2.47.77,3.64-.09.74-.58,1-.16,1.4.43.75,1.14,1.9,1.68,2.7,1.22C317.32,287.24,317.27,286.23,317.12,285.25Z" transform="translate(-89.89 -78.48)"/><path class="d" d="M277.6,208.47a6.56,6.56,0,0,1,6-1.14,34.63,34.63,0,0,1,5.9,2.72,37.68,37.68,0,0,0,3.62,2,6,6,0,0,1,2.24,1.46,8.33,8.33,0,0,1,2.52,2.05,56.86,56.86,0,0,1,4.81,7.21c.72,1.15.93,2.66,2.16,3.51.18-.44.49-.86.17-1.36-.88-1.4-2-2.71-1.92-4.51a.66.66,0,0,0-.2-.48,3,3,0,0,1-1.37-2.25,1,1,0,0,0-.68-.8c-.84-.22-1.07-.88-1.23-1.63-.18-.91-.61-1.56-1.71-1.53a1.08,1.08,0,0,1-1.21-.87c-.47-1.8-2.13-2.55-3.35-3.68a.47.47,0,0,0-.66-.06c-.89,1.05-1.63.17-2.41-.15s-1-1.36-2-.72c0,0-.26-.1-.27-.17-.16-1.29-1.31-.87-2-1s-.72-.27-.69-.77c0-.3,0-.6.1-.9s.21-.76-.28-.91-.95-.27-1.35.18-.26,1-.76,1.19c-.36-.35-.57-1.29-1.24-.29-.13.2-.22.45-.5.48-1.1.14-2.29.06-3.05,1.11-1.68-.16-2.48,1.27-3.63,2.05A3,3,0,0,0,277.6,208.47Z" transform="translate(-89.89 -78.48)"/><path class="d" d="M272,262.75c.39-.18.39-1,1.1-.66l.39-.28c.78-.51.79-1.27.82-2.1.1-2.29-1.54-3.83-2.29-5.75a3.55,3.55,0,0,0,0-.65c-.48-.41-.47-1.15-1.07-1.49h0c-.61-.42-.57-1.22-1-1.74h.1c1-1.15,1.35-2.29.24-3.54a.92.92,0,0,1-.28-.66c.2-2.49-1.94-3.89-2.94-5.72-.91-1.67-2.4-3.13-2.8-5.09-.47-2.29-1.85-4.43-1.33-6.94a1.27,1.27,0,0,0-.84-1.6l-.16,0c1-1.14.88-1.24-.95-3l-.22-.19c.26-.57-.05-1.14-.29-1.75a11.52,11.52,0,0,1-2.39-2.86c-.3-.52-.6-1.1-1.26-1h0a4.45,4.45,0,0,0,.5-3.23,15.27,15.27,0,0,0,3.62,6.13,2.14,2.14,0,0,0,3.11,0,1.75,1.75,0,0,0,.24-2.71c-.65-.95-1.33-1.87-2-2.79-1-1.33-1.72-2.76-.8-4.51.7.49.51,1.14.62,1.71a8.17,8.17,0,0,0,1.67,3.79,2.06,2.06,0,0,0,1.67.93c1.14,0,5-3.24,5.24-4.41a1,1,0,0,0-.17-.69.82.82,0,0,0-.43-.27,11.19,11.19,0,0,0-3.16,2.34c-.34.37-.42,1.09-1.18.76-.54-.24-1.21-.31-1.49-.94a5.64,5.64,0,0,1-.45-1.37,18.28,18.28,0,0,1-.49-3.22,1.46,1.46,0,0,0-1.07-1.52,1.54,1.54,0,0,0-1.6.57,4.29,4.29,0,0,0-1.39,2.49c-.05.32.06.76-.5.83-.63-.31-.63-1.14-1.22-1.54a2.81,2.81,0,0,0-1.87,2.63,24.12,24.12,0,0,0,0,4.88c.15.26.31.5.61.51-.31.57.28.9.46,1.33a1,1,0,0,0,0,.34c.3.54.42,1.19,1,1.5-.07,1.15.66,1.84,1.37,2.61,1,1.08,1.88,2.28,1.59,3.94h0v.72a1.61,1.61,0,0,1,.33,1.1,5.86,5.86,0,0,0,0,.73,5.06,5.06,0,0,1,.37,2.11,14.43,14.43,0,0,0,1.22,4.86,28.32,28.32,0,0,0,1.57,3.59c-.57,1.65.58,2.39,1.65,3.18a3.51,3.51,0,0,1,.64.85h0a2.47,2.47,0,0,0,.43,2.68,7.75,7.75,0,0,1,.78,1.61.78.78,0,0,1-.11,1.11l-.05,0c-.61.58-.57.94.11,1.57.46.42.57,1.05,1.45.91.39-.07.77.33,1.05.64s.57.77-.18.9-1,.81-1.14,1.45a3,3,0,0,0,.22,2.29h0a6.63,6.63,0,0,0,1.56,1.22,1,1,0,0,1,.63,1.32v0c-.12.11-.23.22-.34.34a3.1,3.1,0,0,1-.35,2.23,2.5,2.5,0,0,0,0,2.86h0a1.74,1.74,0,0,0,.73.74,6.8,6.8,0,0,0,.12-2.29A1.7,1.7,0,0,1,272,262.75Z" transform="translate(-89.89 -78.48)"/><path class="a" d="M272.94,267.91a6.55,6.55,0,0,0,2.24-3l.41-1a2.15,2.15,0,0,0-.25-1.49,1.41,1.41,0,0,0-.87-.64,1.71,1.71,0,0,0-.78,0,1.74,1.74,0,0,0-1.18.9c-.46,1.49-.43,2.24-1.32,2.79l.07,0c-.33.13-.66.29-1,.45h-.05a2.24,2.24,0,0,0-.83.87c-.17.33-.28.65-.41,1a2.31,2.31,0,0,0-.26,1.06.81.81,0,0,0,1,.49c.43-.06.47-.53.63-.65a2.29,2.29,0,0,1,.73-.09,2.71,2.71,0,0,0,.51-.1l.45-.11A3.79,3.79,0,0,0,272.94,267.91Z" transform="translate(-89.89 -78.48)"/><path class="a" d="M277.64,270.51c.1-.12.2-.28.3-.43h.11a1.7,1.7,0,0,0,.44-.24,3,3,0,0,0,.26-.22,4.64,4.64,0,0,0,.49-.5A5.19,5.19,0,0,0,280,268a2.45,2.45,0,0,0,.31-.92,1.86,1.86,0,0,0-1-1.8,1.53,1.53,0,0,0-.63-.18,1.17,1.17,0,0,0-.86.35,2.91,2.91,0,0,0-.42.67.2.2,0,0,1,0,.08l-.23.06a1.2,1.2,0,0,0-.45.29l-.45.42a12.34,12.34,0,0,0-.85.92,6.67,6.67,0,0,0-.68,1.07,6,6,0,0,1-.62.87l-1.47,1.8,0,.06h0l-.36.77v0a1.14,1.14,0,0,0-.29,1.21,1.1,1.1,0,0,0,1.1.53,1.08,1.08,0,0,0,.63-.27h0v-.05a2.08,2.08,0,0,1,.12-.32A20.56,20.56,0,0,0,277.64,270.51Zm.45-.64Zm-.57-3.72Z" transform="translate(-89.89 -78.48)"/><path class="a" d="M285.45,269.77a1.83,1.83,0,0,0-1.09-1.15,1.69,1.69,0,0,0-.83-.13,1.25,1.25,0,0,0-.92.57,1.92,1.92,0,0,0-.18.31l-.07.14a2.38,2.38,0,0,1-.18.3A10.28,10.28,0,0,1,281,271l-.1.09,0,.06-.32.61a.57.57,0,0,0-.25.06.9.9,0,0,0-.35.29l-.14.18-.58.72c-.36.5-.73,1-1.07,1.49a12.59,12.59,0,0,0-1,1.58.87.87,0,0,0,.12,1,1.13,1.13,0,0,0,.91.3,1.34,1.34,0,0,0,.84-.48c.24-.19.46-.4.71-.57l1.48-1.09a8.36,8.36,0,0,0,.73-.57c.05,0,.14-.13.15-.12h.07l.38-.19a2,2,0,0,0,.51-.33,2.2,2.2,0,0,0,.34-.28l.63-.69a5,5,0,0,0,1.28-1.72,2.8,2.8,0,0,0,.23-.69A1.88,1.88,0,0,0,285.45,269.77Zm-4.7,2Z" transform="translate(-89.89 -78.48)"/><path class="a" d="M260.26,307.51c.9,0,1.41,1.28,1.46,1.87.07,1,0,3.48-2,3.48-1.34,0-1.77-1.88-1.72-2.67S258.69,307.57,260.26,307.51Z" transform="translate(-89.89 -78.48)"/><path class="f" d="M296.1,212.58a1.8,1.8,0,0,0,.5,1.25c1.89,1.61,2.47,4,3.57,6,.78,1.48,1.47,3,3,4a5.51,5.51,0,0,1,2,2.62c.2.54.32,1-.22,1.39-.8.51-1-.24-1.31-.71a1.29,1.29,0,0,0,.25-.46,1.54,1.54,0,0,1-.24.48,1.31,1.31,0,0,1-1.7-.71v0a14.66,14.66,0,0,0-3.9-4.89,3,3,0,0,1-1.14-2,6.36,6.36,0,0,0-4-4.94,24,24,0,0,1-6-3.7,4.41,4.41,0,0,0-4.58-.73,4.57,4.57,0,0,1-2.11.25,9.23,9.23,0,0,0-6,1,3.29,3.29,0,0,0-1.77,2c-.23.74-.74,1.48-1.42,1.52-2.19.13-3,2-4.19,3.25s-2.43,2.85-4.39,3.38c-.57.14-.78.61-1,1.1-.66,1.35-1.61,1.43-2.35.11-.39-.7-.69-1.24-1.56-1.15a7.06,7.06,0,0,1-2.36-2.86,3.89,3.89,0,0,0-1.15-1.57l-.06-5.72a2.83,2.83,0,0,1,.05-.77.78.78,0,0,1,.85-.66.72.72,0,0,1,.66.63c.15.77.27,1.55.42,2.32a4.42,4.42,0,0,0,.3,1.34,25.91,25.91,0,0,0,3.14,4.93,1.37,1.37,0,0,0,2.33.08,1,1,0,0,0,.28-1.38,1,1,0,0,0-.13-.16c-.75-.91-1.43-1.87-2.19-2.76a6.77,6.77,0,0,1-1.29-6.65,2.29,2.29,0,0,1,.84-1.29c.71-.52,1.24-.37,1.42.5.3,1.41.54,2.86.78,4.26a8.14,8.14,0,0,0,1.24,2.65,1.2,1.2,0,0,0,2,.41c1.48-1.42,3.31-2.5,4.41-4.3l.42-.41a.37.37,0,0,0,.27-.09,16.51,16.51,0,0,1,2.42-1.54l1.56-.75c1.85-.28,3.24-1.6,5-2.21a9.43,9.43,0,0,1,5-.57c1.24.24,2.37,1.22,3.65,1.76,2.38,1,4.64,2.28,7,3.27C295.23,210.56,296.67,210.91,296.1,212.58Z" transform="translate(-89.89 -78.48)"/><path d="M178.68,499c-1-.22-1.71,1.25-2,2.46-.64,3.74-1.27,7.49-1.93,11.23a6.59,6.59,0,0,1-.38,1.05,5.67,5.67,0,0,1-.48-1c-.95-4-1.78-8-2.86-11.9-.43-1.53-1.27-3.22-3.22-3.25-1.38,0-2.09,1.09-2.29,2.44-.73,5.53-1.46,11.07-2.17,16.4.62,1.38,0,3.33,1.76,3.51s1.71-1.31,1.74-2.77c.06-2.86.42-5.78.74-8.65a5,5,0,0,1,.77-1.49,3.12,3.12,0,0,1,.33.69c.71,3,1.44,6,2.11,9,.38,1.65,1.72,2.78,3,2.4,1.5-.43,4,.38,4.39-2.28.79-4.94,1.65-9.87,2.19-14.84A3.51,3.51,0,0,0,178.68,499Z" transform="translate(-89.89 -78.48)"/><path d="M105.51,518.54c3-3.94,3-15.7-.08-19.85a2.49,2.49,0,0,0-1.23-.57c-.45.74-1.15,1.57-1.11,2.33.24,3.47.7,6.93,1,9.86-.23,1.88-.36,3.21-.57,4.53-.33,2.16-1.29,4.15-3.43,4.73-2.34.64-3.24-1.49-4-3.19a11.8,11.8,0,0,1-1.17-4.47c0-2.54-1.45-5-1.15-7.15s-.49-3.79-.57-5.66c0-.31-.69-.57-1.06-.88a8,8,0,0,0-.85,1.24c-2,4.24-1.55,8.72-.67,13a26,26,0,0,0,3.7,8.58C97.12,525.26,101.19,524.25,105.51,518.54Z" transform="translate(-89.89 -78.48)"/><path d="M112,539.7c-1.27-.13-1.67,1.89-1.83,3.2-.38,3-.57,6-.93,9,0,.46-.48.89-.74,1.33a7,7,0,0,0-.88-1.15c-1.42-1.24-1.14-4.35-3.27-4.29-2.29.06-3.6,2.13-3.66,4.64,0,.26-.58.69-.87.71s-.71-.4-.83-.72c-1-2.74-1.94-5.5-2.86-8.25-.32-.93-.78-2.19-1.71-2s-.9,1.56-.66,2.53c1,3.9,1.84,7.82,3,11.67.34,1.2.3,3.33,2,3.21s2.67-1.88,3-3.65c.11-.54.22-1.07.37-1.59s-.12-1.51.86-1.58,1,.81,1.14,1.52c.65,4.68,4,3.3,6.94,3.22,2.26-.07,2.82-1.9,2.94-3.34.29-3.43.09-6.95.09-10.43C113.44,542.14,114.23,539.9,112,539.7Z" transform="translate(-89.89 -78.48)"/><path d="M154.09,498c-.73-.61-2.05-1-2.74-.61-.84.49,0,1.83.28,2.55.88,2,1.77,4.09,2.53,6.18.35,1,1.14,2.07.23,3.06-1,1.15-2.38,1.09-3.75.58-.67-.26-1.45-.73-2-.58-2.38.66-1.65-.49-1.27-1.79a70.62,70.62,0,0,0,1.72-7c.11-.61,1.08-3.13,0-3.23s-1.83,2.25-2.07,2.93c-.86,2.47-1.49,5.14-2.82,7.32-1.15,1.87-.51,4.17-1.67,5.66a5.62,5.62,0,0,0-1.31,4.57,1.06,1.06,0,0,0,.86.58,6,6,0,0,0,3.55-2.8c2.39-3.47,6.4-2.75,9.81-3.32.57-.09,1.72,2.29,2.25,3.7.63,1.63,2.34.93,3.23,1.85a18.41,18.41,0,0,0,.21-2.56,19.77,19.77,0,0,0-2.86-8.48A10.73,10.73,0,0,0,154.09,498Z" transform="translate(-89.89 -78.48)"/><path d="M227.44,521.63c1.71-1.43.24-3.43-1-4.57-1.5-1.47-.57-1.6.64-2,4.64-1.63,6.74-5.63,5-9.91-1.08-2.65-3.57-3.49-6.25-3.43-3,.05-5.72,1.25-6.41,4.14-1,4.3-1.31,8.8-1.9,13.15.46.71-.45,1.71.66,2.12s1.61-.61,1.92-1.35c1.25-3,2.43-2.12,3.71,0C224.67,521,225.6,523.19,227.44,521.63ZM222,510.85c0-2.76-1.54-6.43,3.13-6.65,3.2-.16,5.72,2.28,5.4,5.14-.25,2.33-3.67,2.86-5.57,4C223.23,513,222,512.62,222,510.85Z" transform="translate(-89.89 -78.48)"/><path d="M158,539.8c-2.14-.21-1.28,2.62-1.85,4.06-.33.82.26,2.61-1.32,2.29-2.86-.61-6.06-1.1-6.06-5.23a1.42,1.42,0,0,0-1.31-1.52,1.5,1.5,0,0,0-.37,0c-1.12.12-1,1-1.12,1.76-.26,2.55-.91,5.11-.76,7.63.13,2.21-1.22,5.36,1.9,6.43,2.29.78,2.56-2.29,2.51-3.09-.2-3.15,2.7-2.09,3.79-3.31a5.22,5.22,0,0,1,1.89,3.72,3.13,3.13,0,0,0,2.4,3c1.67.18,1.27-1.55,1.35-2.62.18-2.41.29-4.82.35-5.88,0-1.79.05-2.22,0-2.63C159.14,542.75,160.14,540,158,539.8Z" transform="translate(-89.89 -78.48)"/><path d="M195.5,543.61c-1.26-.11-1.8,1.35-2.15,2.56-.91,3.13-.35,6.58-2.14,9.52-1,1.56-2.35,2.6-4,2.17-1.35-.34-1.59-2-1.63-3.35-.09-3.5-.2-7-.26-10.51a1.46,1.46,0,0,0-1.23-1.57c-.94-.16-1.24.64-1.37,1.38-.41,2.37-1.3,4.69-.79,7,0,.44,0,.74-.05,1-.19,3.85.13,8.12,4.11,9.4,4.93,1.57,8.16-1.68,9.52-6.29a49.5,49.5,0,0,0,1.29-8.52C196.9,545.33,196.81,543.73,195.5,543.61Z" transform="translate(-89.89 -78.48)"/><path d="M123.79,519.93c2.86,1.25,5.93,2.8,8.58,1.22,2.11-.08,4-.15,4-1.72,0-1.14-1.8-1.2-3.26-1.14-3.61.09-6.86-1.46-7.39-5.24a13.78,13.78,0,0,1,8.14-14.81c.39-.17.52-.95.78-1.44-.43-.14-.92-.5-1.26-.38-4.95,1.75-9.56,3.84-10.54,9.92-.38,2.44-1.92,4.93-1.59,7.2S121.32,518.84,123.79,519.93Z" transform="translate(-89.89 -78.48)"/><path d="M259.25,549c.18-4.17-3.7-7.13-7.31-5.67-1.06.43-2.6,1.54-2.61,2.34,0,1.87,1.68.39,2.56.72,1.37.52,3.48-.2,3.56,2.37.06,2-.1,3.43-2.59,3.68a2.14,2.14,0,0,0-1.72,2.49c.2,1.08,1.18,1.51,2.53,1.32,1.76-.24,2.79.57,2.16,2.61-.77,2.52-2.85,3.43-5,4.47a5.41,5.41,0,0,0-1.56,1.63c-.05.06.24.53.47.67,2.86,1.71,9.6-2.26,10.17-5.54.49-2.81-2.08-4.42-1.95-7C258.09,551.56,260.07,550.56,259.25,549Z" transform="translate(-89.89 -78.48)"/><path d="M208,554.26c-2.18-2-3.95-4.46.48-6.3.82-.34,1.35-1.39,2-2.11-.63-.4-1.21-1.06-1.89-1.17-4.07-.67-6,2.2-7.12,5.21-1,2.7,2,4,3.31,5.89.87,1.19,2.92,2.14,2.43,3.53s-2.43,2.12-4.06,1.76-4.26-1.5-4.52.79c-.2,1.85,2.48,1.45,5.07,2,1.11.54,1.31-.23,2.59-.35,1.77-.16,3.78-.45,4.34-2.76C211.35,558.07,210.1,556.13,208,554.26Z" transform="translate(-89.89 -78.48)"/><path d="M239.75,546.35a17.81,17.81,0,0,0-4.65,2.4c-2.28,1.89-5.39,3.73-6.18,6.23-1.39,4.35,5.37,11.27,10.62,11.43.28-.15,1.15-.32,1.35-.77.46-1.14-.57-1.85-1.25-2.59-2.07-2.26-5.44-3.86-5.89-6.92-.66-4.62,5.34-4.58,6.83-8,.15-.34,1.53-.33,1-1.25A2,2,0,0,0,239.75,546.35Z" transform="translate(-89.89 -78.48)"/><path d="M255,503.39a6.27,6.27,0,0,0-2.7-1.09s-1.87-.23-2.57-.16-1.42.16-2.12.28c-.45.08-1.46.31-1.53.29-1.11-.37-3.13.18-3.26,1.9-.36,4.66-1.42,9.32-.46,14,.31,1.48-.36,4.21,1.52,4s1.2-3.08,1.22-4.78c0-2.9.23-5,4.16-4.8,2.6.14,5.53-.57,6.67-3.52C256.69,507.44,256.81,505.19,255,503.39Zm-6.05,6.6c-.4,0-2.33.66-3.14-.82-.58-1,.37-4.14.49-4.3a6.53,6.53,0,0,1,2.46-.63c.63,0,2.24.13,2.46.14a8.69,8.69,0,0,1,1.84.16.81.81,0,0,1,.34.24C255.2,508.41,254.14,510.14,248.91,510Z" transform="translate(-89.89 -78.48)"/><path d="M207.33,508.35c-.21,3.94-.52,7.87-.82,11.8-.08,1,.36,1.39,1.28,1.61s1.27-.33,1.36-1c.42-2.77.58-5.58,1.15-8.32.48-2.43-.73-5.32,1.79-7.24,1.21-.91,3-.85,3.84-2.37-1.79-.37-3.57-.81-5.37-1.09a17.55,17.55,0,0,0-2.9,0,23.22,23.22,0,0,0-2.36,0c-1.65.17-4.24,0-4.28,1.79,0,2.4,2.59,2,4.33,1.91C207.78,505.3,207.4,507,207.33,508.35Z" transform="translate(-89.89 -78.48)"/><path d="M129.45,539.08c-.33.08-.82.86-.73,1.06.24.48.8.8,1.2,1.21,1.27,1.28,4.47.32,4.08,3.54-.21,1.68,0,3.5-.53,5-.77,2.13.32,3.52,1.28,5a1.17,1.17,0,0,0,1.07.22c1.22-1.43.78-3.13.77-4.82,0-4-2.63-9.08,4.23-10.22.15,0,.27-.18.52-.35-.33-.28-.57-.62-.86-.7A22.27,22.27,0,0,0,129.45,539.08Z" transform="translate(-89.89 -78.48)"/><path d="M237.3,505.19a2.86,2.86,0,0,0-1.56,1.28c-1.19,4.4-2.05,8.88-1.38,13.44.15,1,.78,2.51,2.15,2.33s.86-1.79,1.22-2.75c1.2-3.22.52-6.61.75-9.92C238.34,508.05,238.67,506.33,237.3,505.19Z" transform="translate(-89.89 -78.48)"/><path d="M123.27,543c-.28-1.14.29-3.43-1.42-3.43-1.25,0-1.57,2.06-1.66,3.29-.2,2.86-.06,5.72-.06,8.58-.41,2.18.46,5,2.22,4.93,2.05-.1,2.07-3,1.85-5A64,64,0,0,0,123.27,543Z" transform="translate(-89.89 -78.48)"/><path d="M235.75,499.35c.32,1.29.82,2.53,1.72,2.24s2.08-.13,1.86-1.37c-.3-1.71-.43-1.46-1.42-1.87C237.46,498.17,235.51,498.39,235.75,499.35Z" transform="translate(-89.89 -78.48)"/></svg>